<svg xmlns="http://www.w3.org/2000/svg" width="51" height="51" viewBox="0 0 51 51">
  <metadata><?xpacket begin="﻿" id="W5M0MpCehiHzreSzNTczkc9d"?>
<x:xmpmeta xmlns:x="adobe:ns:meta/" x:xmptk="Adobe XMP Core 5.6-c138 79.159824, 2016/09/14-01:09:01        ">
   <rdf:RDF xmlns:rdf="http://www.w3.org/1999/02/22-rdf-syntax-ns#">
      <rdf:Description rdf:about=""/>
   </rdf:RDF>
</x:xmpmeta>
                                                                                                    
                                                                                                    
                                                                                                    
                                                                                                    
                                                                                                    
                                                                                                    
                                                                                                    
                                                                                                    
                                                                                                    
                                                                                                    
                                                                                                    
                                                                                                    
                                                                                                    
                                                                                                    
                                                                                                    
                                                                                                    
                                                                                                    
                                                                                                    
                                                                                                    
                                                                                                    
                           
<?xpacket end="w"?></metadata>
<defs>
    <style>
      .cls-1 {
        fill: #250ff8;
        fill-rule: evenodd;
      }
    </style>
  </defs>
  <path class="cls-1" d="M1316.44,1007.86a3.135,3.135,0,1,0,3.14,3.14A3.145,3.145,0,0,0,1316.44,1007.86Zm0,4.56a1.425,1.425,0,1,1,1.43-1.42A1.428,1.428,0,0,1,1316.44,1012.42Zm30.12-4.56a3.135,3.135,0,1,0,3.14,3.14A3.145,3.145,0,0,0,1346.56,1007.86Zm0,4.56a1.425,1.425,0,1,1,1.43-1.42A1.428,1.428,0,0,1,1346.56,1012.42Zm-5.93-.91h-18.26a0.855,0.855,0,0,0,0,1.71h18.26A0.855,0.855,0,0,0,1340.63,1011.51Zm7.3-29.208h-0.24a2.609,2.609,0,0,0,.18-0.97,2.68,2.68,0,1,0-5.36,0,2.827,2.827,0,0,0,.18.97h-3.95v-1.883a1.766,1.766,0,0,0-1.76-1.768h-10.96a1.775,1.775,0,0,0-1.77,1.768v1.826c0,0.019.01,0.038,0.01,0.057h-3.95a2.827,2.827,0,0,0,.18-0.97,2.68,2.68,0,1,0-5.36,0,2.609,2.609,0,0,0,.18.97h-0.24a1.775,1.775,0,0,0-1.77,1.768v20.08a1.773,1.773,0,0,0,1.77,1.77h32.86a1.773,1.773,0,0,0,1.77-1.77V984.07A1.775,1.775,0,0,0,1347.93,982.3Zm-2.74-1.94a0.97,0.97,0,1,1-.97.97A0.968,0.968,0,0,1,1345.19,980.362Zm-19.22.057a0.053,0.053,0,0,1,.05-0.057h10.96a0.053,0.053,0,0,1,.05.057v1.826a0.053,0.053,0,0,1-.05.057h-10.96a0.053,0.053,0,0,1-.05-0.057v-1.826Zm-8.16-.057a0.97,0.97,0,1,1-.97.97A0.974,0.974,0,0,1,1317.81,980.362Zm30.18,23.788a0.065,0.065,0,0,1-.06.06h-15.57v-17.4a0.86,0.86,0,0,0-1.72,0v17.4h-15.57a0.065,0.065,0,0,1-.06-0.06V984.07a0.061,0.061,0,0,1,.06-0.057h32.86a0.061,0.061,0,0,1,.06.057v20.08h0Zm7.24-18.2h-1.82l-0.06,0v-8.275a2.682,2.682,0,0,0-2.68-2.681h-38.34a2.682,2.682,0,0,0-2.68,2.681v8.275l-0.06,0h-1.82a1.768,1.768,0,0,0-1.77,1.768V993.2a1.769,1.769,0,0,0,1.77,1.769h1.82l0.06,0v23.786a2.668,2.668,0,0,0,.91,2.02v3.46a1.773,1.773,0,0,0,1.77,1.77h3.65a1.767,1.767,0,0,0,1.77-1.77v-2.79h27.5v2.79a1.767,1.767,0,0,0,1.77,1.77h3.65a1.773,1.773,0,0,0,1.77-1.77v-3.46a2.662,2.662,0,0,0,.91-2.01v-23.8l0.06,0h1.82A1.769,1.769,0,0,0,1357,993.2v-5.477A1.768,1.768,0,0,0,1355.23,985.953Zm-45.58,7.245a0.055,0.055,0,0,1-.06.057h-1.82a0.061,0.061,0,0,1-.06-0.057v-5.477a0.061,0.061,0,0,1,.06-0.057h1.82a0.055,0.055,0,0,1,.06.057V993.2h0Zm6.39,31.032a0.065,0.065,0,0,1-.06.06h-3.65a0.056,0.056,0,0,1-.05-0.06v-2.8a0.433,0.433,0,0,0,.05.01h3.71v2.79Zm34.68,0a0.056,0.056,0,0,1-.05.06h-3.65a0.065,0.065,0,0,1-.06-0.06v-2.79h3.71a0.075,0.075,0,0,0,.05-0.01v2.8Zm0.92-9.07h-5.54a0.855,0.855,0,0,0,0,1.71h5.54v1.89a0.969,0.969,0,0,1-.97.96h-38.34a0.969,0.969,0,0,1-.97-0.96v-1.89h31.09a0.855,0.855,0,1,0,0-1.71h-31.09V977.681a0.974,0.974,0,0,1,.97-0.97h38.34a0.974,0.974,0,0,1,.97.97v37.479Zm3.65-21.962a0.061,0.061,0,0,1-.06.057h-1.82a0.055,0.055,0,0,1-.06-0.057v-5.477a0.055,0.055,0,0,1,.06-0.057h1.82a0.061,0.061,0,0,1,.06.057V993.2Z" transform="translate(-1306 -975)"/>
</svg>
