<svg xmlns="http://www.w3.org/2000/svg" width="50" height="50" viewBox="0 0 50 50">
  <metadata><?xpacket begin="﻿" id="W5M0MpCehiHzreSzNTczkc9d"?>
<x:xmpmeta xmlns:x="adobe:ns:meta/" x:xmptk="Adobe XMP Core 5.6-c138 79.159824, 2016/09/14-01:09:01        ">
   <rdf:RDF xmlns:rdf="http://www.w3.org/1999/02/22-rdf-syntax-ns#">
      <rdf:Description rdf:about=""/>
   </rdf:RDF>
</x:xmpmeta>
                                                                                                    
                                                                                                    
                                                                                                    
                                                                                                    
                                                                                                    
                                                                                                    
                                                                                                    
                                                                                                    
                                                                                                    
                                                                                                    
                                                                                                    
                                                                                                    
                                                                                                    
                                                                                                    
                                                                                                    
                                                                                                    
                                                                                                    
                                                                                                    
                                                                                                    
                                                                                                    
                           
<?xpacket end="w"?></metadata>
<defs>
    <style>
      .cls-1 {
        fill: #250ff8;
        fill-rule: evenodd;
      }
    </style>
  </defs>
  <path class="cls-1" d="M293.107,986.286H279.714V972.893a0.893,0.893,0,0,0-.893-0.893H259.179a0.893,0.893,0,0,0-.893.893v13.393H244.893a0.893,0.893,0,0,0-.893.893v33.931a0.893,0.893,0,0,0,.893.89h48.214a0.893,0.893,0,0,0,.893-0.89V987.179A0.893,0.893,0,0,0,293.107,986.286Zm-34.821,33.924h-12.5V988.071h12.5v32.139Zm13.393,0h-5.358v-7.14h5.358v7.14Zm6.25-33.031v33.031h-4.465v-7.14h1.786v-1.78h-12.5v1.78h1.786v7.14h-4.465V973.786h17.858v13.393Zm14.285,33.031h-12.5V988.071h12.5v32.139Zm-36.607-30.353h-7.143a0.893,0.893,0,0,0-.893.893v3.571a0.893,0.893,0,0,0,.893.893h7.143a0.893,0.893,0,0,0,.893-0.893V990.75A0.893,0.893,0,0,0,255.607,989.857Zm-4.464,3.572h-1.786v-1.786h1.786v1.786Zm3.571,0h-1.785v-1.786h1.785v1.786h0ZM255.607,997h-7.143a0.893,0.893,0,0,0-.893.893v3.567a0.9,0.9,0,0,0,.893.9h7.143a0.9,0.9,0,0,0,.893-0.9v-3.567A0.893,0.893,0,0,0,255.607,997Zm-4.464,3.57h-1.786v-1.784h1.786v1.784Zm3.571,0h-1.785v-1.784h1.785v1.784h0Zm0.893,3.57h-7.143a0.9,0.9,0,0,0-.893.9v3.57a0.893,0.893,0,0,0,.893.89h7.143a0.893,0.893,0,0,0,.893-0.89v-3.57A0.9,0.9,0,0,0,255.607,1004.14Zm-4.464,3.57h-1.786v-1.78h1.786v1.78Zm3.571,0h-1.785v-1.78h1.785v1.78h0Zm34.822-17.853h-7.143a0.893,0.893,0,0,0-.893.893v3.571a0.893,0.893,0,0,0,.893.893h7.143a0.894,0.894,0,0,0,.893-0.893V990.75A0.894,0.894,0,0,0,289.536,989.857Zm-4.465,3.572h-1.785v-1.786h1.785v1.786Zm3.572,0h-1.786v-1.786h1.786v1.786ZM289.536,997h-7.143a0.893,0.893,0,0,0-.893.893v3.567a0.9,0.9,0,0,0,.893.9h7.143a0.9,0.9,0,0,0,.893-0.9v-3.567A0.894,0.894,0,0,0,289.536,997Zm-4.465,3.57h-1.785v-1.784h1.785v1.784Zm3.572,0h-1.786v-1.784h1.786v1.784Zm0.893,3.57h-7.143a0.9,0.9,0,0,0-.893.9v3.57a0.893,0.893,0,0,0,.893.89h7.143a0.893,0.893,0,0,0,.893-0.89v-3.57A0.9,0.9,0,0,0,289.536,1004.14Zm-4.465,3.57h-1.785v-1.78h1.785v1.78Zm3.572,0h-1.786v-1.78h1.786v1.78Zm-14.286-28.567h-2.679v-2.679a0.893,0.893,0,0,0-.892-0.893h-3.572a0.893,0.893,0,0,0-.893.893v2.679h-2.678a0.893,0.893,0,0,0-.893.893v3.571a0.893,0.893,0,0,0,.893.893h2.678v2.679a0.893,0.893,0,0,0,.893.893h3.572a0.893,0.893,0,0,0,.892-0.893V984.5h2.679a0.893,0.893,0,0,0,.893-0.893v-3.571A0.893,0.893,0,0,0,274.357,979.143Zm-0.893,3.571h-2.678a0.893,0.893,0,0,0-.893.893v2.679h-1.786v-2.679a0.893,0.893,0,0,0-.893-0.893h-2.678v-1.785h2.678a0.893,0.893,0,0,0,.893-0.893v-2.679h1.786v2.679a0.893,0.893,0,0,0,.893.893h2.678v1.785Zm-6.25,7.143h-3.571a0.893,0.893,0,0,0-.893.893v3.571a0.893,0.893,0,0,0,.893.893h3.571a0.893,0.893,0,0,0,.893-0.893V990.75A0.893,0.893,0,0,0,267.214,989.857Zm-0.893,3.572h-1.785v-1.786h1.785v1.786Zm8.036-3.572h-3.571a0.893,0.893,0,0,0-.893.893v3.571a0.893,0.893,0,0,0,.893.893h3.571a0.893,0.893,0,0,0,.893-0.893V990.75A0.893,0.893,0,0,0,274.357,989.857Zm-0.893,3.572h-1.786v-1.786h1.786v1.786ZM267.214,997h-3.571a0.893,0.893,0,0,0-.893.893v3.567a0.9,0.9,0,0,0,.893.9h3.571a0.9,0.9,0,0,0,.893-0.9v-3.567A0.893,0.893,0,0,0,267.214,997Zm-0.893,3.57h-1.785v-1.784h1.785v1.784Zm8.036-3.57h-3.571a0.893,0.893,0,0,0-.893.893v3.567a0.9,0.9,0,0,0,.893.9h3.571a0.9,0.9,0,0,0,.893-0.9v-3.567A0.893,0.893,0,0,0,274.357,997Zm-0.893,3.57h-1.786v-1.784h1.786v1.784Zm-6.25,3.57h-3.571a0.9,0.9,0,0,0-.893.9v3.57a0.893,0.893,0,0,0,.893.89h3.571a0.893,0.893,0,0,0,.893-0.89v-3.57A0.9,0.9,0,0,0,267.214,1004.14Zm-0.893,3.57h-1.785v-1.78h1.785v1.78Zm8.036-3.57h-3.571a0.9,0.9,0,0,0-.893.9v3.57a0.893,0.893,0,0,0,.893.89h3.571a0.893,0.893,0,0,0,.893-0.89v-3.57A0.9,0.9,0,0,0,274.357,1004.14Zm-0.893,3.57h-1.786v-1.78h1.786v1.78Zm-25.893,3.58h1.786v1.78h-1.786v-1.78Zm3.572,0h1.786v1.78h-1.786v-1.78Zm3.571,0H256.5v1.78h-1.786v-1.78Zm26.786,0h1.786v1.78H281.5v-1.78Zm3.571,0h1.786v1.78h-1.786v-1.78Zm3.572,0h1.786v1.78h-1.786v-1.78Z" transform="translate(-244 -972)"/>
</svg>
