<svg xmlns="http://www.w3.org/2000/svg" width="46" height="45.969" viewBox="0 0 46 45.969">
  <metadata><?xpacket begin="﻿" id="W5M0MpCehiHzreSzNTczkc9d"?>
<x:xmpmeta xmlns:x="adobe:ns:meta/" x:xmptk="Adobe XMP Core 5.6-c138 79.159824, 2016/09/14-01:09:01        ">
   <rdf:RDF xmlns:rdf="http://www.w3.org/1999/02/22-rdf-syntax-ns#">
      <rdf:Description rdf:about=""/>
   </rdf:RDF>
</x:xmpmeta>
                                                                                                    
                                                                                                    
                                                                                                    
                                                                                                    
                                                                                                    
                                                                                                    
                                                                                                    
                                                                                                    
                                                                                                    
                                                                                                    
                                                                                                    
                                                                                                    
                                                                                                    
                                                                                                    
                                                                                                    
                                                                                                    
                                                                                                    
                                                                                                    
                                                                                                    
                                                                                                    
                           
<?xpacket end="w"?></metadata>
<defs>
    <style>
      .cls-1 {
        fill: #250ff8;
        fill-rule: evenodd;
      }
    </style>
  </defs>
  <path class="cls-1" d="M802.678,1016.87H792.383a1.02,1.02,0,1,0,0,2.04h10.295a3.1,3.1,0,0,1,2.912,2.05H781.235a3.1,3.1,0,0,1,2.912-2.05h2.059a1.02,1.02,0,1,0,0-2.04h-2.059a5.133,5.133,0,0,0-5.147,5.11,1.027,1.027,0,0,0,1.029,1.02H806.8a1.027,1.027,0,0,0,1.03-1.02A5.134,5.134,0,0,0,802.678,1016.87Zm-12.374.82a0.86,0.86,0,0,0-.059-0.19,1.3,1.3,0,0,0-.1-0.18,0.875,0.875,0,0,0-.128-0.15,0.979,0.979,0,0,0-.156-0.13,1.184,1.184,0,0,0-.177-0.1,1.284,1.284,0,0,0-.194-0.05,0.9,0.9,0,0,0-.4,0,1.242,1.242,0,0,0-.193.05,1.194,1.194,0,0,0-.178.1,1.025,1.025,0,0,0-.156.13,0.922,0.922,0,0,0-.128.15,1.421,1.421,0,0,0-.095.18,0.916,0.916,0,0,0-.058.19,0.9,0.9,0,0,0-.021.2,0.971,0.971,0,0,0,.021.2,1.148,1.148,0,0,0,.058.19,1.421,1.421,0,0,0,.095.18,1.549,1.549,0,0,0,.128.15,1.025,1.025,0,0,0,.156.13,1.142,1.142,0,0,0,.178.09,0.675,0.675,0,0,0,.193.06,1.355,1.355,0,0,0,.2.02,1.329,1.329,0,0,0,.2-0.02,0.675,0.675,0,0,0,.193-0.06,1.06,1.06,0,0,0,.178-0.09,1.033,1.033,0,0,0,.157-0.13,1.688,1.688,0,0,0,.127-0.15,1.421,1.421,0,0,0,.1-0.18,1.065,1.065,0,0,0,.059-0.19,1.043,1.043,0,0,0,.02-0.2A0.968,0.968,0,0,0,790.3,1017.69Zm34.395-.27-21.111-20.967,4-3.975,0.728,0.723a1.036,1.036,0,0,0,1.456,0l2.911-2.892a1.015,1.015,0,0,0,0-1.445L801.04,977.3a1.035,1.035,0,0,0-1.456,0l-2.912,2.891a1.019,1.019,0,0,0,0,1.446l0.728,0.723-11.647,11.565-0.728-.722a1.033,1.033,0,0,0-1.456,0l-2.912,2.891a1.019,1.019,0,0,0,0,1.446l11.648,11.562a1.032,1.032,0,0,0,1.455,0l2.912-2.89a1.009,1.009,0,0,0,0-1.44l-0.728-.73,3.276-3.25,21.111,20.96a1.033,1.033,0,0,0,1.456,0l2.911-2.89A1.01,1.01,0,0,0,824.7,1017.42Zm-24.387-37.953L810.5,989.586l-1.455,1.446-10.192-10.12Zm-7.279,27.463-10.192-10.115,1.456-1.446,0.728,0.723h0l8.736,8.678h0l0.727,0.72Zm1.456-4.33-7.28-7.231L798.856,983.8l7.28,7.228Zm26.57,16.98-20.383-20.235,0.764-.759,0.692-.687,20.383,20.241Z" transform="translate(-779 -977.031)"/>
</svg>
