<svg xmlns="http://www.w3.org/2000/svg" width="72" height="72" viewBox="0 0 72 72">
  <metadata><?xpacket begin="﻿" id="W5M0MpCehiHzreSzNTczkc9d"?>
<x:xmpmeta xmlns:x="adobe:ns:meta/" x:xmptk="Adobe XMP Core 5.6-c138 79.159824, 2016/09/14-01:09:01        ">
   <rdf:RDF xmlns:rdf="http://www.w3.org/1999/02/22-rdf-syntax-ns#">
      <rdf:Description rdf:about=""/>
   </rdf:RDF>
</x:xmpmeta>
                                                                                                    
                                                                                                    
                                                                                                    
                                                                                                    
                                                                                                    
                                                                                                    
                                                                                                    
                                                                                                    
                                                                                                    
                                                                                                    
                                                                                                    
                                                                                                    
                                                                                                    
                                                                                                    
                                                                                                    
                                                                                                    
                                                                                                    
                                                                                                    
                                                                                                    
                                                                                                    
                           
<?xpacket end="w"?></metadata>
<defs>
    <style>
      .cls-1 {
        fill: #dadde4;
        fill-rule: evenodd;
      }
    </style>
  </defs>
  <path class="cls-1" d="M457.625,419.664a25.026,25.026,0,1,0,25.227,25.026A25.156,25.156,0,0,0,457.625,419.664Zm-7.846,4.222A23.057,23.057,0,0,0,445.772,431h-5.767A22.478,22.478,0,0,1,449.779,423.886ZM438.11,433.81h6.77a41.39,41.39,0,0,0-1.35,9.474h-8.251A21.932,21.932,0,0,1,438.11,433.81ZM435.28,446.1h8.25a41.821,41.821,0,0,0,1.146,8.675h-7A21.915,21.915,0,0,1,435.28,446.1Zm4.122,11.487h6.088a23.726,23.726,0,0,0,4.288,7.911A22.483,22.483,0,0,1,439.4,457.583Zm16.805,9c-2.333-.594-4.535-2.646-6.313-5.926a24.7,24.7,0,0,1-1.391-3.072h7.7v9Zm0-11.81h-8.6a38.529,38.529,0,0,1-1.238-8.675h9.84v8.675Zm0-11.487h-9.84a37.974,37.974,0,0,1,1.463-9.474h8.377v9.474Zm0-12.287h-7.389a24.057,24.057,0,0,1,1.076-2.272c1.778-3.281,3.98-5.332,6.313-5.926V431Zm20.933,2.813a21.918,21.918,0,0,1,2.831,9.474H471.72a41.39,41.39,0,0,0-1.35-9.474h6.77ZM475.245,431h-5.767a23.057,23.057,0,0,0-4.007-7.111A22.478,22.478,0,0,1,475.245,431Zm-16.2-8.2c2.334,0.594,4.536,2.645,6.314,5.926A23.808,23.808,0,0,1,466.431,431h-7.389v-8.2Zm0,11.011h8.378a37.974,37.974,0,0,1,1.463,9.474h-9.841V433.81Zm0,12.286h9.841a38.529,38.529,0,0,1-1.238,8.675h-8.6V446.1Zm0,20.485v-9h7.705a24.7,24.7,0,0,1-1.391,3.072C463.578,463.935,461.376,465.987,459.042,466.581Zm6.429-1.087a23.709,23.709,0,0,0,4.289-7.911h6.088A22.48,22.48,0,0,1,465.471,465.494Zm5.1-10.723a41.821,41.821,0,0,0,1.146-8.675h8.251a21.932,21.932,0,0,1-2.4,8.675h-7ZM486.8,409a6.149,6.149,0,1,0,6.2,6.149A6.18,6.18,0,0,0,486.8,409Zm0,9.486a3.337,3.337,0,1,1,3.364-3.337A3.354,3.354,0,0,1,486.8,418.486ZM427.2,409a6.149,6.149,0,1,0,6.2,6.149A6.181,6.181,0,0,0,427.2,409Zm0,9.486a3.337,3.337,0,1,1,3.364-3.337A3.354,3.354,0,0,1,427.2,418.486ZM486.8,468.7a6.15,6.15,0,1,0,6.2,6.15A6.181,6.181,0,0,0,486.8,468.7Zm0,9.486a3.337,3.337,0,1,1,3.364-3.336A3.354,3.354,0,0,1,486.8,478.187ZM427.2,468.7a6.15,6.15,0,1,0,6.2,6.15A6.182,6.182,0,0,0,427.2,468.7Zm0,9.486a3.337,3.337,0,1,1,3.364-3.336A3.354,3.354,0,0,1,427.2,478.187Zm7.982-56.376a1.406,1.406,0,1,1-1.418,1.406A1.412,1.412,0,0,1,435.181,421.811Zm-0.126,43.343a1.407,1.407,0,1,1-1.418,1.407A1.412,1.412,0,0,1,435.055,465.154Zm44.266,0.2a1.407,1.407,0,1,1-1.418,1.406A1.412,1.412,0,0,1,479.321,465.351Zm0-43.54a1.406,1.406,0,1,1-1.418,1.406A1.411,1.411,0,0,1,479.321,421.811Z" transform="translate(-421 -409)"/>
</svg>
