<svg xmlns="http://www.w3.org/2000/svg" width="72" height="73" viewBox="0 0 72 73">
  <metadata><?xpacket begin="﻿" id="W5M0MpCehiHzreSzNTczkc9d"?>
<x:xmpmeta xmlns:x="adobe:ns:meta/" x:xmptk="Adobe XMP Core 5.6-c138 79.159824, 2016/09/14-01:09:01        ">
   <rdf:RDF xmlns:rdf="http://www.w3.org/1999/02/22-rdf-syntax-ns#">
      <rdf:Description rdf:about=""/>
   </rdf:RDF>
</x:xmpmeta>
                                                                                                    
                                                                                                    
                                                                                                    
                                                                                                    
                                                                                                    
                                                                                                    
                                                                                                    
                                                                                                    
                                                                                                    
                                                                                                    
                                                                                                    
                                                                                                    
                                                                                                    
                                                                                                    
                                                                                                    
                                                                                                    
                                                                                                    
                                                                                                    
                                                                                                    
                                                                                                    
                           
<?xpacket end="w"?></metadata>
<defs>
    <style>
      .cls-1 {
        fill: #dadde4;
        fill-rule: evenodd;
      }
    </style>
  </defs>
  <path class="cls-1" d="M1491.58,469.279h-28.47a1.418,1.418,0,0,0-1.41,1.426,2.372,2.372,0,0,1-2.36,2.376h-4.71a2.372,2.372,0,0,1-2.36-2.376,1.426,1.426,0,0,0-1.42-1.426h-22.12V432.643a2.968,2.968,0,0,1,2.95-2.971h17.67l0.02,0.124-2.95,2.8-0.03.029a13.679,13.679,0,0,0-3.99,9.695v6.366a1.418,1.418,0,0,0,2.37,1.059l6.2-5.63a1.427,1.427,0,0,0,.82.649,18.166,18.166,0,0,0,5.12.755h0.07a18.152,18.152,0,0,0,5.18-.755,1.414,1.414,0,0,0,.84-0.677l6.23,5.659a1.418,1.418,0,0,0,2.37-1.059v-6.367a13.675,13.675,0,0,0-3.99-9.694l-2.73-2.74,0.03-.211h17.41a2.968,2.968,0,0,1,2.95,2.971v26.141a1.415,1.415,0,1,0,2.83,0v-26.14a5.806,5.806,0,0,0-5.78-5.823h-17.08a23.757,23.757,0,0,0-6.04-17.745l-0.25-.276a2.418,2.418,0,0,0-1.79-.8h-0.02a2.387,2.387,0,0,0-1.79.826l-0.47.537a23.846,23.846,0,0,0-5.81,17.457h-17.39a5.806,5.806,0,0,0-5.78,5.823v36.636h-3.48a1.42,1.42,0,0,0-1.42,1.426v2.223a8.057,8.057,0,0,0,8.02,8.072h55.96a8.057,8.057,0,0,0,8.02-8.072v-2.223A1.42,1.42,0,0,0,1491.58,469.279Zm-27.82-30.417,0.68-5.4,1.16,1.176a10.81,10.81,0,0,1,3.16,7.677v3.16l-5.23-4.755ZM1457,411.246l0.17-.185a20.922,20.922,0,0,1,5.14,16.555l-0.32,2.6v0l-1.37,10.884h0l-0.14,1.158a15.394,15.394,0,0,1-3.5.4h-0.06a15.322,15.322,0,0,1-3.42-.4l-1.12-10.842-0.12-1.22h0l-0.31-3.022A20.976,20.976,0,0,1,1457,411.246Zm-6.51,29.46-5.25,4.769v-3.159a10.811,10.811,0,0,1,3.14-7.664l1.35-1.284Zm34.49,37.442h-55.96a5.212,5.212,0,0,1-5.19-5.22v-0.8h25.8a5.207,5.207,0,0,0,5,3.8h4.71a5.2,5.2,0,0,0,4.99-3.8h25.84v0.8h0A5.212,5.212,0,0,1,1484.98,478.148Zm-4.06-45.294h-7.13a1.426,1.426,0,0,0,0,2.852h5.72v27.623h-44.54V435.706h4.49a1.426,1.426,0,0,0,0-2.852h-5.91a1.418,1.418,0,0,0-1.41,1.426v30.475a1.418,1.418,0,0,0,1.41,1.426h47.37a1.42,1.42,0,0,0,1.42-1.426V434.28A1.42,1.42,0,0,0,1480.92,432.854ZM1457,421.626a1.426,1.426,0,1,1-1.42,1.426A1.425,1.425,0,0,1,1457,421.626Zm29.69,41.947a1.426,1.426,0,1,1-1.42,1.425A1.417,1.417,0,0,1,1486.69,463.573Zm-33.37-15.986a1.419,1.419,0,0,0-1.42,1.426v5.8a1.415,1.415,0,1,0,2.83,0v-5.8A1.417,1.417,0,0,0,1453.32,447.587Zm7.19-.33a1.417,1.417,0,0,0-1.41,1.425v8.559a1.415,1.415,0,1,0,2.83,0v-8.559A1.419,1.419,0,0,0,1460.51,447.257Z" transform="translate(-1421 -408)"/>
</svg>
