<svg xmlns="http://www.w3.org/2000/svg" width="61" height="73" viewBox="0 0 61 73">
  <metadata><?xpacket begin="﻿" id="W5M0MpCehiHzreSzNTczkc9d"?>
<x:xmpmeta xmlns:x="adobe:ns:meta/" x:xmptk="Adobe XMP Core 5.6-c138 79.159824, 2016/09/14-01:09:01        ">
   <rdf:RDF xmlns:rdf="http://www.w3.org/1999/02/22-rdf-syntax-ns#">
      <rdf:Description rdf:about=""/>
   </rdf:RDF>
</x:xmpmeta>
                                                                                                    
                                                                                                    
                                                                                                    
                                                                                                    
                                                                                                    
                                                                                                    
                                                                                                    
                                                                                                    
                                                                                                    
                                                                                                    
                                                                                                    
                                                                                                    
                                                                                                    
                                                                                                    
                                                                                                    
                                                                                                    
                                                                                                    
                                                                                                    
                                                                                                    
                                                                                                    
                           
<?xpacket end="w"?></metadata>
<defs>
    <style>
      .cls-1 {
        fill: #dadde4;
        fill-rule: evenodd;
      }
    </style>
  </defs>
  <path class="cls-1" d="M1243.47,423.927c-4.75,0-8.37-2.778-12.19-5.719-4.4-3.378-9.38-7.208-16.78-7.208s-12.38,3.83-16.78,7.208c-3.82,2.941-7.44,5.719-12.19,5.719a1.522,1.522,0,0,0-1.53,1.521c0,17.757,2.22,29.581,7.19,38.338,4.94,8.7,12.29,14.1,22.55,20.01a1.518,1.518,0,0,0,1.52,0c10.26-5.907,17.61-11.314,22.55-20.01,4.97-8.757,7.19-20.581,7.19-38.338A1.522,1.522,0,0,0,1243.47,423.927Zm-28.97,56.794c-18.39-10.7-27.2-19.913-27.44-53.829,5.02-.5,8.83-3.434,12.52-6.275,4.21-3.232,8.56-6.575,14.92-6.575s10.71,3.342,14.92,6.575c3.69,2.841,7.5,5.77,12.52,6.275C1241.7,460.808,1232.9,470.023,1214.5,480.721Zm-18.02-52.352a1.526,1.526,0,0,0-2.06-.637q-0.285.15-.57,0.292a1.519,1.519,0,0,0-.7,2.036,1.534,1.534,0,0,0,1.37.85,1.485,1.485,0,0,0,.67-0.157c0.22-.107.44-0.217,0.65-0.329A1.518,1.518,0,0,0,1196.48,428.369Zm40.26,11.926c0.05,0,.1.006,0.14,0.006a1.524,1.524,0,0,0,1.52-1.383c0.02-.194.03-0.389,0.05-0.583a1.525,1.525,0,0,0-3.04-.257c-0.01.188-.03,0.376-0.05,0.565A1.525,1.525,0,0,0,1236.74,440.3Zm-37.24-12.453a1.511,1.511,0,0,0,.89-0.288c0.88-.636,1.74-1.289,2.57-1.921,3.9-2.956,7.26-5.508,11.54-5.508a1.521,1.521,0,1,0,0-3.042c-5.31,0-9.23,2.977-13.38,6.13-0.82.621-1.67,1.262-2.52,1.875A1.522,1.522,0,0,0,1199.5,427.842Zm15,45.791c-3.9-2.4-8.62-5.622-12.15-9.778a1.525,1.525,0,0,0-2.33,1.968c4.06,4.774,9.45,8.33,13.69,10.893a0.04,0.04,0,0,1,.02.012c0.04,0.022.08,0.04,0.12,0.058a0.379,0.379,0,0,0,.07.035c0.03,0.014.07,0.025,0.1,0.036s0.06,0.021.09,0.029,0.07,0.013.1,0.02a0.916,0.916,0,0,0,.1.018c0.04,0.006.09,0.007,0.13,0.009,0.02,0,.04,0,0.06,0h0c0.02,0,.04,0,0.06,0,0.04,0,.09,0,0.14-0.009,0.03,0,.06-0.012.09-0.018s0.07-.011.1-0.02,0.06-.019.09-0.029,0.07-.022.1-0.036a0.325,0.325,0,0,0,.07-0.035c0.04-.018.08-0.036,0.12-0.057a0.212,0.212,0,0,1,.02-0.012c4.24-2.564,9.63-6.119,13.69-10.894,4.63-5.447,7.55-12.818,8.92-22.534a1.525,1.525,0,0,0-3.02-.424c-1.29,9.129-3.98,16-8.23,20.991C1223.12,468.011,1218.4,471.233,1214.5,473.633Zm9.84-43.607-15.91,15.866-3.77-3.765a4.95,4.95,0,0,0-7.01,6.991l7.29,7.27,0.06,0.062,0.03,0.027,0.06,0.059a0.158,0.158,0,0,1,.04.031l0.06,0.057a0.12,0.12,0,0,0,.04.026l0.06,0.055a0.041,0.041,0,0,1,.02.019l0.07,0.054c0.01,0.01.03,0.02,0.04,0.029l0.07,0.052,0.03,0.021,0.07,0.05,0.03,0.021,0.07,0.048,0.03,0.023,0.08,0.045,0.03,0.018,0.07,0.044,0.03,0.018,0.07,0.041c0.01,0.009.03,0.017,0.04,0.025l0.08,0.039c0.01,0,.01.008,0.02,0.012l0.08,0.039a0.15,0.15,0,0,0,.04.019l0.07,0.036,0.03,0.015,0.04,0.018,0.09,0.037,0.07,0.031,0.03,0.008,0.07,0.031,0.04,0.013,0.08,0.029a0.186,0.186,0,0,0,.04.013l0.03,0.013c0.03,0.009.06,0.018,0.08,0.026l0.08,0.024a0.227,0.227,0,0,0,.04.01l0.08,0.022,0.03,0.009,0.08,0.021,0.03,0.008,0.08,0.018,0.04,0.008,0.08,0.016a0.306,0.306,0,0,0,.05.009l0.04,0.007a0.442,0.442,0,0,0,.07.013l0.08,0.012a0.214,0.214,0,0,0,.04.006l0.08,0.01,0.03,0,0.04,0c0.03,0,.05.007,0.08,0.009l0.08,0.007,0.05,0,0.04,0,0.07,0,0.09,0h0.25l0.09,0,0.07,0,0.04,0,0.05,0,0.08-.007c0.03,0,.05,0,0.08-0.008l0.04,0,0.03,0,0.08-.011,0.04,0,0.08-.013,0.08-.013,0.03-.007a0.226,0.226,0,0,0,.05-0.009l0.08-.016,0.03-.007,0.08-.019a0.172,0.172,0,0,0,.04-0.009l0.08-.02,0.03-.009,0.08-.022,0.04-.01,0.08-.024c0.02-.008.05-0.016,0.07-0.024l0.04-.013c0.01,0,.03-0.01.04-0.015l0.08-.029a0.186,0.186,0,0,1,.04-0.013l0.07-.03,0.03-.011,0.08-.031c0.02-.01.05-0.021,0.07-0.033l0.04-.017a0.153,0.153,0,0,1,.04-0.018l0.07-.036,0.03-.015,0.08-.038c0.02-.012.05-0.025,0.07-0.038l0.04-.021,0.03-.018,0.08-.042,0.03-.021,0.07-.044c0.01-.007.03-0.014,0.04-0.021l0.07-.045c0.01,0,.01-0.011.02-0.016l0.07-.048a0.138,0.138,0,0,0,.04-0.025l0.07-.05a0.162,0.162,0,0,1,.04-0.026l0.06-.052,0.03-.019,0.07-.053a0.252,0.252,0,0,1,.05-0.044l0.04-.031a0.141,0.141,0,0,1,.04-0.034l0.06-.058,0.03-.022,0.06-.06,0.03-.026,0.06-.061a0.169,0.169,0,0,0,.04-0.041l19.39-19.336A4.95,4.95,0,0,0,1224.34,430.026Zm4.86,4.84-19.42,19.361a0.094,0.094,0,0,1-.01.01l-0.14.126v0l-0.19.128-0.25.133a0.034,0.034,0,0,1-.01,0l-0.17.062v0l-0.27.062v0l-0.14.015s0,0-.01,0l-0.07,0h-0.17l-0.08,0h-0.01l-0.13-.016s0,0-.01,0l-0.26-.062h0l-0.15-.054-0.29-.145-0.26-.2-7.36-7.329a1.906,1.906,0,0,1,2.7-2.69l4.86,4.84a1.52,1.52,0,0,0,2.15,0l16.99-16.941A1.905,1.905,0,0,1,1229.2,434.866Z" transform="translate(-1184 -411)"/>
</svg>
