<svg xmlns="http://www.w3.org/2000/svg" width="66" height="70" viewBox="0 0 66 70">
  <metadata><?xpacket begin="﻿" id="W5M0MpCehiHzreSzNTczkc9d"?>
<x:xmpmeta xmlns:x="adobe:ns:meta/" x:xmptk="Adobe XMP Core 5.6-c138 79.159824, 2016/09/14-01:09:01        ">
   <rdf:RDF xmlns:rdf="http://www.w3.org/1999/02/22-rdf-syntax-ns#">
      <rdf:Description rdf:about=""/>
   </rdf:RDF>
</x:xmpmeta>
                                                                                                    
                                                                                                    
                                                                                                    
                                                                                                    
                                                                                                    
                                                                                                    
                                                                                                    
                                                                                                    
                                                                                                    
                                                                                                    
                                                                                                    
                                                                                                    
                                                                                                    
                                                                                                    
                                                                                                    
                                                                                                    
                                                                                                    
                                                                                                    
                                                                                                    
                                                                                                    
                           
<?xpacket end="w"?></metadata>
<defs>
    <style>
      .cls-1 {
        fill: #dadde4;
        fill-rule: evenodd;
      }
    </style>
  </defs>
  <path class="cls-1" d="M730.639,478.266h-2.986V434.725a3.671,3.671,0,0,0-3.66-3.675h-6.674a3.671,3.671,0,0,0-3.66,3.675v43.541h-7.582V454.452a3.671,3.671,0,0,0-3.659-3.675h-6.674a3.672,3.672,0,0,0-3.66,3.675v23.814H684.5V465.933a3.671,3.671,0,0,0-3.66-3.675h-6.674a3.671,3.671,0,0,0-3.66,3.675v12.333h-3.147a1.367,1.367,0,0,0,0,2.734h63.278A1.367,1.367,0,0,0,730.639,478.266Zm-48.86,0h-8.548V465.933a0.94,0.94,0,0,1,.937-0.941h6.674a0.94,0.94,0,0,1,.937.941v12.333h0Zm21.575,0h-8.547V454.452a0.94,0.94,0,0,1,.936-0.941h6.675a0.94,0.94,0,0,1,.936.941v23.814Zm21.576,0h-8.548V434.725a0.94,0.94,0,0,1,.937-0.941h6.674a0.94,0.94,0,0,1,.937.941v43.541h0Zm2.719-65.829A1.359,1.359,0,0,0,726.221,411l-0.066,0h-8.236a1.367,1.367,0,0,0,0,2.734H723l-13.458,13.516-5.075-5.1a1.358,1.358,0,0,0-1.925,0l-24.474,24.579a1.37,1.37,0,0,0,0,1.933,1.358,1.358,0,0,0,1.925,0l23.511-23.612,5.075,5.1a1.358,1.358,0,0,0,1.926,0l14.421-14.482v4.623a1.362,1.362,0,1,0,2.723,0V412.5C727.653,412.481,727.65,412.459,727.649,412.437Zm-53.2,38.663a1.368,1.368,0,1,1-1.361,1.368A1.365,1.365,0,0,1,674.446,451.1Z" transform="translate(-666 -411)"/>
</svg>
