<svg xmlns="http://www.w3.org/2000/svg" width="74" height="73" viewBox="0 0 74 73">
  <metadata><?xpacket begin="﻿" id="W5M0MpCehiHzreSzNTczkc9d"?>
<x:xmpmeta xmlns:x="adobe:ns:meta/" x:xmptk="Adobe XMP Core 5.6-c138 79.159824, 2016/09/14-01:09:01        ">
   <rdf:RDF xmlns:rdf="http://www.w3.org/1999/02/22-rdf-syntax-ns#">
      <rdf:Description rdf:about=""/>
   </rdf:RDF>
</x:xmpmeta>
                                                                                                    
                                                                                                    
                                                                                                    
                                                                                                    
                                                                                                    
                                                                                                    
                                                                                                    
                                                                                                    
                                                                                                    
                                                                                                    
                                                                                                    
                                                                                                    
                                                                                                    
                                                                                                    
                                                                                                    
                                                                                                    
                                                                                                    
                                                                                                    
                                                                                                    
                                                                                                    
                           
<?xpacket end="w"?></metadata>
<defs>
    <style>
      .cls-1 {
        fill: #dadde4;
        fill-rule: evenodd;
      }
    </style>
  </defs>
  <path class="cls-1" d="M972.846,427.638a3.372,3.372,0,0,0-2.477-1.087h-1.726l0.2-3.143,0.255-3.9A10.812,10.812,0,0,0,958.3,408H949.7a10.813,10.813,0,0,0-10.8,11.5l0.383,5.854,0.078,1.192h-1.874a3.359,3.359,0,0,0-3.35,3.643l0.561,6.529a3.332,3.332,0,0,0,2.207,2.87v6.084a1.474,1.474,0,0,0,2.948,0v-5.885h0.4a13.873,13.873,0,0,0,25.307,5.987,7.576,7.576,0,0,0,2.819-.845c4.26-2.274,4.769-7.976,4.788-8.218h0l0.56-6.523A3.356,3.356,0,0,0,972.846,427.638Zm-34.8,9.212a0.411,0.411,0,0,1-.412-0.378l-0.561-6.53a0.412,0.412,0,0,1,.412-0.448h2.066l0.481,7.356h-1.986Zm3.8-17.537a7.865,7.865,0,0,1,7.858-8.371H958.3c0.191,0,.38.009,0.569,0.023l-2.284,6.077c-0.369.612-3.718,5.642-14.463,6.644Zm23.047,19.523a10.9,10.9,0,0,1-1.046,4.006,13.349,13.349,0,0,1-4.32-1.4,3.692,3.692,0,1,0-1.756,2.41,19.121,19.121,0,0,0,4.27,1.644,10.936,10.936,0,0,1-13.291,2.169,10.834,10.834,0,0,1-5.628-8.831l-0.8-12.215c8.3-.761,12.831-3.789,15.063-5.964a8.549,8.549,0,0,0,2.55,1.88,29.051,29.051,0,0,0,5.9,1.921Zm-8.232,1.839a0.738,0.738,0,1,1-.737-0.736A0.737,0.737,0,0,1,956.654,440.675Zm9.507-21.362-0.141,2.163a23.65,23.65,0,0,1-4.738-1.552c-1.607-.829-1.97-1.515-1.98-1.725l0-.009,0-.006,2.427-6.462a7.9,7.9,0,0,1,2.315,1.706A7.77,7.77,0,0,1,966.161,419.313Zm1.091,22.867a13.858,13.858,0,0,0,.5-2.388h1.512A5.732,5.732,0,0,1,967.252,442.18Zm2.969-5.708a0.412,0.412,0,0,1-.412.378H967.97l0.481-7.356h1.918a0.413,0.413,0,0,1,.413.448Zm20.755,42.8-1.425-7.853a21.862,21.862,0,0,0-17.47-17.566,22.025,22.025,0,0,0-4.059-.378h-4.293a1.474,1.474,0,0,0-1.042.431L954,462.571l-8.686-8.67a1.478,1.478,0,0,0-1.043-.431h-4.292a22.044,22.044,0,0,0-4.06.378h0a21.862,21.862,0,0,0-17.47,17.566l-1.425,7.853a1.472,1.472,0,0,0,1.45,1.733h71.052A1.472,1.472,0,0,0,990.976,479.267Zm-35.933-13.576,9.3-9.279h3.682q0.286,0,.573.009L954,470.987l-2.131-2.128Zm-15.064-9.279h3.682l8.254,8.239-2.131,2.128-10.378-10.358Q939.693,456.412,939.979,456.412ZM920.24,478.058l1.11-6.119A19.021,19.021,0,0,1,935.713,456.9l17.245,17.211c0.036,0.036.073,0.069,0.112,0.1a1.477,1.477,0,0,0,1.861,0c0.038-.032.075-0.065,0.112-0.1L972.287,456.9a19.02,19.02,0,0,1,14.363,15.042l1.111,6.119H920.24Zm18.135-29.439a1.473,1.473,0,0,0-1.474,1.472v0.588a1.474,1.474,0,0,0,2.948,0v-0.588A1.473,1.473,0,0,0,938.375,448.619Z" transform="translate(-917 -408)"/>
</svg>
