<?xml version="1.0" standalone="no"?>
<!DOCTYPE svg PUBLIC "-//W3C//DTD SVG 1.1//EN" "http://www.w3.org/Graphics/SVG/1.1/DTD/svg11.dtd" >
<svg xmlns="http://www.w3.org/2000/svg" xmlns:xlink="http://www.w3.org/1999/xlink" version="1.1">
<metadata>
Created by FontForge 20161116 at Fri Mar 29 19:16:00 2013
 By Jimmy Wärting
Futura was designed for Bauer company in 1927 by Paul Renner. This is a sans serif face based on geometrical shapes, representative of the aesthetics of the Bauhaus school of the 1920s-30s. Issued by the Bauer Foundry in a wide range of weights and widths, Futura became a very popular choice for text and display setting. Originally Cyrillic version of eight styles was developed at ParaType (ParaGraph) in 1995 by Vladimir Yefimov. Additional Cyrillic styles were developed in 2007-2009 by Isabella Chaeva. Simultaneously the old eight styles were partly revised to match the whole family. Now the new Futura is an uniform type system consisted of seven weights with corresponding obliques plus eight condensed styles. All these fonts are coordinated in letterforms, metrics, and weights to better working together.
</metadata>
<defs>
<font id="FuturaPTCond-Medium" horiz-adv-x="500" >
  <font-face 
    font-family="Futura PT Cond Medium"
    font-weight="450"
    font-stretch="condensed"
    units-per-em="1000"
    panose-1="2 11 6 6 2 2 4 2 2 3"
    ascent="763"
    descent="-237"
    x-height="447"
    cap-height="667"
    bbox="-221 -250 750 920"
    underline-thickness="50"
    underline-position="-100"
    stemh="76"
    stemv="90"
    unicode-range="U+0020-FB02"
  />
<missing-glyph horiz-adv-x="233" 
 />
    <glyph glyph-name="afii10017.var.accented" unicode="&#x410;`" horiz-adv-x="360" 
d="M359 0h-89l-25 130h-132l-25 -130h-87l145 667h71zM126 199h106c-20 112 -40 225 -52 338c-11 -114 -33 -226 -54 -338zM136 755l86 129l68 -42l-107 -115z" />
    <glyph glyph-name="afii10022.var.accented" unicode="&#x415;`" horiz-adv-x="321" 
d="M290 0h-239v667h239v-76h-149v-212h132v-76h-132v-227h149v-76zM116 755l86 129l68 -42l-107 -115z" />
    <glyph glyph-name="afii10026.var.accented" unicode="&#x418;`" horiz-adv-x="410" 
d="M51 0v667h88v-273c0 -50 -5 -147 -19 -235c27 89 34 125 59 201l100 307h80v-667h-88v297c0 54 12 166 18 217c-23 -82 -33 -126 -51 -181l-107 -333h-80zM161 755l86 129l68 -42l-107 -115z" />
    <glyph glyph-name="afii10032.var.accented" unicode="&#x41e;`" horiz-adv-x="423" 
d="M385 333c0 -100 -3 -238 -66 -301c-32 -32 -72 -41 -107 -41c-51 0 -85 18 -108 41c-62 63 -66 200 -66 299c0 102 3 240 66 303c23 23 57 41 108 41c50 0 84 -18 107 -41c62 -62 66 -199 66 -301zM132 317c0 -165 19 -209 37 -227c13 -13 27 -16 43 -16c15 0 29 3 42 16
c18 18 37 62 37 227v50c0 155 -22 197 -37 211c-13 13 -27 16 -42 16c-16 0 -30 -3 -43 -16c-15 -14 -37 -56 -37 -211v-50zM167 755l86 129l68 -42l-107 -115z" />
    <glyph glyph-name="afii10037.var.accented" unicode="&#x423;`" horiz-adv-x="359" 
d="M8 667h94l41 -157c15 -59 26 -97 40 -175c6 33 18 100 38 177l40 155h90l-183 -667h-88l61 213zM135 755l86 129l68 -42l-107 -115z" />
    <glyph glyph-name="afii10045.var.accented" unicode="&#x42b;`" horiz-adv-x="514" 
d="M462 0h-90v667h90v-667zM51 667h90v-285h10c43 0 96 -5 135 -44c40 -41 46 -105 46 -150c0 -47 -6 -111 -44 -149c-19 -19 -54 -39 -113 -39h-124v667zM141 306v-230h4c22 0 51 0 71 19c24 23 25 70 25 92c0 27 -2 75 -28 99c-20 18 -50 20 -69 20h-3zM213 755l86 129
l68 -42l-107 -115z" />
    <glyph glyph-name="afii10047.var.accented" unicode="&#x42d;`" horiz-adv-x="369" 
d="M38 22v93c21 -29 53 -37 79 -37c30 0 51 11 65 25c43 42 53 154 53 207h-155v76h154c-1 124 -36 167 -49 180c-20 20 -41 27 -65 27s-52 -8 -82 -41v93c37 28 71 31 99 31c44 0 83 -10 118 -44c69 -67 76 -192 76 -263c0 -110 -12 -265 -84 -335
c-34 -33 -74 -44 -113 -44c-45 0 -74 14 -96 32zM110 755l86 129l68 -42l-107 -115z" />
    <glyph glyph-name="afii10048.var.accented" unicode="&#x42e;`" horiz-adv-x="597" 
d="M559 333c0 -100 -3 -238 -66 -301c-32 -32 -72 -41 -107 -41c-51 0 -85 18 -108 41c-55 55 -64 163 -64 286v7h-73v-325h-90v667h90v-266h74c0 67 9 179 63 233c23 23 57 41 108 41c50 0 84 -18 107 -41c62 -62 66 -199 66 -301zM306 317c0 -165 19 -209 37 -227
c13 -13 27 -16 43 -16c15 0 29 3 42 16c18 18 37 62 37 227v50c0 155 -22 197 -37 211c-13 13 -27 16 -42 16c-16 0 -30 -3 -43 -16c-15 -14 -37 -56 -37 -211v-50zM254 755l86 129l68 -42l-107 -115z" />
    <glyph glyph-name="afii10049.var.accented" unicode="&#x42f;`" horiz-adv-x="356" 
d="M20 0l109 309c-31 5 -53 20 -66 33c-33 32 -42 80 -42 135c0 83 23 132 52 158c35 32 76 32 113 32h119v-667h-90v304l-103 -304h-92zM215 593h-24c-17 0 -36 -1 -54 -16c-25 -22 -29 -65 -29 -98c0 -67 24 -89 31 -94c14 -11 40 -16 62 -16h14v224zM134 755l86 129
l68 -42l-107 -115z" />
    <glyph glyph-name="afii10023.var.accented" unicode="&#x401;`" horiz-adv-x="321" 
d="M290 0h-239v667h239v-76h-149v-212h132v-76h-132v-227h149v-76zM116 755l79 129l50 -33l-100 -115zM106 778c0 -24 -19 -43 -42 -43c-25 0 -43 19 -43 43s18 43 43 43c23 0 42 -19 42 -43zM306 778c0 -24 -18 -43 -43 -43c-23 0 -42 19 -42 43s19 43 42 43
c25 0 43 -19 43 -43z" />
    <glyph glyph-name="afii10065.var.accented" unicode="&#x430;`" horiz-adv-x="349" 
d="M302 0h-83v57c-17 -38 -36 -64 -82 -64c-106 0 -107 162 -107 236c0 75 2 225 108 225c41 0 63 -23 81 -58v51h83v-447zM222 199v48c0 35 -2 132 -53 132c-52 0 -54 -89 -54 -125v-61c0 -36 2 -126 54 -126c51 0 53 97 53 132zM130 541l86 129l68 -42l-107 -115z" />
    <glyph glyph-name="afii10070.var.accented" unicode="&#x435;`" horiz-adv-x="326" 
d="M299 207h-188c0 -39 0 -143 57 -143c44 0 51 54 51 87h77c-1 -32 -3 -61 -17 -90c-21 -44 -63 -68 -112 -68c-126 0 -137 133 -137 229c0 93 11 232 135 232c126 0 134 -154 134 -247zM111 267h104c-2 35 -2 117 -52 117c-49 0 -50 -83 -52 -117zM119 541l86 129l68 -42
l-107 -115z" />
    <glyph glyph-name="afii10074.var.accented" unicode="&#x438;`" horiz-adv-x="370" 
d="M47 447h82v-223c0 -16 -2 -62 -3 -81c7 28 16 51 25 75l92 229h80v-447h-82v222c0 22 1 53 3 79c-8 -33 -17 -57 -27 -82l-90 -219h-80v447zM141 541l86 129l68 -42l-107 -115z" />
    <glyph glyph-name="afii10080.var.accented" unicode="&#x43e;`" horiz-adv-x="341" 
d="M225 192v59c0 78 -14 105 -25 116c-9 9 -19 12 -28 12s-19 -3 -28 -12c-11 -11 -25 -38 -25 -116v-59c0 -24 2 -87 25 -110c9 -9 19 -12 28 -12s19 3 28 12c23 23 25 86 25 110zM311 223c0 -66 -4 -150 -55 -198c-25 -24 -53 -32 -85 -32c-33 0 -61 8 -86 32
c-51 48 -55 132 -55 198c0 67 4 151 55 199c25 24 53 32 86 32c32 0 60 -8 85 -32c51 -48 55 -132 55 -199zM126 541l86 129l68 -42l-107 -115z" />
    <glyph glyph-name="afii10085.var.accented" unicode="&#x443;`" horiz-adv-x="326" 
d="M323 447l-185 -635h-87l71 224l-119 411h94l65 -312l77 312h84zM119 541l86 129l68 -42l-107 -115z" />
    <glyph glyph-name="afii10093.var.accented" unicode="&#x44b;`" horiz-adv-x="460" 
d="M413 0h-82v447h82v-447zM129 447v-171h14c29 0 84 -2 121 -40c31 -31 35 -70 35 -102c0 -27 -4 -72 -36 -102c-31 -29 -73 -32 -105 -32h-111v447h82zM129 70h20c12 0 35 0 50 14c7 7 16 22 16 50c0 29 -9 45 -18 54c-11 11 -31 18 -58 18h-10v-136zM186 541l86 129
l68 -42l-107 -115z" />
    <glyph glyph-name="afii10095.var.accented" unicode="&#x44d;`" horiz-adv-x="297" 
d="M36 15v87c6 -7 16 -16 24 -21c14 -9 27 -10 40 -10c17 0 31 3 45 16c26 24 32 74 32 105h-109v74h108c-1 31 -10 70 -31 91c-13 13 -28 18 -46 18s-32 -7 -41 -13c-8 -6 -16 -14 -22 -21v89c13 10 37 24 80 24c38 0 69 -9 96 -37c46 -48 55 -132 55 -186
c0 -62 -8 -155 -58 -204c-29 -28 -59 -34 -94 -34c-22 0 -50 1 -79 22zM74 541l86 129l68 -42l-107 -115z" />
    <glyph glyph-name="afii10096.var.accented" unicode="&#x44e;`" horiz-adv-x="492" 
d="M376 192v59c0 78 -14 105 -25 116c-9 9 -19 12 -28 12s-19 -3 -28 -12c-11 -11 -25 -38 -25 -116v-59c0 -16 1 -85 25 -110c6 -7 16 -12 28 -12c9 0 19 3 28 12c23 23 25 86 25 110zM462 223c0 -66 -4 -149 -55 -198c-29 -27 -59 -32 -88 -32c-28 0 -57 5 -84 32
c-47 47 -51 137 -51 171h-55v-196h-82v447h82v-177h57c0 36 6 109 51 152c25 24 51 32 84 32s61 -8 86 -32c51 -48 55 -132 55 -199zM202 541l86 129l68 -42l-107 -115z" />
    <glyph glyph-name="afii10097.var.accented" unicode="&#x44f;`" horiz-adv-x="323" 
d="M20 0l88 179c-24 5 -45 18 -59 34c-22 26 -25 61 -25 85c0 49 14 87 37 111c34 35 82 38 119 38h96v-447h-82v183l-83 -183h-91zM194 236v139h-18c-12 0 -34 -1 -49 -16c-10 -9 -19 -26 -19 -56c0 -16 2 -38 19 -52c10 -8 25 -15 50 -15h17zM117 541l86 129l68 -42
l-107 -115z" />
    <glyph glyph-name="afii10071.var.accented" unicode="&#x451;`" horiz-adv-x="326" 
d="M299 207h-188c0 -39 0 -143 57 -143c44 0 51 54 51 87h77c-1 -32 -3 -61 -17 -90c-21 -44 -63 -68 -112 -68c-126 0 -137 133 -137 229c0 93 11 232 135 232c126 0 134 -154 134 -247zM111 267h104c-2 35 -2 117 -52 117c-49 0 -50 -83 -52 -117zM112 541l80 129l50 -34
l-101 -115zM110 573c0 -22 -17 -40 -40 -40c-22 0 -40 18 -40 40s18 40 40 40c23 0 40 -18 40 -40zM299 573c0 -22 -18 -40 -40 -40c-23 0 -40 18 -40 40s17 40 40 40c22 0 40 -18 40 -40z" />
    <glyph glyph-name="fi" unicode="fi" horiz-adv-x="373" 
d="M213 728v-87c-11 6 -22 11 -35 11c-35 0 -37 -27 -38 -55c0 -11 -1 -22 -1 -33v-117h70v-66h-70v-381h-82v381h-42v66h42v154c0 73 10 139 100 139c22 0 36 -4 56 -12zM337 581c0 -30 -25 -56 -55 -56c-31 0 -56 25 -56 56s25 56 56 56c30 0 55 -26 55 -56zM326 0h-82
v447h82v-447z" />
    <glyph glyph-name="fl" unicode="fl" horiz-adv-x="373" 
d="M213 728v-87c-11 6 -22 11 -35 11c-35 0 -37 -27 -38 -55c0 -11 -1 -22 -1 -33v-117h70v-66h-70v-381h-82v381h-42v66h42v154c0 73 10 139 100 139c22 0 36 -4 56 -12zM326 0h-82v729h82v-729z" />
    <glyph glyph-name=".notdef" horiz-adv-x="233" 
 />
    <glyph glyph-name="space" unicode=" " horiz-adv-x="233" 
 />
    <glyph glyph-name="exclam" unicode="!" horiz-adv-x="246" 
d="M167 180h-87v487h87v-487zM176 47c0 -30 -23 -54 -53 -54c-29 0 -53 25 -53 54s24 53 53 53s53 -24 53 -53z" />
    <glyph glyph-name="quotedbl" unicode="&#x22;" horiz-adv-x="342" 
d="M290 667l-14 -268h-61l-14 268h89zM141 667l-15 -268h-60l-15 268h90z" />
    <glyph glyph-name="numbersign" unicode="#" horiz-adv-x="600" 
d="M581 477l-11 -74h-107l-19 -126h108l-11 -74h-109l-31 -203h-84l31 203h-127l-31 -203h-83l31 203h-110l12 74h110l19 126h-110l12 74h109l30 190h83l-30 -190h127l30 190h84l-30 -190h107zM379 403h-127l-19 -126h127z" />
    <glyph glyph-name="dollar" unicode="$" horiz-adv-x="380" 
d="M339 575l-69 -33c-10 39 -35 62 -77 62c-54 0 -74 -44 -74 -92c0 -26 4 -47 19 -68c41 -59 143 -83 184 -152c19 -32 24 -70 24 -107c0 -46 -8 -96 -33 -135c-25 -40 -60 -49 -93 -57v-84h-60v84c-63 9 -95 34 -120 104l73 35c14 -41 32 -59 77 -59c58 0 71 52 71 100
c0 26 -5 54 -21 75c-13 17 -43 36 -64 49c-91 57 -141 97 -141 207c0 86 41 164 125 171v76h60v-76c57 -7 99 -33 119 -100z" />
    <glyph glyph-name="percent" unicode="%" horiz-adv-x="515" 
d="M223 497c0 -77 -10 -168 -97 -168c-86 0 -94 92 -94 168c0 82 8 174 94 174c87 0 97 -91 97 -174zM164 476v49c0 24 -1 92 -36 92c-34 0 -36 -58 -36 -82v-65c0 -25 0 -87 36 -87c35 0 36 69 36 93zM427 667l-291 -667h-55l291 667h55zM483 163c0 -77 -10 -168 -97 -168
c-86 0 -94 92 -94 168c0 82 8 174 94 174c87 0 97 -91 97 -174zM424 142v49c0 24 -1 92 -36 92c-34 0 -36 -58 -36 -82v-65c0 -25 0 -87 36 -87c35 0 36 69 36 93z" />
    <glyph glyph-name="ampersand" unicode="&#x26;" horiz-adv-x="446" 
d="M426 0h-89l-31 52c-13 -14 -33 -30 -46 -38c-21 -13 -44 -18 -68 -18c-43 0 -75 13 -102 41c-31 32 -50 82 -50 136c0 43 13 77 33 109c24 39 53 65 68 78c-23 33 -34 63 -40 79c-10 30 -16 62 -16 94c0 30 6 71 37 104c22 24 54 38 90 38c31 0 65 -12 88 -35
c14 -15 35 -44 35 -98c0 -37 -9 -73 -29 -109c-26 -46 -60 -75 -74 -86l92 -169c22 26 40 52 55 78l44 -60c-19 -31 -40 -59 -62 -83zM199 408c23 22 40 48 50 71c8 19 14 43 14 65c0 17 -4 38 -15 50c-7 8 -18 13 -32 13c-12 0 -24 -4 -34 -15c-12 -13 -19 -34 -19 -60
c0 -21 4 -41 10 -60c6 -22 14 -42 26 -64zM269 113l-93 179c-33 -31 -52 -72 -52 -119c0 -26 5 -49 19 -70c18 -26 40 -32 57 -32c33 0 57 26 69 42z" />
    <glyph glyph-name="quotesingle" unicode="'" horiz-adv-x="192" 
d="M141 667l-15 -268h-60l-15 268h90z" />
    <glyph glyph-name="parenleft" unicode="(" horiz-adv-x="266" 
d="M226 -171l-87 -23c-52 149 -88 307 -88 461c0 165 34 324 88 473l87 -21c-43 -138 -82 -294 -82 -439c0 -151 36 -303 82 -451z" />
    <glyph glyph-name="parenright" unicode=")" horiz-adv-x="265" 
d="M127 -194l-87 23c46 148 82 300 82 451c0 145 -39 301 -82 439l87 21c54 -149 88 -308 88 -473c0 -154 -36 -312 -88 -461z" />
    <glyph glyph-name="asterisk" unicode="*" horiz-adv-x="387" 
d="M339 603l-107 -26l72 -89l-47 -32l-60 93l-64 -95l-45 31l70 90l-110 28l18 54l105 -38l-4 110h56l-3 -111l101 40z" />
    <glyph glyph-name="plus" unicode="+" 
d="M467 296h-176v-168h-82v168h-176v76h176v168h82v-168h176v-76z" />
    <glyph glyph-name="comma" unicode="," horiz-adv-x="180" 
d="M137 72l-78 -215l-46 13l52 223z" />
    <glyph glyph-name="hyphen" unicode="-" horiz-adv-x="255" 
d="M205 295v-78h-155v78h155z" />
    <glyph glyph-name="period" unicode="." horiz-adv-x="187" 
d="M147 47c0 -30 -24 -54 -54 -54c-29 0 -53 25 -53 54s24 53 53 53s54 -24 54 -53z" />
    <glyph glyph-name="slash" unicode="/" horiz-adv-x="397" 
d="M410 729l-396 -912h-71l397 912h70z" />
    <glyph glyph-name="zero" unicode="0" horiz-adv-x="380" 
d="M341 363c0 -86 2 -211 -32 -289c-22 -51 -62 -82 -119 -82c-149 0 -151 214 -151 319c0 111 -11 364 151 364c148 0 151 -207 151 -312zM249 332c0 33 0 65 -2 98c-1 39 -1 165 -58 165c-56 0 -57 -127 -58 -165c-2 -33 -2 -65 -2 -98c0 -34 0 -69 2 -103
c1 -39 2 -159 58 -159s57 121 58 159c2 34 2 69 2 103z" />
    <glyph glyph-name="one" unicode="1" horiz-adv-x="380" 
d="M238 0h-86v590h-66v77h152v-667z" />
    <glyph glyph-name="two" unicode="2" horiz-adv-x="380" 
d="M49 450v26c0 109 15 199 146 199c105 0 145 -66 145 -163c0 -99 -63 -231 -110 -318c-21 -39 -43 -77 -62 -117h165v-77h-293c29 67 62 131 94 197c36 74 75 149 100 228c9 29 16 59 16 90c0 37 -13 82 -58 82c-68 0 -56 -104 -55 -147h-88z" />
    <glyph glyph-name="three" unicode="3" horiz-adv-x="380" 
d="M56 488v16c0 95 21 171 132 171c113 0 141 -74 141 -174c0 -39 -2 -88 -24 -121c-13 -19 -30 -28 -50 -36c27 -9 46 -19 61 -44c19 -33 21 -76 21 -113c0 -111 -32 -195 -158 -195c-99 0 -136 67 -136 158c0 6 0 11 1 17h84c0 -7 -1 -14 -1 -21c0 -35 15 -75 56 -75
c63 0 63 80 63 125c0 58 -9 114 -80 114c-8 0 -15 -1 -23 -2v78c90 0 102 26 102 111c0 36 -4 100 -53 100c-54 0 -51 -71 -51 -109h-85z" />
    <glyph glyph-name="four" unicode="4" horiz-adv-x="380" 
d="M341 169h-42v-169h-84v169h-182v76l182 422h84v-430h42v-68zM215 237v276l-117 -276h117z" />
    <glyph glyph-name="five" unicode="5" horiz-adv-x="380" 
d="M183 589l-22 -167c125 0 174 -73 174 -191s-47 -239 -184 -239c-41 0 -69 11 -106 28l22 79c26 -14 48 -24 78 -24c75 0 95 89 95 148c0 74 -29 128 -110 128c-18 0 -36 -3 -54 -8l38 324h212v-78h-143z" />
    <glyph glyph-name="six" unicode="6" horiz-adv-x="380" 
d="M182 667h95c-20 -44 -41 -86 -62 -129c-25 -52 -47 -105 -68 -158c23 19 41 30 72 30c41 0 74 -24 92 -60c21 -42 22 -106 22 -153c0 -102 -15 -205 -141 -205c-134 0 -145 124 -145 228c0 174 59 296 135 447zM247 199c0 27 -2 74 -12 99c-9 21 -21 30 -44 30
c-22 0 -35 -9 -43 -30c-10 -26 -13 -69 -13 -97c0 -38 1 -131 56 -131s56 91 56 129z" />
    <glyph glyph-name="seven" unicode="7" horiz-adv-x="380" 
d="M348 667l-202 -667h-96l185 591h-185v76h298z" />
    <glyph glyph-name="eight" unicode="8" horiz-adv-x="380" 
d="M334 187c0 -99 -26 -195 -144 -195c-125 0 -144 104 -144 206c0 42 3 94 28 130c14 19 29 27 51 34c-25 10 -39 19 -52 43c-17 31 -21 71 -21 106c0 45 7 95 38 130c27 30 67 34 105 34c106 0 133 -72 133 -165c0 -35 -4 -74 -21 -105c-13 -24 -27 -33 -51 -43
c22 -8 36 -15 50 -34c28 -38 28 -96 28 -141zM239 504c0 32 -5 93 -49 93s-49 -61 -49 -93s5 -103 49 -103c46 0 49 70 49 103zM245 196c0 38 -1 117 -55 117c-57 0 -55 -89 -55 -128c0 -38 2 -114 55 -114c57 0 55 85 55 125z" />
    <glyph glyph-name="nine" unicode="9" horiz-adv-x="380" 
d="M195 0h-96c44 93 93 184 132 280c-22 -18 -39 -27 -68 -27c-37 0 -68 18 -88 49c-26 41 -28 102 -28 149c0 103 10 224 143 224s143 -125 143 -228c0 -137 -37 -237 -95 -358c-14 -30 -28 -60 -43 -89zM245 465c0 39 0 128 -56 128c-58 0 -56 -97 -56 -137
c0 -39 1 -123 56 -123c58 0 56 92 56 132z" />
    <glyph glyph-name="colon" unicode=":" horiz-adv-x="187" 
d="M147 400c0 -29 -25 -53 -54 -53s-53 24 -53 53s24 53 53 53s54 -24 54 -53zM147 47c0 -30 -24 -54 -54 -54c-29 0 -53 25 -53 54s24 53 53 53s54 -24 54 -53z" />
    <glyph glyph-name="semicolon" unicode=";" horiz-adv-x="180" 
d="M142 400c0 -30 -24 -53 -54 -53s-53 23 -53 53s23 53 53 53s54 -23 54 -53zM137 72l-78 -215l-46 13l52 223z" />
    <glyph glyph-name="less" unicode="&#x3c;" 
d="M467 90l-434 206v70l434 206v-82l-347 -159l346 -160z" />
    <glyph glyph-name="equal" unicode="=" 
d="M467 383h-434v72h434v-72zM467 228h-434v72h434v-72z" />
    <glyph glyph-name="greater" unicode="&#x3e;" 
d="M467 295l-434 -205v81l347 160l-346 160l-1 81l434 -206v-71z" />
    <glyph glyph-name="question" unicode="?" horiz-adv-x="329" 
d="M40 502v25c0 92 22 148 124 148c119 0 125 -105 125 -197c0 -32 -1 -62 -6 -92c-8 -53 -27 -86 -86 -89v-117h-78v176c6 0 13 -1 19 -1c62 0 69 47 69 96c0 14 -1 28 -1 41c0 33 -1 110 -48 110c-34 0 -39 -39 -39 -71c0 -11 1 -21 1 -29h-80zM211 47
c0 -30 -24 -54 -54 -54c-29 0 -53 25 -53 54s24 53 53 53s54 -24 54 -53z" />
    <glyph glyph-name="at" unicode="@" horiz-adv-x="733" 
d="M594 84l16 -52c-69 -31 -145 -45 -221 -45c-202 0 -356 137 -356 343c0 196 153 346 348 346c171 0 316 -117 316 -295c0 -32 -5 -64 -15 -94c-21 -64 -74 -141 -149 -141c-39 0 -69 25 -74 64c-28 -42 -73 -69 -124 -69c-89 0 -140 78 -140 160c0 98 68 202 174 202
c52 0 88 -23 109 -71l11 59h59l-41 -207c-3 -15 -6 -30 -6 -45c0 -22 10 -44 35 -44c49 0 84 66 96 107c8 25 12 52 12 78c0 149 -117 243 -261 243c-165 0 -293 -129 -293 -294c0 -75 28 -151 80 -205c60 -62 134 -83 218 -83c71 0 141 13 206 43zM458 350
c0 51 -28 93 -82 93c-72 0 -116 -75 -116 -140c0 -53 30 -103 88 -103c76 0 110 86 110 150z" />
    <glyph glyph-name="A" unicode="A" horiz-adv-x="360" 
d="M359 0h-89l-25 130h-132l-25 -130h-87l145 667h71zM126 199h106c-20 112 -40 225 -52 338c-11 -114 -33 -226 -54 -338z" />
    <glyph glyph-name="B" unicode="B" horiz-adv-x="364" 
d="M51 667h122c112 0 143 -79 143 -178c0 -37 -4 -77 -25 -109c-15 -23 -33 -32 -59 -41c21 -8 43 -18 59 -35c29 -31 35 -80 35 -121c0 -108 -38 -183 -157 -183h-118v667zM136 373h6c77 0 87 51 87 116c0 52 -16 105 -78 105h-15v-221zM136 302v-225c19 0 39 0 56 8
c37 17 41 66 41 101c0 73 -15 116 -97 116z" />
    <glyph glyph-name="C" unicode="C" horiz-adv-x="337" 
d="M313 92v-82c-27 -16 -42 -19 -73 -19c-178 0 -202 194 -202 331s17 354 200 354c31 0 48 -5 75 -20v-81c-18 10 -37 17 -58 17c-121 0 -122 -180 -122 -265c0 -87 7 -248 127 -248c20 0 35 4 53 13z" />
    <glyph glyph-name="D" unicode="D" horiz-adv-x="411" 
d="M51 667h111c65 0 109 -9 151 -61c58 -71 60 -194 60 -282c0 -84 -3 -206 -64 -271c-47 -50 -121 -53 -185 -53h-73v667zM141 78h4c85 0 114 39 127 119c6 41 7 83 7 124c0 43 -1 87 -6 130c-10 77 -30 140 -121 140h-11v-513z" />
    <glyph glyph-name="E" unicode="E" horiz-adv-x="321" 
d="M290 0h-239v667h239v-76h-149v-212h132v-76h-132v-227h149v-76z" />
    <glyph glyph-name="F" unicode="F" horiz-adv-x="309" 
d="M291 591h-150v-211h136v-76h-136v-304h-90v667h240v-76z" />
    <glyph glyph-name="G" unicode="G" horiz-adv-x="412" 
d="M374 351v-26c0 -73 1 -155 -19 -226s-67 -108 -141 -108c-114 0 -150 80 -166 179c-8 53 -10 107 -10 160c0 77 2 162 24 236c22 72 72 109 148 109c95 0 135 -50 160 -136l-84 -35c-9 45 -21 92 -77 92c-28 0 -41 -11 -54 -35c-22 -41 -24 -177 -24 -228
c0 -61 1 -123 12 -183c8 -41 21 -75 69 -75c75 0 77 97 77 151v49h-78v76h163z" />
    <glyph glyph-name="H" unicode="H" horiz-adv-x="414" 
d="M363 0h-90v330h-132v-330h-90v667h90v-261h132v261h90v-667z" />
    <glyph glyph-name="I" unicode="I" horiz-adv-x="193" 
d="M141 0h-90v667h90v-667z" />
    <glyph glyph-name="J" unicode="J" horiz-adv-x="259" 
d="M207 667v-518c0 -27 -1 -54 -10 -80c-19 -54 -67 -78 -122 -78c-27 0 -53 5 -77 18v90c19 -11 38 -23 60 -23c61 0 59 59 59 104v487h90z" />
    <glyph glyph-name="K" unicode="K" horiz-adv-x="372" 
d="M367 0h-101l-125 327v-327h-90v667h90v-306l125 306h91l-135 -323z" />
    <glyph glyph-name="L" unicode="L" horiz-adv-x="293" 
d="M288 0h-237v667h90v-591h147v-76z" />
    <glyph glyph-name="M" unicode="M" horiz-adv-x="504" 
d="M482 0h-87c-6 92 -13 185 -17 277c-1 30 -3 59 -4 89c-1 31 2 62 -3 93c-24 -154 -56 -306 -85 -459h-60c-32 152 -69 304 -88 459l-26 -459h-84l55 667h77l58 -272c3 -16 8 -32 11 -48c10 -54 18 -108 25 -162c2 32 10 63 15 94c4 24 7 49 11 73c3 16 7 31 10 47l52 268
h78z" />
    <glyph glyph-name="N" unicode="N" horiz-adv-x="413" 
d="M362 0h-84c-37 110 -75 220 -110 331c-9 27 -18 54 -25 82c-8 33 -13 67 -22 100c5 -33 6 -67 8 -101c8 -137 9 -275 11 -412h-89v667h84c57 -168 117 -334 158 -507c-11 84 -21 169 -21 254v253h90v-667z" />
    <glyph glyph-name="O" unicode="O" horiz-adv-x="423" 
d="M385 321c0 -53 -2 -105 -10 -157c-16 -98 -51 -173 -162 -173c-57 0 -106 24 -134 75c-38 69 -41 204 -41 283c0 78 2 174 36 245c28 58 73 81 137 81c56 0 102 -22 131 -71c41 -71 43 -201 43 -283zM291 346c0 61 0 125 -14 185c-8 36 -26 63 -66 63
c-24 0 -39 -9 -52 -28c-27 -38 -27 -147 -27 -194c0 -70 -2 -142 9 -211c7 -41 21 -87 71 -87c32 0 51 19 62 48c18 51 17 166 17 224z" />
    <glyph glyph-name="P" unicode="P" horiz-adv-x="351" 
d="M51 667h118c37 0 65 -1 98 -21c55 -33 66 -106 66 -165c0 -55 -12 -119 -58 -155c-38 -29 -88 -30 -134 -30v-296h-90v667zM141 373h8c73 0 90 40 90 106c0 60 -16 112 -86 112h-12v-218z" />
    <glyph glyph-name="Q" unicode="Q" horiz-adv-x="423" 
d="M404 -10l-57 -41l-46 66c-31 -19 -50 -24 -86 -24c-58 0 -106 24 -135 76c-40 72 -42 211 -42 294c0 125 0 314 171 314c55 0 103 -20 131 -69c43 -74 45 -204 45 -288c0 -76 -1 -182 -38 -250zM245 212l37 -53c8 52 9 105 9 157c0 71 2 147 -15 216c-9 37 -26 61 -67 61
c-83 0 -77 -144 -77 -200c0 -77 -4 -156 9 -232c7 -41 21 -86 71 -86c15 0 24 3 36 12l-57 82z" />
    <glyph glyph-name="R" unicode="R" horiz-adv-x="373" 
d="M355 0h-92l-122 311v-311h-90v667h119c36 0 67 -2 97 -25c45 -34 57 -96 57 -149c0 -65 -18 -151 -96 -169zM141 593v-222c23 0 47 1 65 16c25 21 31 59 31 90c0 27 -4 64 -18 88c-15 25 -37 28 -63 28h-15z" />
    <glyph glyph-name="S" unicode="S" horiz-adv-x="330" 
d="M274 653l-1 -88c-22 17 -45 30 -73 30c-51 0 -81 -41 -81 -89c0 -123 186 -154 186 -338c0 -93 -55 -177 -155 -177c-37 0 -68 9 -98 32v89c27 -20 53 -35 87 -35c53 0 79 42 79 91c0 138 -187 159 -187 337c0 95 49 170 151 170c37 0 59 -5 92 -22z" />
    <glyph glyph-name="T" unicode="T" horiz-adv-x="288" 
d="M290 588h-102v-588h-88v588h-102v79h292v-79z" />
    <glyph glyph-name="U" unicode="U" horiz-adv-x="409" 
d="M358 667v-490c0 -115 -25 -186 -155 -186c-122 0 -152 76 -152 183v493h88v-490c0 -49 4 -101 67 -101c66 0 64 51 64 101v490h88z" />
    <glyph glyph-name="V" unicode="V" horiz-adv-x="327" 
d="M329 667l-131 -667h-71l-129 667h89c21 -129 42 -258 61 -388c6 -38 12 -76 16 -114c2 36 9 72 15 108c8 49 14 99 23 148l43 246h84z" />
    <glyph glyph-name="W" unicode="W" horiz-adv-x="524" 
d="M523 667l-118 -667h-70c-18 113 -37 225 -54 338c-3 22 -7 45 -10 67c-4 30 -6 60 -9 90c-2 -31 -4 -62 -8 -93c-18 -134 -42 -268 -65 -402h-72l-116 667h87c18 -119 38 -237 53 -356c6 -49 9 -97 14 -146c15 169 47 335 74 502h69c27 -165 57 -330 73 -497
c2 32 6 65 10 97c16 134 37 267 56 400h86z" />
    <glyph glyph-name="X" unicode="X" horiz-adv-x="332" 
d="M334 0h-90c-28 82 -62 163 -78 249c-4 -36 -16 -69 -27 -103c-15 -49 -30 -97 -46 -146h-95l127 339l-119 328h87c24 -66 70 -175 79 -241c18 82 47 161 72 241h90l-123 -328z" />
    <glyph glyph-name="Y" unicode="Y" horiz-adv-x="341" 
d="M343 667l-116 -380v-287h-90v287l-139 380h95l54 -179c13 -43 23 -76 33 -130c5 30 18 98 26 132l44 177h93z" />
    <glyph glyph-name="Z" unicode="Z" horiz-adv-x="334" 
d="M329 667l-201 -588h190v-79h-307l202 591h-178v76h294z" />
    <glyph glyph-name="bracketleft" unicode="[" horiz-adv-x="312" 
d="M279 -183h-212v912h212v-76h-122v-760h122v-76z" />
    <glyph glyph-name="backslash" unicode="\" horiz-adv-x="397" 
d="M-13 729h70l397 -912h-71z" />
    <glyph glyph-name="bracketright" unicode="]" horiz-adv-x="312" 
d="M33 -183v76h122v760h-122v76h212v-912h-212z" />
    <glyph glyph-name="asciicircum" unicode="^" 
d="M478 358h-88l-141 244l-139 -244h-88l174 309h108z" />
    <glyph glyph-name="underscore" unicode="_" 
d="M500 -134h-500v70h500v-70z" />
    <glyph glyph-name="grave" unicode="`" 
d="M294 541l-47 -28l-107 115l68 42z" />
    <glyph glyph-name="a" unicode="a" horiz-adv-x="349" 
d="M302 0h-83v57c-17 -38 -36 -64 -82 -64c-106 0 -107 162 -107 236c0 75 2 225 108 225c41 0 63 -23 81 -58v51h83v-447zM222 199v48c0 35 -2 132 -53 132c-52 0 -54 -89 -54 -125v-61c0 -36 2 -126 54 -126c51 0 53 97 53 132z" />
    <glyph glyph-name="b" unicode="b" horiz-adv-x="349" 
d="M129 729v-333c19 35 38 58 81 58c106 0 109 -149 109 -225c0 -74 -1 -236 -107 -236c-46 0 -65 25 -83 64v-57h-82v729h82zM233 193v61c0 36 -2 125 -54 125c-50 0 -52 -92 -52 -126v-60c0 -34 2 -126 52 -126c52 0 54 90 54 126z" />
    <glyph glyph-name="c" unicode="c" horiz-adv-x="253" 
d="M229 88v-77c-24 -14 -39 -18 -66 -18c-119 0 -133 138 -133 228c0 93 11 233 135 233c26 0 41 -4 64 -16v-84c-11 14 -23 21 -41 21c-67 0 -68 -101 -68 -148c0 -46 2 -156 67 -156c17 0 29 6 42 17z" />
    <glyph glyph-name="d" unicode="d" horiz-adv-x="349" 
d="M302 0h-83v57c-17 -38 -36 -64 -82 -64c-106 0 -107 162 -107 236c0 76 2 225 109 225c42 0 62 -22 80 -58v333h83v-729zM222 199v48c0 35 -2 132 -53 132c-52 0 -54 -89 -54 -125v-61c0 -36 2 -126 54 -126c51 0 53 97 53 132z" />
    <glyph glyph-name="e" unicode="e" horiz-adv-x="326" 
d="M299 207h-188c0 -39 0 -143 57 -143c44 0 51 54 51 87h77c-1 -32 -3 -61 -17 -90c-21 -44 -63 -68 -112 -68c-126 0 -137 133 -137 229c0 93 11 232 135 232c126 0 134 -154 134 -247zM111 267h104c-2 35 -2 117 -52 117c-49 0 -50 -83 -52 -117z" />
    <glyph glyph-name="f" unicode="f" horiz-adv-x="217" 
d="M213 728v-87c-11 6 -22 11 -35 11c-35 0 -37 -27 -38 -55c0 -11 -1 -22 -1 -33v-117h70v-66h-70v-381h-82v381h-42v66h42v154c0 73 10 139 100 139c22 0 36 -4 56 -12z" />
    <glyph glyph-name="g" unicode="g" horiz-adv-x="349" 
d="M303 447v-477c0 -101 -31 -158 -140 -158c-76 0 -127 50 -127 126c0 5 1 10 1 15h80c0 -37 9 -72 53 -72c48 0 50 41 50 78v96c-16 -37 -38 -62 -81 -62c-107 0 -109 154 -109 229c0 77 1 232 109 232c43 0 62 -26 81 -61v54h83zM221 229c0 38 0 150 -55 150
c-57 0 -51 -132 -51 -171c0 -37 1 -141 56 -141c45 0 47 61 49 94c1 23 1 45 1 68z" />
    <glyph glyph-name="h" unicode="h" horiz-adv-x="358" 
d="M311 0h-82v298c-1 35 -2 84 -48 84c-52 0 -52 -55 -52 -93v-289h-82v729h82v-334c23 37 46 59 92 59c77 0 90 -61 90 -124v-330z" />
    <glyph glyph-name="i" unicode="i" horiz-adv-x="176" 
d="M140 581c0 -30 -25 -56 -55 -56c-31 0 -56 25 -56 56s25 56 56 56c30 0 55 -26 55 -56zM129 0h-82v447h82v-447z" />
    <glyph glyph-name="j" unicode="j" horiz-adv-x="176" 
d="M140 581c0 -30 -25 -56 -55 -56c-31 0 -56 25 -56 56s25 56 56 56c30 0 55 -26 55 -56zM129 -188h-82v635h82v-635z" />
    <glyph glyph-name="k" unicode="k" horiz-adv-x="346" 
d="M342 0h-96l-117 218v-218h-82v729h82v-475l105 193h93l-119 -204z" />
    <glyph glyph-name="l" unicode="l" horiz-adv-x="176" 
d="M129 0h-82v729h82v-729z" />
    <glyph glyph-name="m" unicode="m" horiz-adv-x="540" 
d="M485 0h-82v294c0 36 3 85 -46 85c-52 0 -50 -46 -50 -85v-294h-82v294c0 36 2 85 -47 85c-51 0 -49 -46 -49 -85v-294h-82v447h82v-55c21 37 42 62 87 62s65 -20 80 -62c21 40 45 62 93 62c63 0 96 -36 96 -98v-356z" />
    <glyph glyph-name="n" unicode="n" horiz-adv-x="358" 
d="M311 0h-82v290c-1 43 -2 92 -48 92c-52 0 -52 -55 -52 -93v-289h-82v447h82v-52c23 37 46 59 92 59c77 0 90 -61 90 -124v-330z" />
    <glyph glyph-name="o" unicode="o" horiz-adv-x="341" 
d="M311 223c0 -97 -14 -230 -141 -230c-126 0 -140 133 -140 230s13 231 140 231s141 -134 141 -231zM225 197v54c0 36 -1 128 -53 128s-53 -91 -53 -127v-54c0 -36 1 -128 53 -128s53 91 53 127z" />
    <glyph glyph-name="p" unicode="p" horiz-adv-x="349" 
d="M129 447v-58c17 38 37 65 83 65c106 0 107 -162 107 -236c0 -77 -2 -225 -110 -225c-42 0 -62 22 -80 57v-238h-82v635h82zM233 193v61c0 36 -2 125 -54 125c-50 0 -52 -98 -52 -133v-46c0 -35 2 -133 52 -133c52 0 54 90 54 126z" />
    <glyph glyph-name="q" unicode="q" horiz-adv-x="349" 
d="M302 -188h-83v238c-18 -36 -38 -57 -80 -57c-107 0 -109 149 -109 225c0 74 1 236 107 236c46 0 65 -27 82 -65v58h83v-635zM222 199v48c0 35 -2 132 -53 132c-52 0 -54 -89 -54 -125v-61c0 -36 2 -126 54 -126c51 0 53 97 53 132z" />
    <glyph glyph-name="r" unicode="r" horiz-adv-x="236" 
d="M226 457v-86c-5 1 -10 1 -15 1c-68 0 -82 -41 -82 -101v-271h-82v447h82v-56c25 42 47 63 97 66z" />
    <glyph glyph-name="s" unicode="s" horiz-adv-x="260" 
d="M219 438v-77c-18 14 -40 22 -63 22c-28 0 -53 -21 -53 -50c0 -73 138 -81 138 -208c0 -78 -49 -132 -128 -132c-31 0 -46 5 -73 21v80c21 -16 41 -27 68 -27c35 0 57 20 57 56c0 81 -140 90 -140 212c0 71 48 122 120 122c28 0 50 -6 74 -19z" />
    <glyph glyph-name="t" unicode="t" horiz-adv-x="196" 
d="M184 383h-45v-383h-82v383h-46v64h46v127h82v-127h45v-64z" />
    <glyph glyph-name="u" unicode="u" horiz-adv-x="359" 
d="M313 447v-302c0 -99 -30 -153 -137 -153c-41 0 -78 11 -104 45c-23 30 -25 71 -25 108v302h82v-268c0 -10 1 -21 1 -31c1 -37 2 -77 50 -77c62 0 50 66 50 108v268h83z" />
    <glyph glyph-name="v" unicode="v" horiz-adv-x="300" 
d="M297 447l-117 -447h-56l-121 447h89c25 -112 52 -223 60 -338c7 27 9 55 13 82c13 86 34 171 52 256h80z" />
    <glyph glyph-name="w" unicode="w" horiz-adv-x="449" 
d="M442 447l-105 -447h-57l-34 170c-6 30 -12 60 -15 91c-2 22 -3 45 -5 67c-7 -111 -32 -219 -53 -328h-58l-108 447h87c11 -64 24 -127 33 -191c6 -43 11 -87 16 -130c3 41 10 82 17 122c12 66 25 133 37 199h60c12 -72 26 -145 39 -217c6 -34 8 -69 12 -104
c9 108 33 214 53 321h81z" />
    <glyph glyph-name="x" unicode="x" horiz-adv-x="332" 
d="M329 0h-99c-20 44 -67 138 -73 181c-7 -53 -46 -131 -67 -181h-87l112 236l-112 211h98c23 -50 48 -100 63 -153c12 53 36 103 57 153h87l-101 -211z" />
    <glyph glyph-name="y" unicode="y" horiz-adv-x="326" 
d="M323 447l-185 -635h-87l71 224l-119 411h94l65 -312l77 312h84z" />
    <glyph glyph-name="z" unicode="z" horiz-adv-x="298" 
d="M285 447l-150 -372h142v-75h-264l155 374h-143v73h260z" />
    <glyph glyph-name="braceleft" unicode="{" 
d="M376 -183h-38c-104 0 -140 46 -140 147v186c0 45 -8 80 -57 92v67c45 11 57 43 57 86v196c0 99 45 138 142 138c12 0 24 0 36 -1v-70c-69 -1 -97 -8 -97 -84v-184c0 -57 -8 -89 -61 -117c51 -28 61 -65 61 -120v-178c0 -26 0 -61 26 -76c20 -11 48 -11 71 -11v-71z" />
    <glyph glyph-name="bar" unicode="|" 
d="M291 -250h-82v1000h82v-1000z" />
    <glyph glyph-name="braceright" unicode="}" 
d="M137 -183v71c23 0 51 0 71 11c26 15 26 50 26 76v178c0 55 10 92 61 120c-53 28 -61 60 -61 117v184c0 76 -28 83 -97 84v70c12 1 24 1 36 1c97 0 142 -39 142 -138v-196c0 -43 12 -75 57 -86v-67c-49 -12 -57 -47 -57 -92v-186c0 -101 -36 -147 -140 -147h-38z" />
    <glyph glyph-name="asciitilde" unicode="~" horiz-adv-x="667" 
d="M525 730l49 -28c-10 -21 -21 -43 -36 -61c-27 -33 -68 -55 -111 -55c-68 0 -139 63 -201 63c-44 0 -68 -35 -86 -70l-47 31c29 62 62 118 139 118c74 0 141 -63 206 -63c45 0 66 30 87 65z" />
    <glyph glyph-name="uni00A0" unicode="&#xa0;" horiz-adv-x="233" 
 />
    <glyph glyph-name="exclamdown" unicode="&#xa1;" horiz-adv-x="246" 
d="M176 401c0 -30 -23 -54 -53 -54c-29 0 -53 25 -53 54s24 53 53 53s53 -24 53 -53zM167 -220h-87v487h87v-487z" />
    <glyph glyph-name="cent" unicode="&#xa2;" horiz-adv-x="380" 
d="M287 187v-73c-13 -8 -23 -11 -34 -13v-78h-60v78c-16 4 -40 15 -60 48c-33 48 -36 125 -36 181c0 59 4 132 36 183c19 30 39 39 60 48v92h60v-92c9 -2 21 -6 34 -11v-79c-11 9 -19 12 -33 12c-69 0 -69 -101 -69 -149c0 -45 2 -156 67 -156c12 0 24 4 35 9z" />
    <glyph glyph-name="sterling" unicode="&#xa3;" horiz-adv-x="380" 
d="M281 96l73 -23c-6 -19 -17 -41 -32 -56c-19 -19 -42 -26 -64 -26c-21 0 -39 7 -56 15l-24 11c-26 12 -41 17 -53 17c-11 0 -16 -3 -21 -9c-4 -5 -8 -12 -10 -20l-68 27c1 4 9 35 28 56c11 12 30 23 52 23c5 0 11 -1 16 -2c12 22 17 45 17 70c0 18 -3 59 -34 113h-76v61
h53c-30 68 -37 114 -37 150c0 65 24 105 47 128c22 21 59 44 118 44c50 0 80 -17 98 -34c25 -24 39 -64 40 -98l-70 -33c0 24 -6 59 -21 75c-8 9 -24 18 -49 18c-28 0 -47 -12 -58 -23c-21 -22 -24 -52 -24 -70c0 -15 2 -42 13 -78c6 -20 21 -57 30 -79h99v-61h-81
c20 -51 24 -76 24 -103c0 -48 -13 -80 -23 -98l14 -7c12 -6 32 -18 47 -18c11 0 18 6 22 11c5 5 8 12 10 19z" />
    <glyph glyph-name="currency" unicode="&#xa4;" horiz-adv-x="667" 
d="M619 125l-45 -45l-97 96c-42 -32 -89 -50 -142 -50c-55 0 -99 18 -144 49l-96 -95l-45 45l95 96c-32 42 -50 89 -50 142c0 54 18 97 49 140l-96 97l46 45l96 -96c45 33 87 50 144 50c55 0 98 -17 142 -49l96 95l45 -45l-95 -96c32 -45 50 -86 50 -142
c0 -55 -18 -96 -50 -140zM497 362c0 90 -72 164 -163 164s-164 -73 -164 -164c0 -89 74 -163 163 -163c90 0 164 72 164 163z" />
    <glyph glyph-name="yen" unicode="&#xa5;" horiz-adv-x="380" 
d="M364 256h-123v-256h-90v256h-135v61h124l-19 52h-105v62h82l-86 236h96l43 -146c16 -54 35 -107 44 -163c16 104 44 207 69 309h93l-72 -236h79v-62h-97l-16 -52h113v-61z" />
    <glyph glyph-name="brokenbar" unicode="&#xa6;" 
d="M290 345h-81v405h81v-405zM290 -250h-81v405h81v-405z" />
    <glyph glyph-name="section" unicode="&#xa7;" horiz-adv-x="380" 
d="M327 593h-75c-1 21 -9 45 -18 59c-13 20 -31 25 -43 25c-16 0 -34 -9 -45 -27c-10 -15 -14 -37 -14 -54c0 -33 12 -56 33 -78c17 -18 39 -30 60 -43c22 -13 44 -26 62 -44c48 -48 53 -113 53 -153c0 -39 -6 -86 -24 -121c-16 -30 -37 -47 -62 -58c25 -17 43 -39 53 -60
c11 -22 16 -49 16 -75c0 -54 -20 -91 -43 -114c-26 -26 -57 -36 -94 -36c-32 0 -63 11 -89 38c-30 32 -42 80 -42 122h74c1 -15 5 -54 16 -71c6 -10 20 -24 44 -24c14 0 29 6 39 15c16 15 22 47 22 70c0 28 -7 52 -29 74c-19 19 -45 32 -70 46c-22 13 -45 27 -62 45
c-39 41 -49 107 -49 144c0 41 12 90 28 119c19 34 44 53 64 63c-18 15 -37 36 -50 56c-17 28 -23 53 -23 82c0 58 24 93 40 110c18 19 48 39 92 39c39 0 71 -14 92 -35c33 -32 42 -81 44 -114zM114 277c0 -37 6 -91 30 -115c10 -10 26 -19 46 -19c19 0 35 7 46 17
c13 12 30 38 30 106c0 37 -4 95 -29 123c-11 12 -27 21 -47 21c-18 0 -35 -9 -45 -19c-26 -25 -31 -81 -31 -114z" />
    <glyph glyph-name="dieresis" unicode="&#xa8;" horiz-adv-x="490" 
d="M369 563c0 -28 -22 -50 -50 -50s-50 22 -50 50s22 50 50 50s50 -22 50 -50zM221 563c0 -28 -22 -50 -50 -50s-50 22 -50 50s22 50 50 50s50 -22 50 -50z" />
    <glyph glyph-name="copyright" unicode="&#xa9;" horiz-adv-x="757" 
d="M724 333c0 -191 -154 -346 -345 -346s-346 155 -346 346s155 346 346 346c190 0 345 -156 345 -346zM670 333c0 162 -127 297 -291 297c-163 0 -292 -134 -292 -296c0 -161 129 -298 292 -298s291 136 291 297zM450 204v-62c-14 -11 -33 -14 -51 -14
c-113 0 -133 109 -133 199s16 211 131 211c22 0 34 -3 53 -13v-62c-11 7 -29 14 -42 14c-68 0 -69 -99 -69 -147c0 -49 4 -138 72 -138c14 0 27 6 39 12z" />
    <glyph glyph-name="ordfeminine" unicode="&#xaa;" horiz-adv-x="267" 
d="M214 372h-61v17c-10 -14 -26 -21 -41 -21c-19 0 -33 9 -41 18c-29 31 -33 97 -33 136c0 48 7 100 28 127c12 16 28 22 47 22c8 0 26 -2 40 -21v17h61v-295zM214 297h-173v40h173v-40zM100 531v-13c0 -17 1 -64 10 -83c3 -6 8 -13 18 -13c6 0 10 3 14 7c5 6 14 21 14 76
v26c0 61 -10 75 -13 79s-8 7 -14 7c-5 0 -11 -1 -17 -9s-12 -26 -12 -77z" />
    <glyph glyph-name="guillemotleft" unicode="&#xab;" horiz-adv-x="326" 
d="M293 405l-102 -171l92 -177l-38 -21l-106 198l114 196zM185 405l-102 -171l95 -177l-42 -21l-103 198l112 196z" />
    <glyph glyph-name="logicalnot" unicode="&#xac;" 
d="M467 0h-82v193h-352v74h434v-267z" />
    <glyph glyph-name="uni00AD" unicode="&#xad;" horiz-adv-x="255" 
d="M205 295v-78h-155v78h155z" />
    <glyph glyph-name="registered" unicode="&#xae;" horiz-adv-x="757" 
d="M509 132h-73l-82 176v-176h-70v403h92c83 0 116 -27 116 -111c0 -50 -19 -99 -75 -103zM354 368h18c43 0 52 21 52 60c0 42 -11 58 -55 58h-15v-118zM670 333c0 162 -127 297 -291 297c-163 0 -292 -134 -292 -296c0 -161 129 -298 292 -298s291 136 291 297zM724 333
c0 -191 -154 -346 -345 -346s-346 155 -346 346s155 346 346 346c190 0 345 -156 345 -346z" />
    <glyph glyph-name="macron" unicode="&#xaf;" 
d="M362 531h-224v62h224v-62z" />
    <glyph glyph-name="degree" unicode="&#xb0;" 
d="M394 528c0 -79 -66 -141 -144 -141s-144 62 -144 141c0 78 67 140 144 140s144 -62 144 -140zM342 527c0 50 -42 90 -92 90c-49 0 -92 -39 -92 -89c0 -51 42 -90 92 -90c49 0 92 39 92 89z" />
    <glyph glyph-name="plusminus" unicode="&#xb1;" 
d="M467 347h-176v-168h-82v168h-176v76h176v168h82v-168h176v-76zM467 64h-434v76h434v-76z" />
    <glyph glyph-name="twosuperior" unicode="&#xb2;" horiz-adv-x="253" 
d="M97 532h-62c-1 7 -1 13 -1 20c0 70 15 120 94 120c66 0 96 -35 96 -100c0 -68 -48 -149 -81 -208c-8 -15 -16 -31 -25 -45h102v-52h-193c20 41 41 81 62 121c25 47 72 131 72 186c0 23 -8 45 -34 45c-38 0 -32 -62 -30 -87z" />
    <glyph glyph-name="threesuperior" unicode="&#xb3;" horiz-adv-x="253" 
d="M39 555v13c0 65 19 104 89 104c68 0 90 -42 90 -105c0 -37 -2 -76 -40 -94c41 -16 45 -52 45 -92c0 -69 -24 -119 -100 -119c-64 0 -92 35 -92 97c0 4 0 9 1 13h60c-1 -6 -2 -12 -2 -18c0 -19 11 -39 32 -39c37 0 37 43 37 70c0 33 -5 65 -45 65c-7 0 -13 -1 -20 -2v53
c50 0 64 6 64 60c0 20 -1 58 -29 58c-31 0 -32 -42 -29 -64h-61z" />
    <glyph glyph-name="acute" unicode="&#xb4;" 
d="M206 541l86 129l68 -42l-107 -115z" />
    <glyph glyph-name="mu" unicode="&#xb5;" 
d="M455 0h-80v81c-27 -56 -64 -93 -130 -93c-57 0 -91 24 -120 71v-247h-82v635h82v-236c0 -35 1 -70 18 -101c21 -37 63 -57 104 -57c45 0 79 21 103 59c22 35 24 67 24 107v228h81v-447z" />
    <glyph glyph-name="mu" unicode="&#x3bc;" 
d="M455 0h-80v81c-27 -56 -64 -93 -130 -93c-57 0 -91 24 -120 71v-247h-82v635h82v-236c0 -35 1 -70 18 -101c21 -37 63 -57 104 -57c45 0 79 21 103 59c22 35 24 67 24 107v228h81v-447z" />
    <glyph glyph-name="paragraph" unicode="&#xb6;" horiz-adv-x="594" 
d="M523 603h-62v-703h-70v703h-102v-703h-70v416c-5 0 -9 -1 -14 -1c-104 0 -183 67 -183 174c0 46 17 93 50 126c44 43 113 52 172 52h279v-64z" />
    <glyph glyph-name="periodcentered" unicode="&#xb7;" horiz-adv-x="208" 
d="M168 334c0 -35 -29 -64 -64 -64s-64 29 -64 64s29 64 64 64s64 -29 64 -64z" />
    <glyph glyph-name="cedilla" unicode="&#xb8;" 
d="M327 -74l-76 -117l-38 20l55 126z" />
    <glyph glyph-name="onesuperior" unicode="&#xb9;" horiz-adv-x="252" 
d="M170 267h-61v348h-41v52h102v-400z" />
    <glyph glyph-name="ordmasculine" unicode="&#xba;" horiz-adv-x="267" 
d="M228 523c0 -62 -11 -155 -92 -155c-83 0 -96 93 -96 157c0 52 13 146 95 146c83 0 93 -96 93 -148zM225 297h-182v40h182v-40zM165 525c0 8 -1 87 -30 87c-33 0 -33 -78 -33 -88c0 -21 2 -97 32 -97s31 77 31 98z" />
    <glyph glyph-name="guillemotright" unicode="&#xbb;" horiz-adv-x="326" 
d="M293 234l-103 -198l-42 21l95 177l-102 171l40 25zM187 234l-105 -198l-39 21l92 177l-102 171l40 25z" />
    <glyph glyph-name="onequarter" unicode="&#xbc;" horiz-adv-x="630" 
d="M603 98h-27v-98h-59v98h-115v49l116 253h58v-255h27v-47zM508 667l-331 -667h-55l331 667h55zM170 267h-61v348h-41v52h102v-400zM517 145v155l-64 -155h64z" />
    <glyph glyph-name="onehalf" unicode="&#xbd;" horiz-adv-x="631" 
d="M475 265h-62c-1 7 -1 13 -1 20c0 70 15 119 94 119c66 0 96 -35 96 -100c0 -68 -48 -149 -81 -207c-8 -15 -16 -31 -25 -45h102v-52h-193c20 41 41 81 62 121c25 47 72 130 72 185c0 23 -8 45 -34 45c-38 0 -32 -61 -30 -86zM508 667l-331 -667h-55l331 667h55zM170 267
h-61v348h-41v52h102v-400z" />
    <glyph glyph-name="threequarters" unicode="&#xbe;" horiz-adv-x="631" 
d="M509 667l-331 -667h-55l331 667h55zM39 555v13c0 65 19 104 89 104c68 0 90 -42 90 -105c0 -37 -2 -76 -40 -94c41 -16 45 -52 45 -92c0 -69 -24 -119 -100 -119c-64 0 -92 35 -92 97c0 4 0 9 1 13h60c-1 -6 -2 -12 -2 -18c0 -19 11 -39 32 -39c37 0 37 43 37 70
c0 33 -5 65 -45 65c-7 0 -13 -1 -20 -2v53c50 0 64 6 64 60c0 20 -1 58 -29 58c-24 0 -30 -25 -30 -47c0 -6 0 -12 1 -17h-61zM518 145v155l-64 -155h64zM604 98h-27v-98h-59v98h-115v49l116 253h58v-255h27v-47z" />
    <glyph glyph-name="questiondown" unicode="&#xbf;" horiz-adv-x="329" 
d="M225 401c0 -29 -24 -54 -53 -54c-30 0 -54 24 -54 54c0 29 25 53 54 53s53 -24 53 -53zM289 -53v-25c0 -92 -22 -148 -124 -148c-119 0 -125 105 -125 197c0 30 1 60 5 90c8 54 28 86 87 90v116h79v-176c-7 1 -13 1 -20 1c-62 0 -69 -46 -69 -93c0 -14 1 -29 1 -42
c0 -33 1 -110 48 -110c46 0 37 70 39 100h79z" />
    <glyph glyph-name="Agrave" unicode="&#xc0;" horiz-adv-x="360" 
d="M359 0h-89l-25 130h-132l-25 -130h-87l145 667h71zM126 199h106c-20 112 -40 225 -52 338c-11 -114 -33 -226 -54 -338zM224 755l-47 -28l-107 115l68 42z" />
    <glyph glyph-name="Aacute" unicode="&#xc1;" horiz-adv-x="360" 
d="M359 0h-89l-25 130h-132l-25 -130h-87l145 667h71zM126 199h106c-20 112 -40 225 -52 338c-11 -114 -33 -226 -54 -338zM136 755l86 129l68 -42l-107 -115z" />
    <glyph glyph-name="Acircumflex" unicode="&#xc2;" horiz-adv-x="360" 
d="M359 0h-89l-25 130h-132l-25 -130h-87l145 667h71zM126 199h106c-20 112 -40 225 -52 338c-11 -114 -33 -226 -54 -338zM285 761l-41 -34l-69 74l-64 -74l-46 34l111 124z" />
    <glyph glyph-name="Atilde" unicode="&#xc3;" horiz-adv-x="360" 
d="M359 0h-89l-25 130h-132l-25 -130h-87l145 667h71zM126 199h106c-20 112 -40 225 -52 338c-11 -114 -33 -226 -54 -338zM242 815h49c0 -44 -14 -88 -66 -88c-32 0 -54 28 -82 28c-16 0 -20 -10 -20 -24h-54c2 42 17 88 67 88c38 0 62 -30 88 -30c15 0 15 15 18 26z" />
    <glyph glyph-name="Adieresis" unicode="&#xc4;" horiz-adv-x="360" 
d="M359 0h-89l-25 130h-132l-25 -130h-87l145 667h71zM126 199h106c-20 112 -40 225 -52 338c-11 -114 -33 -226 -54 -338zM299 771c0 -28 -22 -50 -50 -50s-50 22 -50 50s22 50 50 50s50 -22 50 -50zM151 771c0 -28 -22 -50 -50 -50s-50 22 -50 50s22 50 50 50
s50 -22 50 -50z" />
    <glyph glyph-name="Aring" unicode="&#xc5;" horiz-adv-x="360" 
d="M359 0h-89l-25 130h-132l-25 -130h-87l145 667h71zM126 199h106c-20 112 -40 225 -52 338c-11 -114 -33 -226 -54 -338zM95 799c0 48 37 85 85 85s85 -37 85 -85s-37 -85 -85 -85s-85 37 -85 85zM140 799c0 -23 17 -40 40 -40s40 17 40 40s-17 40 -40 40s-40 -17 -40 -40
z" />
    <glyph glyph-name="AE" unicode="&#xc6;" horiz-adv-x="511" 
d="M510 0h-232l-27 131h-138l-24 -131h-88l142 667h221l17 -76h-145l45 -212h132l18 -76h-132l51 -227h142zM239 199l-32 151c-13 63 -20 126 -27 190c-3 -48 -11 -96 -18 -143c-10 -66 -22 -132 -36 -198h113z" />
    <glyph glyph-name="Ccedilla" unicode="&#xc7;" horiz-adv-x="337" 
d="M313 92v-82c-27 -16 -42 -19 -73 -19c-178 0 -202 194 -202 331s17 354 200 354c31 0 48 -5 75 -20v-81c-18 10 -37 17 -58 17c-121 0 -122 -180 -122 -265c0 -87 7 -248 127 -248c20 0 35 4 53 13zM270 -72l-73 -118l-49 23l54 125z" />
    <glyph glyph-name="Egrave" unicode="&#xc8;" horiz-adv-x="321" 
d="M290 0h-239v667h239v-76h-149v-212h132v-76h-132v-227h149v-76zM224 755l-47 -28l-107 115l68 42z" />
    <glyph glyph-name="Eacute" unicode="&#xc9;" horiz-adv-x="321" 
d="M290 0h-239v667h239v-76h-149v-212h132v-76h-132v-227h149v-76zM117 755l86 129l68 -42l-107 -115z" />
    <glyph glyph-name="Ecircumflex" unicode="&#xca;" horiz-adv-x="321" 
d="M290 0h-239v667h239v-76h-149v-212h132v-76h-132v-227h149v-76zM285 761l-41 -34l-69 74l-64 -74l-46 34l111 124z" />
    <glyph glyph-name="Edieresis" unicode="&#xcb;" horiz-adv-x="321" 
d="M290 0h-239v667h239v-76h-149v-212h132v-76h-132v-227h149v-76zM285 771c0 -28 -22 -50 -50 -50s-50 22 -50 50s22 50 50 50s50 -22 50 -50zM137 771c0 -28 -22 -50 -50 -50s-50 22 -50 50s22 50 50 50s50 -22 50 -50z" />
    <glyph glyph-name="Igrave" unicode="&#xcc;" horiz-adv-x="193" 
d="M141 0h-90v667h90v-667zM149 755l-47 -28l-107 115l68 42z" />
    <glyph glyph-name="Iacute" unicode="&#xcd;" horiz-adv-x="193" 
d="M141 0h-90v667h90v-667zM46 755l86 129l68 -42l-107 -115z" />
    <glyph glyph-name="Icircumflex" unicode="&#xce;" horiz-adv-x="193" 
d="M141 0h-90v667h90v-667zM207 761l-41 -34l-69 74l-64 -74l-46 34l111 124z" />
    <glyph glyph-name="Idieresis" unicode="&#xcf;" horiz-adv-x="193" 
d="M141 0h-90v667h90v-667zM216 771c0 -28 -22 -50 -50 -50s-50 22 -50 50s22 50 50 50s50 -22 50 -50zM68 771c0 -28 -22 -50 -50 -50s-50 22 -50 50s22 50 50 50s50 -22 50 -50z" />
    <glyph glyph-name="Eth" unicode="&#xd0;" horiz-adv-x="411" 
d="M51 667h111c64 0 110 -8 151 -61c56 -73 60 -190 60 -279c0 -84 -3 -209 -64 -274c-47 -50 -121 -53 -185 -53h-73v330h-50v69h50v268zM141 330v-252c86 -1 118 36 131 118c6 41 7 84 7 125c0 43 -1 86 -6 129c-10 79 -31 141 -122 141h-10v-192h87v-69h-87z" />
    <glyph glyph-name="Ntilde" unicode="&#xd1;" horiz-adv-x="413" 
d="M362 0h-84c-37 110 -75 220 -110 331c-9 27 -18 54 -25 82c-8 33 -13 67 -22 100c5 -33 6 -67 8 -101c8 -137 9 -275 11 -412h-89v667h84c57 -168 117 -334 158 -507c-11 84 -21 169 -21 254v253h90v-667zM269 815h49c0 -44 -14 -88 -66 -88c-32 0 -54 28 -82 28
c-16 0 -20 -10 -20 -24h-54c2 42 17 88 67 88c38 0 62 -30 88 -30c15 0 15 15 18 26z" />
    <glyph glyph-name="Ograve" unicode="&#xd2;" horiz-adv-x="423" 
d="M385 321c0 -53 -2 -105 -10 -157c-16 -98 -51 -173 -162 -173c-57 0 -106 24 -134 75c-38 69 -41 204 -41 283c0 78 2 174 36 245c28 58 73 81 137 81c56 0 102 -22 131 -71c41 -71 43 -201 43 -283zM291 346c0 61 0 125 -14 185c-8 36 -26 63 -66 63
c-24 0 -39 -9 -52 -28c-27 -38 -27 -147 -27 -194c0 -70 -2 -142 9 -211c7 -41 21 -87 71 -87c32 0 51 19 62 48c18 51 17 166 17 224zM260 755l-47 -28l-107 115l68 42z" />
    <glyph glyph-name="Oacute" unicode="&#xd3;" horiz-adv-x="423" 
d="M385 321c0 -53 -2 -105 -10 -157c-16 -98 -51 -173 -162 -173c-57 0 -106 24 -134 75c-38 69 -41 204 -41 283c0 78 2 174 36 245c28 58 73 81 137 81c56 0 102 -22 131 -71c41 -71 43 -201 43 -283zM291 346c0 61 0 125 -14 185c-8 36 -26 63 -66 63
c-24 0 -39 -9 -52 -28c-27 -38 -27 -147 -27 -194c0 -70 -2 -142 9 -211c7 -41 21 -87 71 -87c32 0 51 19 62 48c18 51 17 166 17 224zM162 755l86 129l68 -42l-107 -115z" />
    <glyph glyph-name="Ocircumflex" unicode="&#xd4;" horiz-adv-x="423" 
d="M385 321c0 -53 -2 -105 -10 -157c-16 -98 -51 -173 -162 -173c-57 0 -106 24 -134 75c-38 69 -41 204 -41 283c0 78 2 174 36 245c28 58 73 81 137 81c56 0 102 -22 131 -71c41 -71 43 -201 43 -283zM291 346c0 61 0 125 -14 185c-8 36 -26 63 -66 63
c-24 0 -39 -9 -52 -28c-27 -38 -27 -147 -27 -194c0 -70 -2 -142 9 -211c7 -41 21 -87 71 -87c32 0 51 19 62 48c18 51 17 166 17 224zM322 761l-41 -34l-69 74l-64 -74l-46 34l111 124z" />
    <glyph glyph-name="Otilde" unicode="&#xd5;" horiz-adv-x="423" 
d="M385 321c0 -53 -2 -105 -10 -157c-16 -98 -51 -173 -162 -173c-57 0 -106 24 -134 75c-38 69 -41 204 -41 283c0 78 2 174 36 245c28 58 73 81 137 81c56 0 102 -22 131 -71c41 -71 43 -201 43 -283zM291 346c0 61 0 125 -14 185c-8 36 -26 63 -66 63
c-24 0 -39 -9 -52 -28c-27 -38 -27 -147 -27 -194c0 -70 -2 -142 9 -211c7 -41 21 -87 71 -87c32 0 51 19 62 48c18 51 17 166 17 224zM274 815h49c0 -44 -14 -88 -66 -88c-32 0 -54 28 -82 28c-16 0 -20 -10 -20 -24h-54c2 42 17 88 67 88c38 0 62 -30 88 -30
c15 0 15 15 18 26z" />
    <glyph glyph-name="Odieresis" unicode="&#xd6;" horiz-adv-x="423" 
d="M385 321c0 -53 -2 -105 -10 -157c-16 -98 -51 -173 -162 -173c-57 0 -106 24 -134 75c-38 69 -41 204 -41 283c0 78 2 174 36 245c28 58 73 81 137 81c56 0 102 -22 131 -71c41 -71 43 -201 43 -283zM291 346c0 61 0 125 -14 185c-8 36 -26 63 -66 63
c-24 0 -39 -9 -52 -28c-27 -38 -27 -147 -27 -194c0 -70 -2 -142 9 -211c7 -41 21 -87 71 -87c32 0 51 19 62 48c18 51 17 166 17 224zM331 771c0 -28 -22 -50 -50 -50s-50 22 -50 50s22 50 50 50s50 -22 50 -50zM183 771c0 -28 -22 -50 -50 -50s-50 22 -50 50s22 50 50 50
s50 -22 50 -50z" />
    <glyph glyph-name="multiply" unicode="&#xd7;" 
d="M377 154l-127 126l-127 -126l-53 53l126 127l-126 127l53 53l127 -126l127 126l53 -53l-126 -127l126 -127z" />
    <glyph glyph-name="Oslash" unicode="&#xd8;" horiz-adv-x="454" 
d="M416 659l-43 -88c29 -68 30 -174 30 -253c0 -120 0 -327 -167 -327c-48 0 -96 17 -119 50l-35 -71l-44 31l48 96c-27 68 -30 176 -30 260c0 125 1 318 170 318c52 0 88 -12 116 -49l31 61zM152 229l143 302c-6 33 -23 63 -67 63c-23 0 -39 -8 -52 -27
c-26 -36 -26 -141 -26 -186c0 -53 0 -105 2 -152zM305 441l-142 -301c10 -32 23 -65 69 -65c32 0 51 18 61 47c14 41 15 138 15 184c0 47 0 94 -3 135z" />
    <glyph glyph-name="Ugrave" unicode="&#xd9;" horiz-adv-x="409" 
d="M358 667v-490c0 -115 -25 -186 -155 -186c-122 0 -152 76 -152 183v493h88v-490c0 -49 4 -101 67 -101c66 0 64 51 64 101v490h88zM254 755l-47 -28l-107 115l68 42z" />
    <glyph glyph-name="Uacute" unicode="&#xda;" horiz-adv-x="409" 
d="M358 667v-490c0 -115 -25 -186 -155 -186c-122 0 -152 76 -152 183v493h88v-490c0 -49 4 -101 67 -101c66 0 64 51 64 101v490h88zM161 755l86 129l68 -42l-107 -115z" />
    <glyph glyph-name="Ucircumflex" unicode="&#xdb;" horiz-adv-x="409" 
d="M358 667v-490c0 -115 -25 -186 -155 -186c-122 0 -152 76 -152 183v493h88v-490c0 -49 4 -101 67 -101c66 0 64 51 64 101v490h88zM315 761l-41 -34l-69 74l-64 -74l-46 34l111 124z" />
    <glyph glyph-name="Udieresis" unicode="&#xdc;" horiz-adv-x="409" 
d="M358 667v-490c0 -115 -25 -186 -155 -186c-122 0 -152 76 -152 183v493h88v-490c0 -49 4 -101 67 -101c66 0 64 51 64 101v490h88zM324 771c0 -28 -22 -50 -50 -50s-50 22 -50 50s22 50 50 50s50 -22 50 -50zM176 771c0 -28 -22 -50 -50 -50s-50 22 -50 50s22 50 50 50
s50 -22 50 -50z" />
    <glyph glyph-name="Yacute" unicode="&#xdd;" horiz-adv-x="341" 
d="M343 667l-116 -380v-287h-90v287l-139 380h95l54 -179c13 -43 23 -76 33 -130c5 30 18 98 26 132l44 177h93zM122 755l86 129l68 -42l-107 -115z" />
    <glyph glyph-name="Thorn" unicode="&#xde;" horiz-adv-x="351" 
d="M141 573h28c35 0 66 -2 97 -21c52 -32 66 -101 66 -158c0 -74 -16 -152 -93 -180c-31 -11 -65 -12 -98 -12v-202h-90v667h90v-94zM141 279h8c70 0 90 38 90 103c0 58 -14 115 -83 115h-15v-218z" />
    <glyph glyph-name="germandbls" unicode="&#xdf;" horiz-adv-x="378" 
d="M60 0v372h-50v75h50v135c0 102 28 158 139 158c105 0 134 -64 134 -194c0 -51 -9 -116 -63 -136c18 -5 35 -13 48 -27c29 -33 30 -115 30 -182c0 -42 -3 -117 -32 -161c-23 -35 -63 -41 -102 -41c-11 0 -21 0 -32 1v76c18 0 35 0 49 12c24 21 26 87 26 125
c0 42 0 70 -6 98c-9 45 -33 60 -74 61v75c-1 -1 3 -1 6 -1c59 0 65 44 65 92c0 73 -3 121 -53 121c-53 0 -53 -55 -53 -95v-564h-82z" />
    <glyph glyph-name="agrave" unicode="&#xe0;" horiz-adv-x="349" 
d="M302 0h-83v57c-17 -38 -36 -64 -82 -64c-106 0 -107 162 -107 236c0 75 2 225 108 225c41 0 63 -23 81 -58v51h83v-447zM222 199v48c0 35 -2 132 -53 132c-52 0 -54 -89 -54 -125v-61c0 -36 2 -126 54 -126c51 0 53 97 53 132zM234 541l-47 -28l-107 115l68 42z" />
    <glyph glyph-name="aacute" unicode="&#xe1;" horiz-adv-x="349" 
d="M302 0h-83v57c-17 -38 -36 -64 -82 -64c-106 0 -107 162 -107 236c0 75 2 225 108 225c41 0 63 -23 81 -58v51h83v-447zM222 199v48c0 35 -2 132 -53 132c-52 0 -54 -89 -54 -125v-61c0 -36 2 -126 54 -126c51 0 53 97 53 132zM111 541l86 129l68 -42l-107 -115z" />
    <glyph glyph-name="acircumflex" unicode="&#xe2;" horiz-adv-x="349" 
d="M302 0h-83v57c-17 -38 -36 -64 -82 -64c-106 0 -107 162 -107 236c0 75 2 225 108 225c41 0 63 -23 81 -58v51h83v-447zM222 199v48c0 35 -2 132 -53 132c-52 0 -54 -89 -54 -125v-61c0 -36 2 -126 54 -126c51 0 53 97 53 132zM280 547l-41 -34l-69 74l-64 -74l-46 34
l111 124z" />
    <glyph glyph-name="atilde" unicode="&#xe3;" horiz-adv-x="349" 
d="M302 0h-83v57c-17 -38 -36 -64 -82 -64c-106 0 -107 162 -107 236c0 75 2 225 108 225c41 0 63 -23 81 -58v51h83v-447zM222 199v48c0 35 -2 132 -53 132c-52 0 -54 -89 -54 -125v-61c0 -36 2 -126 54 -126c51 0 53 97 53 132zM237 601h49c0 -44 -14 -88 -66 -88
c-32 0 -54 28 -82 28c-16 0 -20 -10 -20 -24h-54c2 42 17 88 67 88c38 0 62 -30 88 -30c15 0 15 15 18 26z" />
    <glyph glyph-name="adieresis" unicode="&#xe4;" horiz-adv-x="349" 
d="M302 0h-83v57c-17 -38 -36 -64 -82 -64c-106 0 -107 162 -107 236c0 75 2 225 108 225c41 0 63 -23 81 -58v51h83v-447zM222 199v48c0 35 -2 132 -53 132c-52 0 -54 -89 -54 -125v-61c0 -36 2 -126 54 -126c51 0 53 97 53 132zM294 563c0 -28 -22 -50 -50 -50
s-50 22 -50 50s22 50 50 50s50 -22 50 -50zM146 563c0 -28 -22 -50 -50 -50s-50 22 -50 50s22 50 50 50s50 -22 50 -50z" />
    <glyph glyph-name="aring" unicode="&#xe5;" horiz-adv-x="349" 
d="M302 0h-83v57c-17 -38 -36 -64 -82 -64c-106 0 -107 162 -107 236c0 75 2 225 108 225c41 0 63 -23 81 -58v51h83v-447zM222 199v48c0 35 -2 132 -53 132c-52 0 -54 -89 -54 -125v-61c0 -36 2 -126 54 -126c51 0 53 97 53 132zM80 600c0 48 37 85 85 85s85 -37 85 -85
s-37 -85 -85 -85s-85 37 -85 85zM125 600c0 -23 17 -40 40 -40s40 17 40 40s-17 40 -40 40s-40 -17 -40 -40z" />
    <glyph glyph-name="ae" unicode="&#xe6;" horiz-adv-x="505" 
d="M396 153h79c-5 -86 -29 -160 -129 -160c-53 0 -86 21 -106 70c-21 -48 -47 -70 -101 -70c-86 0 -109 71 -109 144c0 72 24 151 110 151c27 0 52 -8 70 -29c-3 59 4 115 -74 115c-32 0 -57 -9 -84 -26v84c33 15 53 22 90 22c48 0 82 -14 106 -57c23 39 50 57 96 57
c127 0 131 -156 131 -248h-184v-18c0 -40 1 -127 57 -127c45 0 48 59 48 92zM392 266v20c0 33 -5 100 -50 100s-50 -67 -50 -99v-21h100zM216 142c0 35 -8 81 -52 81c-43 0 -51 -43 -51 -77c0 -35 5 -87 51 -87c44 0 52 49 52 83z" />
    <glyph glyph-name="ccedilla" unicode="&#xe7;" horiz-adv-x="253" 
d="M229 88v-77c-24 -14 -39 -18 -66 -18c-119 0 -133 138 -133 228c0 93 11 233 135 233c26 0 41 -4 64 -16v-84c-11 14 -23 21 -41 21c-67 0 -68 -101 -68 -148c0 -46 2 -156 67 -156c17 0 29 6 42 17zM204 -74l-76 -117l-38 20l55 126z" />
    <glyph glyph-name="egrave" unicode="&#xe8;" horiz-adv-x="326" 
d="M299 207h-188c0 -39 0 -143 57 -143c44 0 51 54 51 87h77c-1 -32 -3 -61 -17 -90c-21 -44 -63 -68 -112 -68c-126 0 -137 133 -137 229c0 93 11 232 135 232c126 0 134 -154 134 -247zM111 267h104c-2 35 -2 117 -52 117c-49 0 -50 -83 -52 -117zM229 541l-47 -28
l-107 115l68 42z" />
    <glyph glyph-name="eacute" unicode="&#xe9;" horiz-adv-x="326" 
d="M299 207h-188c0 -39 0 -143 57 -143c44 0 51 54 51 87h77c-1 -32 -3 -61 -17 -90c-21 -44 -63 -68 -112 -68c-126 0 -137 133 -137 229c0 93 11 232 135 232c126 0 134 -154 134 -247zM111 267h104c-2 35 -2 117 -52 117c-49 0 -50 -83 -52 -117zM113 541l86 129l68 -42
l-107 -115z" />
    <glyph glyph-name="ecircumflex" unicode="&#xea;" horiz-adv-x="326" 
d="M299 207h-188c0 -39 0 -143 57 -143c44 0 51 54 51 87h77c-1 -32 -3 -61 -17 -90c-21 -44 -63 -68 -112 -68c-126 0 -137 133 -137 229c0 93 11 232 135 232c126 0 134 -154 134 -247zM111 267h104c-2 35 -2 117 -52 117c-49 0 -50 -83 -52 -117zM273 547l-41 -34l-69 74
l-64 -74l-46 34l111 124z" />
    <glyph glyph-name="edieresis" unicode="&#xeb;" horiz-adv-x="326" 
d="M299 207h-188c0 -39 0 -143 57 -143c44 0 51 54 51 87h77c-1 -32 -3 -61 -17 -90c-21 -44 -63 -68 -112 -68c-126 0 -137 133 -137 229c0 93 11 232 135 232c126 0 134 -154 134 -247zM111 267h104c-2 35 -2 117 -52 117c-49 0 -50 -83 -52 -117zM282 563
c0 -28 -22 -50 -50 -50s-50 22 -50 50s22 50 50 50s50 -22 50 -50zM134 563c0 -28 -22 -50 -50 -50s-50 22 -50 50s22 50 50 50s50 -22 50 -50z" />
    <glyph glyph-name="igrave" unicode="&#xec;" horiz-adv-x="176" 
d="M129 0h-82v447h82v-447zM139 541l-47 -28l-107 115l68 42z" />
    <glyph glyph-name="iacute" unicode="&#xed;" horiz-adv-x="176" 
d="M129 0h-82v447h82v-447zM36 541l86 129l68 -42l-107 -115z" />
    <glyph glyph-name="icircumflex" unicode="&#xee;" horiz-adv-x="176" 
d="M129 0h-82v447h82v-447zM198 547l-41 -34l-69 74l-64 -74l-46 34l111 124z" />
    <glyph glyph-name="idieresis" unicode="&#xef;" horiz-adv-x="176" 
d="M129 0h-82v447h82v-447zM207 563c0 -28 -22 -50 -50 -50s-50 22 -50 50s22 50 50 50s50 -22 50 -50zM59 563c0 -28 -22 -50 -50 -50s-50 22 -50 50s22 50 50 50s50 -22 50 -50z" />
    <glyph glyph-name="eth" unicode="&#xf0;" horiz-adv-x="341" 
d="M273 675l-71 -49c84 -105 109 -264 109 -395c0 -100 -11 -238 -141 -238c-125 0 -140 131 -140 228c0 99 12 233 140 233c10 0 19 -1 29 -3c-12 55 -29 91 -58 134l-77 -53l-31 46l75 51c-23 21 -46 41 -71 59l46 52c29 -21 58 -43 82 -69l75 54zM226 196v50
c0 49 -4 133 -53 133c-50 0 -54 -79 -54 -143v-40c0 -49 4 -128 54 -128c49 0 53 80 53 128z" />
    <glyph glyph-name="ntilde" unicode="&#xf1;" horiz-adv-x="358" 
d="M311 0h-82v290c-1 43 -2 92 -48 92c-52 0 -52 -55 -52 -93v-289h-82v447h82v-52c23 37 46 59 92 59c77 0 90 -61 90 -124v-330zM241 601h49c0 -44 -14 -88 -66 -88c-32 0 -54 28 -82 28c-16 0 -20 -10 -20 -24h-54c2 42 17 88 67 88c38 0 62 -30 88 -30c15 0 15 15 18 26
z" />
    <glyph glyph-name="ograve" unicode="&#xf2;" horiz-adv-x="341" 
d="M311 223c0 -97 -14 -230 -141 -230c-126 0 -140 133 -140 230s13 231 140 231s141 -134 141 -231zM225 197v54c0 36 -1 128 -53 128s-53 -91 -53 -127v-54c0 -36 1 -128 53 -128s53 91 53 127zM224 541l-47 -28l-107 115l68 42z" />
    <glyph glyph-name="oacute" unicode="&#xf3;" horiz-adv-x="341" 
d="M311 223c0 -97 -14 -230 -141 -230c-126 0 -140 133 -140 230s13 231 140 231s141 -134 141 -231zM225 197v54c0 36 -1 128 -53 128s-53 -91 -53 -127v-54c0 -36 1 -128 53 -128s53 91 53 127zM121 541l86 129l68 -42l-107 -115z" />
    <glyph glyph-name="ocircumflex" unicode="&#xf4;" horiz-adv-x="341" 
d="M311 223c0 -97 -14 -230 -141 -230c-126 0 -140 133 -140 230s13 231 140 231s141 -134 141 -231zM225 197v54c0 36 -1 128 -53 128s-53 -91 -53 -127v-54c0 -36 1 -128 53 -128s53 91 53 127zM281 547l-41 -34l-69 74l-64 -74l-46 34l111 124z" />
    <glyph glyph-name="otilde" unicode="&#xf5;" horiz-adv-x="341" 
d="M311 223c0 -97 -14 -230 -141 -230c-126 0 -140 133 -140 230s13 231 140 231s141 -134 141 -231zM225 197v54c0 36 -1 128 -53 128s-53 -91 -53 -127v-54c0 -36 1 -128 53 -128s53 91 53 127zM238 601h49c0 -44 -14 -88 -66 -88c-32 0 -54 28 -82 28
c-16 0 -20 -10 -20 -24h-54c2 42 17 88 67 88c38 0 62 -30 88 -30c15 0 15 15 18 26z" />
    <glyph glyph-name="odieresis" unicode="&#xf6;" horiz-adv-x="341" 
d="M311 223c0 -97 -14 -230 -141 -230c-126 0 -140 133 -140 230s13 231 140 231s141 -134 141 -231zM225 197v54c0 36 -1 128 -53 128s-53 -91 -53 -127v-54c0 -36 1 -128 53 -128s53 91 53 127zM290 563c0 -28 -22 -50 -50 -50s-50 22 -50 50s22 50 50 50s50 -22 50 -50z
M142 563c0 -28 -22 -50 -50 -50s-50 22 -50 50s22 50 50 50s50 -22 50 -50z" />
    <glyph glyph-name="divide" unicode="&#xf7;" 
d="M303 514c0 -29 -24 -53 -53 -53s-53 24 -53 53s24 53 53 53s53 -24 53 -53zM467 296h-434v76h434v-76zM303 154c0 -29 -24 -53 -53 -53s-53 24 -53 53s24 53 53 53s53 -24 53 -53z" />
    <glyph glyph-name="oslash" unicode="&#xf8;" horiz-adv-x="365" 
d="M335 441l-39 -64c21 -52 24 -109 24 -164c0 -98 -17 -220 -141 -220c-38 0 -65 10 -92 37l-23 -38l-34 22l34 55c-22 51 -25 109 -25 163c0 97 16 222 140 222c39 0 64 -10 92 -37l28 45zM129 174l93 167c-8 22 -17 38 -43 38c-51 0 -52 -88 -52 -123c0 -28 1 -55 2 -82z
M232 273l-94 -168c6 -22 18 -41 44 -41c58 0 52 107 52 146c0 21 -1 42 -2 63z" />
    <glyph glyph-name="ugrave" unicode="&#xf9;" horiz-adv-x="359" 
d="M313 447v-302c0 -99 -30 -153 -137 -153c-41 0 -78 11 -104 45c-23 30 -25 71 -25 108v302h82v-268c0 -10 1 -21 1 -31c1 -37 2 -77 50 -77c62 0 50 66 50 108v268h83zM234 541l-47 -28l-107 115l68 42z" />
    <glyph glyph-name="uacute" unicode="&#xfa;" horiz-adv-x="359" 
d="M313 447v-302c0 -99 -30 -153 -137 -153c-41 0 -78 11 -104 45c-23 30 -25 71 -25 108v302h82v-268c0 -10 1 -21 1 -31c1 -37 2 -77 50 -77c62 0 50 66 50 108v268h83zM126 541l86 129l68 -42l-107 -115z" />
    <glyph glyph-name="ucircumflex" unicode="&#xfb;" horiz-adv-x="359" 
d="M313 447v-302c0 -99 -30 -153 -137 -153c-41 0 -78 11 -104 45c-23 30 -25 71 -25 108v302h82v-268c0 -10 1 -21 1 -31c1 -37 2 -77 50 -77c62 0 50 66 50 108v268h83zM290 547l-41 -34l-69 74l-64 -74l-46 34l111 124z" />
    <glyph glyph-name="udieresis" unicode="&#xfc;" horiz-adv-x="359" 
d="M313 447v-302c0 -99 -30 -153 -137 -153c-41 0 -78 11 -104 45c-23 30 -25 71 -25 108v302h82v-268c0 -10 1 -21 1 -31c1 -37 2 -77 50 -77c62 0 50 66 50 108v268h83zM299 563c0 -28 -22 -50 -50 -50s-50 22 -50 50s22 50 50 50s50 -22 50 -50zM151 563
c0 -28 -22 -50 -50 -50s-50 22 -50 50s22 50 50 50s50 -22 50 -50z" />
    <glyph glyph-name="yacute" unicode="&#xfd;" horiz-adv-x="326" 
d="M323 447l-185 -635h-87l71 224l-119 411h94l65 -312l77 312h84zM119 541l86 129l68 -42l-107 -115z" />
    <glyph glyph-name="thorn" unicode="&#xfe;" horiz-adv-x="349" 
d="M130 729v-340c18 39 36 65 83 65c105 0 106 -164 106 -236c0 -74 -2 -225 -108 -225c-43 0 -62 21 -81 57v-238h-83v917h83zM234 224c0 38 6 155 -54 155c-57 0 -53 -119 -53 -155s-4 -156 53 -156c60 0 54 118 54 156z" />
    <glyph glyph-name="ydieresis" unicode="&#xff;" horiz-adv-x="326" 
d="M323 447l-185 -635h-87l71 224l-119 411h94l65 -312l77 312h84zM282 563c0 -28 -22 -50 -50 -50s-50 22 -50 50s22 50 50 50s50 -22 50 -50zM134 563c0 -28 -22 -50 -50 -50s-50 22 -50 50s22 50 50 50s50 -22 50 -50z" />
    <glyph glyph-name="Amacron" unicode="&#x100;" horiz-adv-x="360" 
d="M359 0h-89l-25 130h-132l-25 -130h-87l145 667h71zM126 199h106c-20 112 -40 225 -52 338c-11 -114 -33 -226 -54 -338zM292 732h-224v62h224v-62z" />
    <glyph glyph-name="amacron" unicode="&#x101;" horiz-adv-x="349" 
d="M302 0h-83v57c-17 -38 -36 -64 -82 -64c-106 0 -107 162 -107 236c0 75 2 225 108 225c41 0 63 -23 81 -58v51h83v-447zM222 199v48c0 35 -2 132 -53 132c-52 0 -54 -89 -54 -125v-61c0 -36 2 -126 54 -126c51 0 53 97 53 132zM287 531h-224v62h224v-62z" />
    <glyph glyph-name="Abreve" unicode="&#x102;" horiz-adv-x="360" 
d="M359 0h-89l-25 130h-132l-25 -130h-87l145 667h71zM126 199h106c-20 112 -40 225 -52 338c-11 -114 -33 -226 -54 -338zM248 811h55c-7 -65 -63 -93 -123 -93s-116 28 -123 93h55c12 -27 41 -35 68 -35s56 8 68 35z" />
    <glyph glyph-name="abreve" unicode="&#x103;" horiz-adv-x="349" 
d="M302 0h-83v57c-17 -38 -36 -64 -82 -64c-106 0 -107 162 -107 236c0 75 2 225 108 225c41 0 63 -23 81 -58v51h83v-447zM222 199v48c0 35 -2 132 -53 132c-52 0 -54 -89 -54 -125v-61c0 -36 2 -126 54 -126c51 0 53 97 53 132zM238 606h55c-7 -65 -63 -93 -123 -93
s-116 28 -123 93h55c12 -27 41 -35 68 -35s56 8 68 35z" />
    <glyph glyph-name="Aogonek" unicode="&#x104;" horiz-adv-x="357" 
d="M146 667h71l142 -667h-44c-13 -14 -21 -27 -27 -36c-11 -19 -13 -30 -13 -37s3 -16 8 -21c5 -6 14 -9 24 -9c12 0 25 4 34 11v-51c-10 -6 -25 -12 -45 -12c-3 0 -31 0 -51 16c-12 10 -23 27 -23 50c0 18 6 33 15 48c9 14 22 30 33 41l-25 130h-132l-25 -130h-87zM126 199
h106l-6 33c-5 25 -17 100 -23 136c-9 54 -16 108 -23 169c-2 -23 -10 -86 -21 -157c-10 -65 -21 -115 -28 -154z" />
    <glyph glyph-name="aogonek" unicode="&#x105;" horiz-adv-x="349" 
d="M219 447h83v-447h-37c-9 -11 -16 -22 -23 -36c-5 -9 -11 -23 -11 -38c0 -9 3 -17 8 -21c6 -5 15 -8 24 -8c12 0 25 3 37 11v-51c-14 -7 -31 -12 -47 -12c-18 0 -37 5 -51 16c-9 7 -24 23 -24 51c0 6 1 24 14 48c7 13 18 29 27 40v57c-5 -12 -17 -34 -27 -44
c-11 -11 -29 -20 -55 -20c-23 0 -40 6 -57 22c-45 43 -50 134 -50 214v23c0 60 9 139 46 177c16 16 37 25 62 25c18 0 36 -5 52 -18c11 -9 22 -26 29 -40v51zM222 199v48c0 23 -1 95 -26 120c-5 5 -14 12 -27 12c-14 0 -23 -6 -30 -14c-16 -19 -24 -52 -24 -111v-61
c0 -75 14 -102 26 -114c8 -8 17 -12 28 -12c12 0 20 4 26 11c13 14 27 44 27 121z" />
    <glyph glyph-name="Cacute" unicode="&#x106;" horiz-adv-x="337" 
d="M313 92v-82c-27 -16 -42 -19 -73 -19c-178 0 -202 194 -202 331s17 354 200 354c31 0 48 -5 75 -20v-81c-18 10 -37 17 -58 17c-121 0 -122 -180 -122 -265c0 -87 7 -248 127 -248c20 0 35 4 53 13zM191 755l86 129l68 -42l-107 -115z" />
    <glyph glyph-name="cacute" unicode="&#x107;" horiz-adv-x="253" 
d="M229 88v-77c-24 -14 -39 -18 -66 -18c-119 0 -133 138 -133 228c0 93 11 233 135 233c26 0 41 -4 64 -16v-84c-11 14 -23 21 -41 21c-67 0 -68 -101 -68 -148c0 -46 2 -156 67 -156c17 0 29 6 42 17zM116 541l86 129l68 -42l-107 -115z" />
    <glyph glyph-name="Ccircumflex" unicode="&#x108;" horiz-adv-x="337" 
d="M313 92v-82c-27 -16 -42 -19 -73 -19c-178 0 -202 194 -202 331s17 354 200 354c31 0 48 -5 75 -20v-81c-18 10 -37 17 -58 17c-121 0 -122 -180 -122 -265c0 -87 7 -248 127 -248c20 0 35 4 53 13zM350 761l-41 -34l-69 74l-64 -74l-46 34l111 124z" />
    <glyph glyph-name="ccircumflex" unicode="&#x109;" horiz-adv-x="253" 
d="M229 88v-77c-24 -14 -39 -18 -66 -18c-119 0 -133 138 -133 228c0 93 11 233 135 233c26 0 41 -4 64 -16v-84c-11 14 -23 21 -41 21c-67 0 -68 -101 -68 -148c0 -46 2 -156 67 -156c17 0 29 6 42 17zM270 547l-41 -34l-69 74l-64 -74l-46 34l111 124z" />
    <glyph glyph-name="Cdotaccent" unicode="&#x10a;" horiz-adv-x="337" 
d="M313 92v-82c-27 -16 -42 -19 -73 -19c-178 0 -202 194 -202 331s17 354 200 354c31 0 48 -5 75 -20v-81c-18 10 -37 17 -58 17c-121 0 -122 -180 -122 -265c0 -87 7 -248 127 -248c20 0 35 4 53 13zM287 773c0 -29 -24 -52 -53 -52s-53 23 -53 52s24 53 53 53
s53 -24 53 -53z" />
    <glyph glyph-name="cdotaccent" unicode="&#x10b;" horiz-adv-x="253" 
d="M229 88v-77c-24 -14 -39 -18 -66 -18c-119 0 -133 138 -133 228c0 93 11 233 135 233c26 0 41 -4 64 -16v-84c-11 14 -23 21 -41 21c-67 0 -68 -101 -68 -148c0 -46 2 -156 67 -156c17 0 29 6 42 17zM218 565c0 -29 -24 -52 -53 -52s-53 23 -53 52s24 53 53 53
s53 -24 53 -53z" />
    <glyph glyph-name="Ccaron" unicode="&#x10c;" horiz-adv-x="337" 
d="M313 92v-82c-27 -16 -42 -19 -73 -19c-178 0 -202 194 -202 331s17 354 200 354c31 0 48 -5 75 -20v-81c-18 10 -37 17 -58 17c-121 0 -122 -180 -122 -265c0 -87 7 -248 127 -248c20 0 35 4 53 13zM350 851l-109 -124l-111 124l46 34l64 -74l69 74z" />
    <glyph glyph-name="ccaron" unicode="&#x10d;" horiz-adv-x="253" 
d="M229 88v-77c-24 -14 -39 -18 -66 -18c-119 0 -133 138 -133 228c0 93 11 233 135 233c26 0 41 -4 64 -16v-84c-11 14 -23 21 -41 21c-67 0 -68 -101 -68 -148c0 -46 2 -156 67 -156c17 0 29 6 42 17zM275 637l-109 -124l-111 124l46 34l64 -74l69 74z" />
    <glyph glyph-name="Dcaron" unicode="&#x10e;" horiz-adv-x="411" 
d="M51 667h111c65 0 109 -9 151 -61c58 -71 60 -194 60 -282c0 -84 -3 -206 -64 -271c-47 -50 -121 -53 -185 -53h-73v667zM141 78h4c85 0 114 39 127 119c6 41 7 83 7 124c0 43 -1 87 -6 130c-10 77 -30 140 -121 140h-11v-513zM300 851l-109 -124l-111 124l46 34l64 -74
l69 74z" />
    <glyph glyph-name="dcaron" unicode="&#x10f;" horiz-adv-x="443" 
d="M302 0h-83v57c-17 -38 -36 -64 -82 -64c-106 0 -107 162 -107 236c0 76 2 225 109 225c42 0 62 -22 80 -58v333h83v-729zM222 199v48c0 35 -2 132 -53 132c-52 0 -54 -89 -54 -125v-61c0 -36 2 -126 54 -126c51 0 53 97 53 132zM453 667l-71 -189l-45 13l44 197z" />
    <glyph glyph-name="Dcroat" unicode="&#x110;" horiz-adv-x="411" 
d="M51 667h111c64 0 110 -8 151 -61c56 -73 60 -190 60 -279c0 -84 -3 -209 -64 -274c-47 -50 -121 -53 -185 -53h-73v330h-50v69h50v268zM141 330v-252c86 -1 118 36 131 118c6 41 7 84 7 125c0 43 -1 86 -6 129c-10 79 -31 141 -122 141h-10v-192h87v-69h-87z" />
    <glyph glyph-name="dcroat" unicode="&#x111;" horiz-adv-x="357" 
d="M302 521v-521h-83v57c-17 -38 -36 -64 -82 -64c-106 0 -107 162 -107 226c0 62 2 211 109 211c42 0 62 -22 80 -58v149h-106v64h106v144h83v-144h50v-64h-50zM222 199v24c0 35 -2 132 -53 132c-52 0 -54 -89 -54 -125v-37c0 -36 2 -126 54 -126c51 0 53 97 53 132z" />
    <glyph glyph-name="Emacron" unicode="&#x112;" horiz-adv-x="321" 
d="M290 0h-239v667h239v-76h-149v-212h132v-76h-132v-227h149v-76zM282 732h-224v62h224v-62z" />
    <glyph glyph-name="emacron" unicode="&#x113;" horiz-adv-x="326" 
d="M299 207h-188c0 -39 0 -143 57 -143c44 0 51 54 51 87h77c-1 -32 -3 -61 -17 -90c-21 -44 -63 -68 -112 -68c-126 0 -137 133 -137 229c0 93 11 232 135 232c126 0 134 -154 134 -247zM111 267h104c-2 35 -2 117 -52 117c-49 0 -50 -83 -52 -117zM275 531h-224v62h224
v-62z" />
    <glyph glyph-name="Edotaccent" unicode="&#x116;" horiz-adv-x="321" 
d="M290 0h-239v667h239v-76h-149v-212h132v-76h-132v-227h149v-76zM223 773c0 -29 -24 -52 -53 -52s-53 23 -53 52s24 53 53 53s53 -24 53 -53z" />
    <glyph glyph-name="edotaccent" unicode="&#x117;" horiz-adv-x="326" 
d="M299 207h-188c0 -39 0 -143 57 -143c44 0 51 54 51 87h77c-1 -32 -3 -61 -17 -90c-21 -44 -63 -68 -112 -68c-126 0 -137 133 -137 229c0 93 11 232 135 232c126 0 134 -154 134 -247zM111 267h104c-2 35 -2 117 -52 117c-49 0 -50 -83 -52 -117zM216 565
c0 -29 -24 -52 -53 -52s-53 23 -53 52s24 53 53 53s53 -24 53 -53z" />
    <glyph glyph-name="Eogonek" unicode="&#x118;" horiz-adv-x="321" 
d="M51 667h239v-76h-149v-212h132v-76h-132v-227h149v-76h-26c-13 -14 -21 -27 -27 -36c-11 -19 -13 -30 -13 -37s3 -16 8 -21c5 -6 14 -9 24 -9c12 0 25 4 34 11v-51c-10 -6 -25 -12 -45 -12c-3 0 -31 0 -51 16c-12 10 -23 27 -23 50c0 18 6 33 15 48c9 14 22 30 33 41
h-168v667z" />
    <glyph glyph-name="eogonek" unicode="&#x119;" horiz-adv-x="326" 
d="M299 207h-188v-4c0 -37 2 -102 29 -128c9 -8 18 -11 28 -11c11 0 22 4 29 11c18 16 22 55 22 76h77c0 -25 -4 -54 -11 -77c-8 -26 -21 -43 -37 -61c-15 -17 -35 -36 -48 -55c-6 -9 -12 -22 -12 -32c0 -7 3 -15 7 -20s12 -9 23 -9c12 0 22 2 39 11v-51
c-10 -6 -25 -12 -45 -12c-18 0 -39 5 -53 16c-9 7 -24 23 -24 51c0 19 7 33 17 48c8 12 19 24 29 34c-7 -1 -13 -1 -19 -1c-38 0 -64 15 -81 32c-46 46 -51 131 -51 197c0 69 6 153 51 199c22 23 51 33 85 33c30 0 56 -9 78 -30c51 -49 55 -153 55 -194v-23zM111 267h104
c-2 37 -4 85 -26 107c-8 8 -16 10 -25 10c-13 0 -21 -4 -28 -12c-17 -18 -23 -48 -25 -105z" />
    <glyph glyph-name="Ecaron" unicode="&#x11a;" horiz-adv-x="321" 
d="M290 0h-239v667h239v-76h-149v-212h132v-76h-132v-227h149v-76zM280 851l-109 -124l-111 124l46 34l64 -74l69 74z" />
    <glyph glyph-name="ecaron" unicode="&#x11b;" horiz-adv-x="326" 
d="M299 207h-188c0 -39 0 -143 57 -143c44 0 51 54 51 87h77c-1 -32 -3 -61 -17 -90c-21 -44 -63 -68 -112 -68c-126 0 -137 133 -137 229c0 93 11 232 135 232c126 0 134 -154 134 -247zM111 267h104c-2 35 -2 117 -52 117c-49 0 -50 -83 -52 -117zM273 637l-109 -124
l-111 124l46 34l64 -74l69 74z" />
    <glyph glyph-name="Gcircumflex" unicode="&#x11c;" horiz-adv-x="412" 
d="M374 351v-26c0 -73 1 -155 -19 -226s-67 -108 -141 -108c-114 0 -150 80 -166 179c-8 53 -10 107 -10 160c0 77 2 162 24 236c22 72 72 109 148 109c95 0 135 -50 160 -136l-84 -35c-9 45 -21 92 -77 92c-28 0 -41 -11 -54 -35c-22 -41 -24 -177 -24 -228
c0 -61 1 -123 12 -183c8 -41 21 -75 69 -75c75 0 77 97 77 151v49h-78v76h163zM316 761l-41 -34l-69 74l-64 -74l-46 34l111 124z" />
    <glyph glyph-name="gcircumflex" unicode="&#x11d;" horiz-adv-x="349" 
d="M303 447v-477c0 -101 -31 -158 -140 -158c-76 0 -127 50 -127 126c0 5 1 10 1 15h80c0 -37 9 -72 53 -72c48 0 50 41 50 78v96c-16 -37 -38 -62 -81 -62c-107 0 -109 154 -109 229c0 77 1 232 109 232c43 0 62 -26 81 -61v54h83zM221 229c0 38 0 150 -55 150
c-57 0 -51 -132 -51 -171c0 -37 1 -141 56 -141c45 0 47 61 49 94c1 23 1 45 1 68zM285 547l-41 -34l-69 74l-64 -74l-46 34l111 124z" />
    <glyph glyph-name="Gbreve" unicode="&#x11e;" horiz-adv-x="412" 
d="M374 351v-26c0 -73 1 -155 -19 -226s-67 -108 -141 -108c-114 0 -150 80 -166 179c-8 53 -10 107 -10 160c0 77 2 162 24 236c22 72 72 109 148 109c95 0 135 -50 160 -136l-84 -35c-9 45 -21 92 -77 92c-28 0 -41 -11 -54 -35c-22 -41 -24 -177 -24 -228
c0 -61 1 -123 12 -183c8 -41 21 -75 69 -75c75 0 77 97 77 151v49h-78v76h163zM274 811h55c-7 -65 -63 -93 -123 -93s-116 28 -123 93h55c12 -27 41 -35 68 -35s56 8 68 35z" />
    <glyph glyph-name="gbreve" unicode="&#x11f;" horiz-adv-x="349" 
d="M303 447v-477c0 -101 -31 -158 -140 -158c-76 0 -127 50 -127 126c0 5 1 10 1 15h80c0 -37 9 -72 53 -72c48 0 50 41 50 78v96c-16 -37 -38 -62 -81 -62c-107 0 -109 154 -109 229c0 77 1 232 109 232c43 0 62 -26 81 -61v54h83zM221 229c0 38 0 150 -55 150
c-57 0 -51 -132 -51 -171c0 -37 1 -141 56 -141c45 0 47 61 49 94c1 23 1 45 1 68zM238 606h55c-7 -65 -63 -93 -123 -93s-116 28 -123 93h55c12 -27 41 -35 68 -35s56 8 68 35z" />
    <glyph glyph-name="Gdotaccent" unicode="&#x120;" horiz-adv-x="412" 
d="M374 351v-26c0 -73 1 -155 -19 -226s-67 -108 -141 -108c-114 0 -150 80 -166 179c-8 53 -10 107 -10 160c0 77 2 162 24 236c22 72 72 109 148 109c95 0 135 -50 160 -136l-84 -35c-9 45 -21 92 -77 92c-28 0 -41 -11 -54 -35c-22 -41 -24 -177 -24 -228
c0 -61 1 -123 12 -183c8 -41 21 -75 69 -75c75 0 77 97 77 151v49h-78v76h163zM259 773c0 -29 -24 -52 -53 -52s-53 23 -53 52s24 53 53 53s53 -24 53 -53z" />
    <glyph glyph-name="gdotaccent" unicode="&#x121;" horiz-adv-x="349" 
d="M303 447v-477c0 -101 -31 -158 -140 -158c-76 0 -127 50 -127 126c0 5 1 10 1 15h80c0 -37 9 -72 53 -72c48 0 50 41 50 78v96c-16 -37 -38 -62 -81 -62c-107 0 -109 154 -109 229c0 77 1 232 109 232c43 0 62 -26 81 -61v54h83zM221 229c0 38 0 150 -55 150
c-57 0 -51 -132 -51 -171c0 -37 1 -141 56 -141c45 0 47 61 49 94c1 23 1 45 1 68zM208 565c0 -29 -24 -52 -53 -52s-53 23 -53 52s24 53 53 53s53 -24 53 -53z" />
    <glyph glyph-name="Gcommaaccent" unicode="&#x122;" horiz-adv-x="412" 
d="M374 351v-26c0 -73 1 -155 -19 -226s-67 -108 -141 -108c-114 0 -150 80 -166 179c-8 53 -10 107 -10 160c0 77 2 162 24 236c22 72 72 109 148 109c95 0 135 -50 160 -136l-84 -35c-9 45 -21 92 -77 92c-28 0 -41 -11 -54 -35c-22 -41 -24 -177 -24 -228
c0 -61 1 -123 12 -183c8 -41 21 -75 69 -75c75 0 77 97 77 151v49h-78v76h163zM256 -69l-64 -167l-45 13l37 175z" />
    <glyph glyph-name="gcommaaccent" unicode="&#x123;" horiz-adv-x="349" 
d="M303 447v-477c0 -101 -31 -158 -140 -158c-76 0 -127 50 -127 126c0 5 1 10 1 15h80c0 -37 9 -72 53 -72c48 0 50 41 50 78v96c-16 -37 -38 -62 -81 -62c-107 0 -109 154 -109 229c0 77 1 232 109 232c43 0 62 -26 81 -61v54h83zM221 229c0 38 0 150 -55 150
c-57 0 -51 -132 -51 -171c0 -37 1 -141 56 -141c45 0 47 61 49 94c1 23 1 45 1 68zM117 507l63 165l45 -13l-36 -173z" />
    <glyph glyph-name="Hcircumflex" unicode="&#x124;" horiz-adv-x="414" 
d="M363 0h-90v330h-132v-330h-90v667h90v-261h132v261h90v-667zM317 761l-41 -34l-69 74l-64 -74l-46 34l111 124z" />
    <glyph glyph-name="hcircumflex" unicode="&#x125;" horiz-adv-x="358" 
d="M311 0h-82v298c-1 35 -2 84 -48 84c-52 0 -52 -55 -52 -93v-289h-82v729h82v-334c23 37 46 59 92 59c77 0 90 -61 90 -124v-330zM195 787l-41 -34l-69 74l-64 -74l-46 34l111 124z" />
    <glyph glyph-name="Hbar" unicode="&#x126;" horiz-adv-x="414" 
d="M363 0h-90v330h-132v-330h-90v550h-48v64h48v53h90v-53h132v53h90v-53h48v-64h-48v-550zM273 550h-132v-144h132v144z" />
    <glyph glyph-name="hbar" unicode="&#x127;" horiz-adv-x="371" 
d="M324 0h-82v275c0 34 -1 83 -47 83c-53 0 -53 -55 -53 -93v-265h-82v521h-50v64h50v144h82v-144h106v-64h-106v-150c23 37 46 59 92 59c77 0 90 -61 90 -124v-306z" />
    <glyph glyph-name="Imacron" unicode="&#x12a;" horiz-adv-x="193" 
d="M141 0h-90v667h90v-667zM205 732h-224v62h224v-62z" />
    <glyph glyph-name="imacron" unicode="&#x12b;" horiz-adv-x="176" 
d="M129 0h-82v447h82v-447zM200 531h-224v62h224v-62z" />
    <glyph glyph-name="Iogonek" unicode="&#x12e;" horiz-adv-x="193" 
d="M53 667h90v-667c-10 -8 -25 -22 -33 -32c-11 -14 -17 -28 -17 -41c0 -9 4 -16 8 -21c5 -6 15 -9 24 -9c10 0 24 4 34 11v-51c-10 -6 -25 -12 -45 -12c-22 0 -39 7 -51 17c-15 12 -23 28 -23 48c0 22 9 39 18 51s22 26 40 39h-45v667z" />
    <glyph glyph-name="iogonek" unicode="&#x12f;" horiz-adv-x="176" 
d="M47 447h82v-447c-8 -10 -19 -22 -27 -34c-7 -10 -17 -26 -17 -40c0 -7 3 -15 7 -20c7 -8 17 -9 23 -9c12 0 22 2 39 11v-51c-10 -6 -25 -12 -45 -12c-18 0 -39 5 -53 16c-9 7 -24 23 -24 51c0 18 7 34 17 48c9 12 24 29 35 40h-37v447zM29 581c0 30 26 56 56 56
s56 -26 56 -56s-26 -56 -56 -56s-56 26 -56 56z" />
    <glyph glyph-name="Idotaccent" unicode="&#x130;" horiz-adv-x="193" 
d="M141 0h-90v667h90v-667zM150 773c0 -29 -24 -52 -53 -52s-53 23 -53 52s24 53 53 53s53 -24 53 -53z" />
    <glyph glyph-name="dotlessi" unicode="&#x131;" horiz-adv-x="176" 
d="M129 0h-82v447h82v-447z" />
    <glyph glyph-name="Jcircumflex" unicode="&#x134;" horiz-adv-x="259" 
d="M207 667v-518c0 -27 -1 -54 -10 -80c-19 -54 -67 -78 -122 -78c-27 0 -53 5 -77 18v90c19 -11 38 -23 60 -23c61 0 59 59 59 104v487h90zM265 761l-41 -34l-69 74l-64 -74l-46 34l111 124z" />
    <glyph glyph-name="jcircumflex" unicode="&#x135;" horiz-adv-x="176" 
d="M129 -188h-82v635h82v-635zM195 547l-41 -34l-69 74l-64 -74l-46 34l111 124z" />
    <glyph glyph-name="Kcommaaccent" unicode="&#x136;" horiz-adv-x="372" 
d="M367 0h-101l-125 327v-327h-90v667h90v-306l125 306h91l-135 -323zM250 -69l-64 -167l-45 13l37 175z" />
    <glyph glyph-name="kcommaaccent" unicode="&#x137;" horiz-adv-x="346" 
d="M342 0h-96l-117 218v-218h-82v729h82v-475l105 193h93l-119 -204zM226 -69l-63 -165l-45 13l36 173z" />
    <glyph glyph-name="Lacute" unicode="&#x139;" horiz-adv-x="293" 
d="M288 0h-237v667h90v-591h147v-76zM56 755l86 129l68 -42l-107 -115z" />
    <glyph glyph-name="lacute" unicode="&#x13a;" horiz-adv-x="176" 
d="M129 0h-82v729h82v-729zM44 791l86 129l68 -42l-107 -115z" />
    <glyph glyph-name="Lcommaaccent" unicode="&#x13b;" horiz-adv-x="293" 
d="M288 0h-237v667h90v-591h147v-76zM210 -69l-64 -167l-45 13l37 175z" />
    <glyph glyph-name="lcommaaccent" unicode="&#x13c;" horiz-adv-x="176" 
d="M129 0h-82v729h82v-729zM131 -69l-63 -165l-45 13l36 173z" />
    <glyph glyph-name="Lcaron" unicode="&#x13d;" horiz-adv-x="293" 
d="M288 0h-237v667h90v-591h147v-76zM313 667l-69 -189l-45 13l42 197z" />
    <glyph glyph-name="lcaron" unicode="&#x13e;" horiz-adv-x="273" 
d="M129 0h-82v729h82v-729zM283 667l-71 -189l-45 13l44 197z" />
    <glyph glyph-name="Ldot" unicode="&#x13f;" horiz-adv-x="293" 
d="M288 0h-237v667h90v-591h147v-76zM301 334c0 -29 -24 -52 -53 -52s-53 23 -53 52s24 53 53 53s53 -24 53 -53z" />
    <glyph glyph-name="ldot" unicode="&#x140;" horiz-adv-x="264" 
d="M129 0h-82v729h82v-729zM273 365c0 -29 -24 -52 -53 -52s-53 23 -53 52s24 53 53 53s53 -24 53 -53z" />
    <glyph glyph-name="Lslash" unicode="&#x141;" horiz-adv-x="293" 
d="M288 0h-237v230l-51 -56v88l51 56v349h90v-265l111 121v-88l-111 -121v-238h147v-76z" />
    <glyph glyph-name="lslash" unicode="&#x142;" horiz-adv-x="192" 
d="M138 729v-280l54 58v-79l-54 -58v-370h-83v292l-55 -59v79l55 59v358h83z" />
    <glyph glyph-name="Nacute" unicode="&#x143;" horiz-adv-x="413" 
d="M362 0h-84c-37 110 -75 220 -110 331c-9 27 -18 54 -25 82c-8 33 -13 67 -22 100c5 -33 6 -67 8 -101c8 -137 9 -275 11 -412h-89v667h84c57 -168 117 -334 158 -507c-11 84 -21 169 -21 254v253h90v-667zM163 755l86 129l68 -42l-107 -115z" />
    <glyph glyph-name="nacute" unicode="&#x144;" horiz-adv-x="358" 
d="M311 0h-82v290c-1 43 -2 92 -48 92c-52 0 -52 -55 -52 -93v-289h-82v447h82v-52c23 37 46 59 92 59c77 0 90 -61 90 -124v-330zM146 541l86 129l68 -42l-107 -115z" />
    <glyph glyph-name="Ncommaaccent" unicode="&#x145;" horiz-adv-x="413" 
d="M362 0h-84c-37 110 -75 220 -110 331c-9 27 -18 54 -25 82c-8 33 -13 67 -22 100c5 -33 6 -67 8 -101c8 -137 9 -275 11 -412h-89v667h84c57 -168 117 -334 158 -507c-11 84 -21 169 -21 254v253h90v-667zM256 -69l-64 -167l-45 13l37 175z" />
    <glyph glyph-name="ncommaaccent" unicode="&#x146;" horiz-adv-x="358" 
d="M311 0h-82v290c-1 43 -2 92 -48 92c-52 0 -52 -55 -52 -93v-289h-82v447h82v-52c23 37 46 59 92 59c77 0 90 -61 90 -124v-330zM231 -69l-63 -165l-45 13l36 173z" />
    <glyph glyph-name="Ncaron" unicode="&#x147;" horiz-adv-x="413" 
d="M362 0h-84c-37 110 -75 220 -110 331c-9 27 -18 54 -25 82c-8 33 -13 67 -22 100c5 -33 6 -67 8 -101c8 -137 9 -275 11 -412h-89v667h84c57 -168 117 -334 158 -507c-11 84 -21 169 -21 254v253h90v-667zM317 851l-109 -124l-111 124l46 34l64 -74l69 74z" />
    <glyph glyph-name="ncaron" unicode="&#x148;" horiz-adv-x="358" 
d="M311 0h-82v290c-1 43 -2 92 -48 92c-52 0 -52 -55 -52 -93v-289h-82v447h82v-52c23 37 46 59 92 59c77 0 90 -61 90 -124v-330zM300 637l-109 -124l-111 124l46 34l64 -74l69 74z" />
    <glyph glyph-name="Omacron" unicode="&#x14c;" horiz-adv-x="423" 
d="M385 321c0 -53 -2 -105 -10 -157c-16 -98 -51 -173 -162 -173c-57 0 -106 24 -134 75c-38 69 -41 204 -41 283c0 78 2 174 36 245c28 58 73 81 137 81c56 0 102 -22 131 -71c41 -71 43 -201 43 -283zM291 346c0 61 0 125 -14 185c-8 36 -26 63 -66 63
c-24 0 -39 -9 -52 -28c-27 -38 -27 -147 -27 -194c0 -70 -2 -142 9 -211c7 -41 21 -87 71 -87c32 0 51 19 62 48c18 51 17 166 17 224zM324 732h-224v62h224v-62z" />
    <glyph glyph-name="omacron" unicode="&#x14d;" horiz-adv-x="341" 
d="M311 223c0 -97 -14 -230 -141 -230c-126 0 -140 133 -140 230s13 231 140 231s141 -134 141 -231zM225 197v54c0 36 -1 128 -53 128s-53 -91 -53 -127v-54c0 -36 1 -128 53 -128s53 91 53 127zM283 531h-224v62h224v-62z" />
    <glyph glyph-name="Obreve" unicode="&#x14e;" horiz-adv-x="423" 
d="M385 321c0 -53 -2 -105 -10 -157c-16 -98 -51 -173 -162 -173c-57 0 -106 24 -134 75c-38 69 -41 204 -41 283c0 78 2 174 36 245c28 58 73 81 137 81c56 0 102 -22 131 -71c41 -71 43 -201 43 -283zM291 346c0 61 0 125 -14 185c-8 36 -26 63 -66 63
c-24 0 -39 -9 -52 -28c-27 -38 -27 -147 -27 -194c0 -70 -2 -142 9 -211c7 -41 21 -87 71 -87c32 0 51 19 62 48c18 51 17 166 17 224zM280 811h55c-7 -65 -63 -93 -123 -93s-116 28 -123 93h55c12 -27 41 -35 68 -35s56 8 68 35z" />
    <glyph glyph-name="obreve" unicode="&#x14f;" horiz-adv-x="341" 
d="M311 223c0 -97 -14 -230 -141 -230c-126 0 -140 133 -140 230s13 231 140 231s141 -134 141 -231zM225 197v54c0 36 -1 128 -53 128s-53 -91 -53 -127v-54c0 -36 1 -128 53 -128s53 91 53 127zM239 606h55c-7 -65 -63 -93 -123 -93s-116 28 -123 93h55
c12 -27 41 -35 68 -35s56 8 68 35z" />
    <glyph glyph-name="Ohungarumlaut" unicode="&#x150;" horiz-adv-x="423" 
d="M385 321c0 -53 -2 -105 -10 -157c-16 -98 -51 -173 -162 -173c-57 0 -106 24 -134 75c-38 69 -41 204 -41 283c0 78 2 174 36 245c28 58 73 81 137 81c56 0 102 -22 131 -71c41 -71 43 -201 43 -283zM291 346c0 61 0 125 -14 185c-8 36 -26 63 -66 63
c-24 0 -39 -9 -52 -28c-27 -38 -27 -147 -27 -194c0 -70 -2 -142 9 -211c7 -41 21 -87 71 -87c32 0 51 19 62 48c18 51 17 166 17 224zM350 852l-77 -126l-39 21l61 138zM237 852l-77 -126l-40 21l61 138z" />
    <glyph glyph-name="ohungarumlaut" unicode="&#x151;" horiz-adv-x="341" 
d="M311 223c0 -97 -14 -230 -141 -230c-126 0 -140 133 -140 230s13 231 140 231s141 -134 141 -231zM225 197v54c0 36 -1 128 -53 128s-53 -91 -53 -127v-54c0 -36 1 -128 53 -128s53 91 53 127zM304 638l-77 -126l-39 21l61 138zM191 638l-77 -126l-40 21l61 138z" />
    <glyph glyph-name="OE" unicode="&#x152;" horiz-adv-x="564" 
d="M526 0h-232v52c-23 -41 -52 -61 -100 -61c-157 0 -156 228 -156 338c0 75 3 171 25 242c19 61 62 104 129 104c47 0 77 -19 98 -60v52h231v-76h-147v-212h135v-76h-135v-227h152v-76zM290 264v140c0 55 2 192 -78 192c-69 0 -75 -105 -79 -155c-2 -35 -3 -71 -3 -107
s1 -71 3 -107c4 -49 10 -154 79 -154c79 0 78 137 78 191z" />
    <glyph glyph-name="oe" unicode="&#x153;" horiz-adv-x="524" 
d="M494 207h-189c2 -39 3 -143 59 -143c43 0 51 54 51 87h77c-3 -82 -38 -158 -131 -158c-49 0 -74 20 -97 61c-21 -44 -48 -61 -97 -61c-126 0 -137 141 -137 236c0 54 5 129 37 174c23 32 63 51 103 51c44 0 77 -19 95 -60c20 41 50 60 96 60c127 0 133 -154 133 -247z
M307 264h102c-1 36 0 121 -52 121c-47 0 -50 -60 -50 -95v-26zM225 223c0 38 1 156 -54 156c-58 0 -56 -117 -56 -156c0 -37 -1 -156 54 -156c58 0 56 117 56 156z" />
    <glyph glyph-name="Racute" unicode="&#x154;" horiz-adv-x="373" 
d="M355 0h-92l-122 311v-311h-90v667h119c36 0 67 -2 97 -25c45 -34 57 -96 57 -149c0 -65 -18 -151 -96 -169zM141 593v-222c23 0 47 1 65 16c25 21 31 59 31 90c0 27 -4 64 -18 88c-15 25 -37 28 -63 28h-15zM126 755l86 129l68 -42l-107 -115z" />
    <glyph glyph-name="racute" unicode="&#x155;" horiz-adv-x="236" 
d="M226 457v-86c-5 1 -10 1 -15 1c-68 0 -82 -41 -82 -101v-271h-82v447h82v-56c25 42 47 63 97 66zM81 541l86 129l68 -42l-107 -115z" />
    <glyph glyph-name="Rcommaaccent" unicode="&#x156;" horiz-adv-x="373" 
d="M355 0h-92l-122 311v-311h-90v667h119c36 0 67 -2 97 -25c45 -34 57 -96 57 -149c0 -65 -18 -151 -96 -169zM141 593v-222c23 0 47 1 65 16c25 21 31 59 31 90c0 27 -4 64 -18 88c-15 25 -37 28 -63 28h-15zM244 -69l-64 -167l-45 13l37 175z" />
    <glyph glyph-name="rcommaaccent" unicode="&#x157;" horiz-adv-x="236" 
d="M226 457v-86c-5 1 -10 1 -15 1c-68 0 -82 -41 -82 -101v-271h-82v447h82v-56c25 42 47 63 97 66zM176 -69l-63 -165l-45 13l36 173z" />
    <glyph glyph-name="Rcaron" unicode="&#x158;" horiz-adv-x="373" 
d="M355 0h-92l-122 311v-311h-90v667h119c36 0 67 -2 97 -25c45 -34 57 -96 57 -149c0 -65 -18 -151 -96 -169zM141 593v-222c23 0 47 1 65 16c25 21 31 59 31 90c0 27 -4 64 -18 88c-15 25 -37 28 -63 28h-15zM280 851l-109 -124l-111 124l46 34l64 -74l69 74z" />
    <glyph glyph-name="rcaron" unicode="&#x159;" horiz-adv-x="236" 
d="M226 457v-86c-5 1 -10 1 -15 1c-68 0 -82 -41 -82 -101v-271h-82v447h82v-56c25 42 47 63 97 66zM240 637l-109 -124l-111 124l46 34l64 -74l69 74z" />
    <glyph glyph-name="Sacute" unicode="&#x15a;" horiz-adv-x="330" 
d="M274 653l-1 -88c-22 17 -45 30 -73 30c-51 0 -81 -41 -81 -89c0 -123 186 -154 186 -338c0 -93 -55 -177 -155 -177c-37 0 -68 9 -98 32v89c27 -20 53 -35 87 -35c53 0 79 42 79 91c0 138 -187 159 -187 337c0 95 49 170 151 170c37 0 59 -5 92 -22zM141 755l86 129
l68 -42l-107 -115z" />
    <glyph glyph-name="sacute" unicode="&#x15b;" horiz-adv-x="260" 
d="M219 438v-77c-18 14 -40 22 -63 22c-28 0 -53 -21 -53 -50c0 -73 138 -81 138 -208c0 -78 -49 -132 -128 -132c-31 0 -46 5 -73 21v80c21 -16 41 -27 68 -27c35 0 57 20 57 56c0 81 -140 90 -140 212c0 71 48 122 120 122c28 0 50 -6 74 -19zM96 541l86 129l68 -42
l-107 -115z" />
    <glyph glyph-name="Scircumflex" unicode="&#x15c;" horiz-adv-x="330" 
d="M274 653l-1 -88c-22 17 -45 30 -73 30c-51 0 -81 -41 -81 -89c0 -123 186 -154 186 -338c0 -93 -55 -177 -155 -177c-37 0 -68 9 -98 32v89c27 -20 53 -35 87 -35c53 0 79 42 79 91c0 138 -187 159 -187 337c0 95 49 170 151 170c37 0 59 -5 92 -22zM295 761l-41 -34
l-69 74l-64 -74l-46 34l111 124z" />
    <glyph glyph-name="scircumflex" unicode="&#x15d;" horiz-adv-x="260" 
d="M219 438v-77c-18 14 -40 22 -63 22c-28 0 -53 -21 -53 -50c0 -73 138 -81 138 -208c0 -78 -49 -132 -128 -132c-31 0 -46 5 -73 21v80c21 -16 41 -27 68 -27c35 0 57 20 57 56c0 81 -140 90 -140 212c0 71 48 122 120 122c28 0 50 -6 74 -19zM250 547l-41 -34l-69 74
l-64 -74l-46 34l111 124z" />
    <glyph glyph-name="Scedilla" unicode="&#x15e;" horiz-adv-x="330" 
d="M274 653l-1 -88c-22 17 -45 30 -73 30c-51 0 -81 -41 -81 -89c0 -123 186 -154 186 -338c0 -93 -55 -177 -155 -177c-37 0 -68 9 -98 32v89c27 -20 53 -35 87 -35c53 0 79 42 79 91c0 138 -187 159 -187 337c0 95 49 170 151 170c37 0 59 -5 92 -22zM214 -72l-73 -118
l-49 23l54 125z" />
    <glyph glyph-name="scedilla" unicode="&#x15f;" horiz-adv-x="260" 
d="M219 438v-77c-18 14 -40 22 -63 22c-28 0 -53 -21 -53 -50c0 -73 138 -81 138 -208c0 -78 -49 -132 -128 -132c-31 0 -46 5 -73 21v80c21 -16 41 -27 68 -27c35 0 57 20 57 56c0 81 -140 90 -140 212c0 71 48 122 120 122c28 0 50 -6 74 -19zM176 -74l-76 -117l-38 20
l55 126z" />
    <glyph glyph-name="Scaron" unicode="&#x160;" horiz-adv-x="330" 
d="M274 653l-1 -88c-22 17 -45 30 -73 30c-51 0 -81 -41 -81 -89c0 -123 186 -154 186 -338c0 -93 -55 -177 -155 -177c-37 0 -68 9 -98 32v89c27 -20 53 -35 87 -35c53 0 79 42 79 91c0 138 -187 159 -187 337c0 95 49 170 151 170c37 0 59 -5 92 -22zM295 851l-109 -124
l-111 124l46 34l64 -74l69 74z" />
    <glyph glyph-name="scaron" unicode="&#x161;" horiz-adv-x="260" 
d="M219 438v-77c-18 14 -40 22 -63 22c-28 0 -53 -21 -53 -50c0 -73 138 -81 138 -208c0 -78 -49 -132 -128 -132c-31 0 -46 5 -73 21v80c21 -16 41 -27 68 -27c35 0 57 20 57 56c0 81 -140 90 -140 212c0 71 48 122 120 122c28 0 50 -6 74 -19zM255 637l-109 -124l-111 124
l46 34l64 -74l69 74z" />
    <glyph glyph-name="Tcedilla" unicode="&#x162;" horiz-adv-x="288" 
d="M290 588h-102v-588h-88v588h-102v79h292v-79zM210 -72l-73 -118l-49 23l54 125z" />
    <glyph glyph-name="tcedilla" unicode="&#x163;" horiz-adv-x="196" 
d="M184 383h-45v-383h-82v383h-46v64h46v127h82v-127h45v-64zM155 -74l-76 -117l-38 20l55 126z" />
    <glyph glyph-name="Tcaron" unicode="&#x164;" horiz-adv-x="288" 
d="M188 588h102v79h-292v-79h102v-588h88v588zM255 851l-109 -124l-111 124l46 34l64 -74l69 74z" />
    <glyph glyph-name="tcaron" unicode="&#x165;" horiz-adv-x="278" 
d="M184 383h-45v-383h-82v383h-46v64h46v127h82v-127h45v-64zM288 667l-71 -189l-45 13l44 197z" />
    <glyph glyph-name="Utilde" unicode="&#x168;" horiz-adv-x="409" 
d="M358 667v-490c0 -115 -25 -186 -155 -186c-122 0 -152 76 -152 183v493h88v-490c0 -49 4 -101 67 -101c66 0 64 51 64 101v490h88zM266 815h49c0 -44 -14 -88 -66 -88c-32 0 -54 28 -82 28c-16 0 -20 -10 -20 -24h-54c2 42 17 88 67 88c38 0 62 -30 88 -30
c15 0 15 15 18 26z" />
    <glyph glyph-name="utilde" unicode="&#x169;" horiz-adv-x="359" 
d="M313 447v-302c0 -99 -30 -153 -137 -153c-41 0 -78 11 -104 45c-23 30 -25 71 -25 108v302h82v-268c0 -10 1 -21 1 -31c1 -37 2 -77 50 -77c62 0 50 66 50 108v268h83zM241 601h49c0 -44 -14 -88 -66 -88c-32 0 -54 28 -82 28c-16 0 -20 -10 -20 -24h-54
c2 42 17 88 67 88c38 0 62 -30 88 -30c15 0 15 15 18 26z" />
    <glyph glyph-name="Umacron" unicode="&#x16a;" horiz-adv-x="409" 
d="M358 667v-490c0 -115 -25 -186 -155 -186c-122 0 -152 76 -152 183v493h88v-490c0 -49 4 -101 67 -101c66 0 64 51 64 101v490h88zM317 732h-224v62h224v-62z" />
    <glyph glyph-name="umacron" unicode="&#x16b;" horiz-adv-x="359" 
d="M313 447v-302c0 -99 -30 -153 -137 -153c-41 0 -78 11 -104 45c-23 30 -25 71 -25 108v302h82v-268c0 -10 1 -21 1 -31c1 -37 2 -77 50 -77c62 0 50 66 50 108v268h83zM287 531h-224v62h224v-62z" />
    <glyph glyph-name="Ubreve" unicode="&#x16c;" horiz-adv-x="409" 
d="M358 667v-490c0 -115 -25 -186 -155 -186c-122 0 -152 76 -152 183v493h88v-490c0 -49 4 -101 67 -101c66 0 64 51 64 101v490h88zM273 811h55c-7 -65 -63 -93 -123 -93s-116 28 -123 93h55c12 -27 41 -35 68 -35s56 8 68 35z" />
    <glyph glyph-name="ubreve" unicode="&#x16d;" horiz-adv-x="359" 
d="M313 447v-302c0 -99 -30 -153 -137 -153c-41 0 -78 11 -104 45c-23 30 -25 71 -25 108v302h82v-268c0 -10 1 -21 1 -31c1 -37 2 -77 50 -77c62 0 50 66 50 108v268h83zM248 606h55c-7 -65 -63 -93 -123 -93s-116 28 -123 93h55c12 -27 41 -35 68 -35s56 8 68 35z" />
    <glyph glyph-name="Uring" unicode="&#x16e;" horiz-adv-x="409" 
d="M358 667v-490c0 -115 -25 -186 -155 -186c-122 0 -152 76 -152 183v493h88v-490c0 -49 4 -101 67 -101c66 0 64 51 64 101v490h88zM120 799c0 48 37 85 85 85s85 -37 85 -85s-37 -85 -85 -85s-85 37 -85 85zM165 799c0 -23 17 -40 40 -40s40 17 40 40s-17 40 -40 40
s-40 -17 -40 -40z" />
    <glyph glyph-name="uring" unicode="&#x16f;" horiz-adv-x="359" 
d="M313 447v-302c0 -99 -30 -153 -137 -153c-41 0 -78 11 -104 45c-23 30 -25 71 -25 108v302h82v-268c0 -10 1 -21 1 -31c1 -37 2 -77 50 -77c62 0 50 66 50 108v268h83zM95 600c0 48 37 85 85 85s85 -37 85 -85s-37 -85 -85 -85s-85 37 -85 85zM140 600
c0 -23 17 -40 40 -40s40 17 40 40s-17 40 -40 40s-40 -17 -40 -40z" />
    <glyph glyph-name="Uhungarumlaut" unicode="&#x170;" horiz-adv-x="409" 
d="M358 667v-490c0 -115 -25 -186 -155 -186c-122 0 -152 76 -152 183v493h88v-490c0 -49 4 -101 67 -101c66 0 64 51 64 101v490h88zM328 852l-77 -126l-39 21l61 138zM215 852l-77 -126l-40 21l61 138z" />
    <glyph glyph-name="uhungarumlaut" unicode="&#x171;" horiz-adv-x="359" 
d="M313 447v-302c0 -99 -30 -153 -137 -153c-41 0 -78 11 -104 45c-23 30 -25 71 -25 108v302h82v-268c0 -10 1 -21 1 -31c1 -37 2 -77 50 -77c62 0 50 66 50 108v268h83zM308 638l-77 -126l-39 21l61 138zM195 638l-77 -126l-40 21l61 138z" />
    <glyph glyph-name="Uogonek" unicode="&#x172;" horiz-adv-x="409" 
d="M358 667v-490c0 -33 -1 -64 -14 -95c-12 -29 -31 -50 -51 -69c-15 -14 -33 -29 -46 -45c-8 -10 -16 -23 -16 -40c0 -11 4 -18 8 -22c5 -6 14 -9 25 -9s23 4 33 11v-51c-15 -8 -29 -12 -46 -12c-14 0 -34 2 -50 15c-14 12 -23 30 -23 51c0 18 7 32 14 44s16 24 27 36h-9
c-58 0 -98 15 -120 37c-37 37 -39 107 -39 149v490h88v-494c0 -24 0 -62 17 -81c14 -15 36 -16 49 -16c12 0 34 1 48 16c17 19 17 57 17 81v494h88z" />
    <glyph glyph-name="uogonek" unicode="&#x173;" horiz-adv-x="359" 
d="M313 447v-306c0 -30 0 -68 -26 -105c-13 -19 -31 -33 -43 -42c-14 -11 -26 -22 -35 -35c-12 -17 -12 -30 -12 -33c0 -7 3 -15 7 -20c7 -8 17 -9 23 -9c12 0 22 2 39 11v-51c-10 -6 -25 -12 -45 -12c-18 0 -39 5 -53 16c-9 7 -24 23 -24 51c0 19 7 33 17 48
c8 12 19 24 29 34c-6 -1 -13 -1 -21 -1c-28 0 -64 6 -88 32c-32 33 -34 90 -34 116v306h83v-310c0 -14 0 -39 15 -54c7 -7 18 -12 35 -12s28 5 35 12c15 15 15 40 15 54v310h83z" />
    <glyph glyph-name="Ydieresis" unicode="&#x178;" horiz-adv-x="341" 
d="M343 667l-116 -380v-287h-90v287l-139 380h95l54 -179c13 -43 23 -76 33 -130c5 30 18 98 26 132l44 177h93zM290 771c0 -28 -22 -50 -50 -50s-50 22 -50 50s22 50 50 50s50 -22 50 -50zM142 771c0 -28 -22 -50 -50 -50s-50 22 -50 50s22 50 50 50s50 -22 50 -50z" />
    <glyph glyph-name="Zacute" unicode="&#x179;" horiz-adv-x="334" 
d="M329 667l-201 -588h190v-79h-307l202 591h-178v76h294zM126 755l86 129l68 -42l-107 -115z" />
    <glyph glyph-name="zacute" unicode="&#x17a;" horiz-adv-x="298" 
d="M285 447l-150 -372h142v-75h-264l155 374h-143v73h260zM101 541l86 129l68 -42l-107 -115z" />
    <glyph glyph-name="Zdotaccent" unicode="&#x17b;" horiz-adv-x="334" 
d="M329 667l-201 -588h190v-79h-307l202 591h-178v76h294zM237 773c0 -29 -24 -52 -53 -52s-53 23 -53 52s24 53 53 53s53 -24 53 -53z" />
    <glyph glyph-name="zdotaccent" unicode="&#x17c;" horiz-adv-x="298" 
d="M285 447l-150 -372h142v-75h-264l155 374h-143v73h260zM209 565c0 -29 -24 -52 -53 -52s-53 23 -53 52s24 53 53 53s53 -24 53 -53z" />
    <glyph glyph-name="Zcaron" unicode="&#x17d;" horiz-adv-x="334" 
d="M329 667l-201 -588h190v-79h-307l202 591h-178v76h294zM285 851l-109 -124l-111 124l46 34l64 -74l69 74z" />
    <glyph glyph-name="zcaron" unicode="&#x17e;" horiz-adv-x="298" 
d="M285 447l-150 -372h142v-75h-264l155 374h-143v73h260zM265 637l-109 -124l-111 124l46 34l64 -74l69 74z" />
    <glyph glyph-name="uni018F" unicode="&#x18f;" horiz-adv-x="411" 
d="M38 351h243c-1 50 -3 95 -7 135c-2 23 -6 70 -32 94c-14 13 -30 16 -44 16c-13 0 -30 -2 -44 -15c-19 -17 -28 -52 -32 -77l-84 35c8 30 27 73 51 97c32 32 70 39 108 39c33 0 75 -6 110 -40c63 -60 67 -182 67 -289c0 -200 -31 -280 -69 -317c-36 -35 -80 -38 -107 -38
c-31 0 -68 4 -101 37c-53 54 -59 158 -59 273v50zM280 275h-157v-49c0 -39 1 -102 31 -133c13 -13 28 -18 46 -18c11 0 29 2 43 15s23 38 29 79c5 34 7 72 8 106z" />
    <glyph glyph-name="florin" unicode="&#x192;" horiz-adv-x="380" 
d="M386 728l-17 -84c-11 7 -21 11 -35 11c-42 0 -47 -57 -53 -87l-24 -121h69l-12 -61h-69l-59 -310c-17 -90 -36 -209 -151 -209c-22 0 -35 3 -56 11l15 76c12 -4 24 -7 37 -7c47 0 57 59 64 95l66 344h-60l12 61h60l24 121c16 84 30 172 135 172c22 0 34 -3 54 -12z" />
    <glyph glyph-name="uni01CF" unicode="&#x1cf;" horiz-adv-x="193" 
d="M141 0h-90v667h90v-667zM202 851l-109 -124l-111 124l46 34l64 -74l69 74z" />
    <glyph glyph-name="uni01D0" unicode="&#x1d0;" horiz-adv-x="176" 
d="M129 0h-82v447h82v-447zM198 637l-109 -124l-111 124l46 34l64 -74l69 74z" />
    <glyph glyph-name="uni01DD" unicode="&#x1dd;" horiz-adv-x="326" 
d="M30 248h188v4c0 83 -18 110 -29 120c-9 8 -18 11 -28 11c-11 0 -22 -4 -29 -11c-16 -15 -24 -50 -25 -76l-77 16c5 31 15 78 43 107c20 21 49 35 89 35c41 0 68 -14 86 -32c46 -45 51 -133 51 -197c0 -69 -6 -153 -51 -199c-22 -23 -51 -33 -85 -33c-30 0 -56 9 -78 30
c-51 49 -55 153 -55 194v31zM218 188h-104c1 -51 6 -95 26 -115c8 -8 16 -10 25 -10c13 0 21 4 28 12c15 16 24 45 25 113z" />
    <glyph glyph-name="Gcaron" unicode="&#x1e6;" horiz-adv-x="412" 
d="M374 351v-26c0 -73 1 -155 -19 -226s-67 -108 -141 -108c-114 0 -150 80 -166 179c-8 53 -10 107 -10 160c0 77 2 162 24 236c22 72 72 109 148 109c95 0 135 -50 160 -136l-84 -35c-9 45 -21 92 -77 92c-28 0 -41 -11 -54 -35c-22 -41 -24 -177 -24 -228
c0 -61 1 -123 12 -183c8 -41 21 -75 69 -75c75 0 77 97 77 151v49h-78v76h163zM316 851l-109 -124l-111 124l46 34l64 -74l69 74z" />
    <glyph glyph-name="gcaron" unicode="&#x1e7;" horiz-adv-x="349" 
d="M303 447v-477c0 -101 -31 -158 -140 -158c-76 0 -127 50 -127 126c0 5 1 10 1 15h80c0 -37 9 -72 53 -72c48 0 50 41 50 78v96c-16 -37 -38 -62 -81 -62c-107 0 -109 154 -109 229c0 77 1 232 109 232c43 0 62 -26 81 -61v54h83zM221 229c0 38 0 150 -55 150
c-57 0 -51 -132 -51 -171c0 -37 1 -141 56 -141c45 0 47 61 49 94c1 23 1 45 1 68zM275 637l-109 -124l-111 124l46 34l64 -74l69 74z" />
    <glyph glyph-name="AEacute" unicode="&#x1fc;" horiz-adv-x="511" 
d="M510 0h-232l-27 131h-138l-24 -131h-88l142 667h221l17 -76h-145l45 -212h132l18 -76h-132l51 -227h142zM239 199l-32 151c-13 63 -20 126 -27 190c-3 -48 -11 -96 -18 -143c-10 -66 -22 -132 -36 -198h113zM211 755l86 129l68 -42l-107 -115z" />
    <glyph glyph-name="aeacute" unicode="&#x1fd;" horiz-adv-x="505" 
d="M396 153h79c-5 -86 -29 -160 -129 -160c-53 0 -86 21 -106 70c-21 -48 -47 -70 -101 -70c-86 0 -109 71 -109 144c0 72 24 151 110 151c27 0 52 -8 70 -29c-3 59 4 115 -74 115c-32 0 -57 -9 -84 -26v84c33 15 53 22 90 22c48 0 82 -14 106 -57c23 39 50 57 96 57
c127 0 131 -156 131 -248h-184v-18c0 -40 1 -127 57 -127c45 0 48 59 48 92zM392 266v20c0 33 -5 100 -50 100s-50 -67 -50 -99v-21h100zM216 142c0 35 -8 81 -52 81c-43 0 -51 -43 -51 -77c0 -35 5 -87 51 -87c44 0 52 49 52 83zM208 541l86 129l68 -42l-107 -115z" />
    <glyph glyph-name="Scommaaccent" unicode="&#x218;" horiz-adv-x="330" 
d="M274 653l-1 -88c-22 17 -45 30 -73 30c-51 0 -81 -41 -81 -89c0 -123 186 -154 186 -338c0 -93 -55 -177 -155 -177c-37 0 -68 9 -98 32v89c27 -20 53 -35 87 -35c53 0 79 42 79 91c0 138 -187 159 -187 337c0 95 49 170 151 170c37 0 59 -5 92 -22zM206 -69l-64 -167
l-45 13l37 175z" />
    <glyph glyph-name="scommaaccent" unicode="&#x219;" horiz-adv-x="260" 
d="M219 438v-77c-18 14 -40 22 -63 22c-28 0 -53 -21 -53 -50c0 -73 138 -81 138 -208c0 -78 -49 -132 -128 -132c-31 0 -46 5 -73 21v80c21 -16 41 -27 68 -27c35 0 57 20 57 56c0 81 -140 90 -140 212c0 71 48 122 120 122c28 0 50 -6 74 -19zM181 -69l-63 -165l-45 13
l36 173z" />
    <glyph glyph-name="Tcommaaccent" unicode="&#x21a;" horiz-adv-x="288" 
d="M290 588h-102v-588h-88v588h-102v79h292v-79zM180 -69l-64 -167l-45 13l37 175z" />
    <glyph glyph-name="tcommaaccent" unicode="&#x21b;" horiz-adv-x="196" 
d="M184 383h-45v-383h-82v383h-46v64h46v127h82v-127h45v-64zM136 -69l-63 -165l-45 13l36 173z" />
    <glyph glyph-name="uni0228" unicode="&#x228;" horiz-adv-x="321" 
d="M290 0h-239v667h239v-76h-149v-212h132v-76h-132v-227h149v-76zM237 -72l-73 -118l-49 23l54 125z" />
    <glyph glyph-name="uni0229" unicode="&#x229;" horiz-adv-x="326" 
d="M299 207h-188c0 -39 0 -143 57 -143c44 0 51 54 51 87h77c-1 -32 -3 -61 -17 -90c-21 -44 -63 -68 -112 -68c-126 0 -137 133 -137 229c0 93 11 232 135 232c126 0 134 -154 134 -247zM111 267h104c-2 35 -2 117 -52 117c-49 0 -50 -83 -52 -117zM220 -74l-76 -117
l-38 20l55 126z" />
    <glyph glyph-name="uni0237" unicode="&#x237;" horiz-adv-x="176" 
d="M129 -188h-82v635h82v-635z" />
    <glyph glyph-name="uni0259" unicode="&#x259;" horiz-adv-x="326" 
d="M30 248h188v4c0 83 -18 110 -29 120c-9 8 -18 11 -28 11c-11 0 -22 -4 -29 -11c-16 -15 -24 -50 -25 -76l-77 16c5 31 15 78 43 107c20 21 49 35 89 35c41 0 68 -14 86 -32c46 -45 51 -133 51 -197c0 -69 -6 -153 -51 -199c-22 -23 -51 -33 -85 -33c-30 0 -56 9 -78 30
c-51 49 -55 153 -55 194v31zM218 188h-104c1 -51 6 -95 26 -115c8 -8 16 -10 25 -10c13 0 21 4 28 12c15 16 24 45 25 113z" />
    <glyph glyph-name="afii57929" unicode="&#x2bc;" horiz-adv-x="196" 
d="M163 667l-71 -189l-45 13l44 197z" />
    <glyph glyph-name="circumflex" unicode="&#x2c6;" 
d="M360 547l-41 -34l-69 74l-64 -74l-46 34l111 124z" />
    <glyph glyph-name="caron" unicode="&#x2c7;" 
d="M360 637l-109 -124l-111 124l46 34l64 -74l69 74z" />
    <glyph glyph-name="uni02C9" unicode="&#x2c9;" 
d="M362 531h-224v62h224v-62z" />
    <glyph glyph-name="breve" unicode="&#x2d8;" 
d="M318 606h55c-7 -65 -63 -93 -123 -93s-116 28 -123 93h55c12 -27 41 -35 68 -35s56 8 68 35z" />
    <glyph glyph-name="dotaccent" unicode="&#x2d9;" 
d="M303 565c0 -29 -24 -52 -53 -52s-53 23 -53 52s24 53 53 53s53 -24 53 -53z" />
    <glyph glyph-name="ring" unicode="&#x2da;" 
d="M165 600c0 48 37 85 85 85s85 -37 85 -85s-37 -85 -85 -85s-85 37 -85 85zM210 600c0 -23 17 -40 40 -40s40 17 40 40s-17 40 -40 40s-40 -17 -40 -40z" />
    <glyph glyph-name="ogonek" unicode="&#x2db;" 
d="M405 -92v-51c-16 -11 -32 -12 -45 -12c-16 0 -44 2 -65 21c-13 12 -20 28 -20 48c0 12 3 28 12 46c6 11 19 31 26 40h45c-6 -9 -15 -24 -19 -32c-3 -6 -11 -23 -11 -39c0 -14 6 -21 8 -23c6 -6 18 -9 28 -9c6 0 20 1 41 11z" />
    <glyph glyph-name="tilde" unicode="&#x2dc;" 
d="M312 601h49c0 -44 -14 -88 -66 -88c-32 0 -54 28 -82 28c-16 0 -20 -10 -20 -24h-54c2 42 17 88 67 88c38 0 62 -30 88 -30c15 0 15 15 18 26z" />
    <glyph glyph-name="hungarumlaut" unicode="&#x2dd;" 
d="M388 638l-77 -126l-39 21l61 138zM275 638l-77 -126l-40 21l61 138z" />
    <glyph glyph-name="acutecomb" unicode="&#x301;" horiz-adv-x="2" 
d="M-211 541l86 129l68 -42l-107 -115z" />
    <glyph glyph-name="uni0394" unicode="&#x394;" horiz-adv-x="667" 
d="M641 0h-615l262 667h88zM522 75l-190 492l-189 -493z" />
    <glyph glyph-name="uni0394" unicode="&#x2206;" horiz-adv-x="667" 
d="M641 0h-615l262 667h88zM522 75l-190 492l-189 -493z" />
    <glyph glyph-name="uni03A9" unicode="&#x3a9;" horiz-adv-x="666" 
d="M638 0h-262v66c113 63 177 156 177 288c0 125 -83 255 -219 255c-140 0 -221 -126 -221 -255c0 -132 65 -225 178 -288v-66h-263v74h173c-113 67 -173 157 -173 290c0 173 127 319 305 319c179 0 305 -144 305 -319c0 -132 -60 -224 -172 -290h172v-74z" />
    <glyph glyph-name="uni03A9" unicode="&#x2126;" horiz-adv-x="666" 
d="M638 0h-262v66c113 63 177 156 177 288c0 125 -83 255 -219 255c-140 0 -221 -126 -221 -255c0 -132 65 -225 178 -288v-66h-263v74h173c-113 67 -173 157 -173 290c0 173 127 319 305 319c179 0 305 -144 305 -319c0 -132 -60 -224 -172 -290h172v-74z" />
    <glyph glyph-name="pi" unicode="&#x3c0;" horiz-adv-x="594" 
d="M565 374h-74v-374h-82v374h-223v-374h-82v374h-75v73h536v-73z" />
    <glyph glyph-name="afii10023" unicode="&#x401;" horiz-adv-x="323" 
d="M290 0h-239v667h239v-76h-149v-212h132v-76h-132v-227h149v-76zM154 760c0 -28 -22 -50 -50 -50s-50 22 -50 50s22 50 50 50s50 -22 50 -50zM292 760c0 -28 -22 -50 -50 -50s-50 22 -50 50s22 50 50 50s50 -22 50 -50z" />
    <glyph glyph-name="afii10051" unicode="&#x402;" horiz-adv-x="443" 
d="M98 0v588h-88v79h299v-79h-121v-199c20 10 42 17 71 17c47 0 84 -17 109 -41c37 -36 55 -98 55 -166c0 -51 -10 -136 -57 -180c-26 -24 -53 -28 -79 -28c-24 0 -46 4 -70 14l20 87c11 -11 27 -18 40 -18c15 0 27 7 35 20c14 22 17 65 17 94c0 26 -2 84 -34 115
c-13 13 -29 20 -50 20c-13 0 -35 -3 -57 -19v-304h-90z" />
    <glyph glyph-name="afii10052" unicode="&#x403;" horiz-adv-x="309" 
d="M291 591h-150v-591h-90v667h240v-76zM121 755l86 129l68 -42l-107 -115z" />
    <glyph glyph-name="afii10053" unicode="&#x404;" horiz-adv-x="369" 
d="M331 115v-93c-16 -14 -46 -32 -96 -32c-53 0 -90 21 -113 42c-73 68 -84 227 -84 323c0 112 16 219 76 277c36 35 74 44 119 44c26 0 61 -2 98 -31v-93c-30 33 -58 41 -82 41c-23 0 -46 -7 -65 -27c-46 -47 -49 -153 -49 -180h154v-76h-155c0 -52 10 -166 53 -207
c23 -22 49 -25 65 -25c26 0 58 8 79 37z" />
    <glyph glyph-name="afii10054" unicode="&#x405;" horiz-adv-x="330" 
d="M274 653l-1 -88c-22 17 -45 30 -73 30c-51 0 -81 -41 -81 -89c0 -123 186 -154 186 -338c0 -93 -55 -177 -155 -177c-37 0 -68 9 -98 32v89c27 -20 53 -35 87 -35c53 0 79 42 79 91c0 138 -187 159 -187 337c0 95 49 170 151 170c37 0 59 -5 92 -22z" />
    <glyph glyph-name="afii10055" unicode="&#x406;" horiz-adv-x="193" 
d="M141 0h-90v667h90v-667z" />
    <glyph glyph-name="afii10056" unicode="&#x407;" horiz-adv-x="193" 
d="M141 0h-90v667h90v-667zM180 771c0 -28 -16 -50 -35 -50c-20 0 -35 22 -35 50s15 50 35 50c19 0 35 -22 35 -50zM84 771c0 -28 -15 -50 -35 -50s-36 22 -36 50s16 50 36 50s35 -22 35 -50z" />
    <glyph glyph-name="afii10057" unicode="&#x408;" horiz-adv-x="259" 
d="M207 667v-518c0 -27 -1 -54 -10 -80c-19 -54 -67 -78 -122 -78c-27 0 -53 5 -77 18v90c19 -11 38 -23 60 -23c61 0 59 59 59 104v487h90z" />
    <glyph glyph-name="afii10058" unicode="&#x409;" horiz-adv-x="614" 
d="M388 382h13c39 0 95 -3 135 -44s46 -105 46 -151s-6 -110 -44 -148c-19 -19 -54 -39 -113 -39h-127v591h-113v-340c0 -75 -3 -109 -6 -126s-12 -69 -41 -99c-26 -27 -58 -33 -83 -33c-21 0 -37 3 -51 9v91c10 -11 21 -15 37 -15c13 0 24 4 33 13c25 25 26 83 26 151v425
h288v-285zM388 306v-230h4c22 0 51 0 71 19c24 23 25 70 25 93c0 26 -2 74 -28 98c-20 18 -50 20 -69 20h-3z" />
    <glyph glyph-name="afii10059" unicode="&#x40a;" horiz-adv-x="589" 
d="M363 388h13c32 0 90 -3 132 -45c47 -47 49 -124 49 -157c0 -29 -3 -106 -44 -147c-19 -19 -54 -39 -113 -39h-127v312h-132v-312h-90v667h90v-279h132v279h90v-279zM363 312v-236h4c22 0 51 0 71 19c25 23 25 71 25 95c0 32 -2 77 -27 101c-20 19 -49 21 -70 21h-3z" />
    <glyph glyph-name="afii10060" unicode="&#x40b;" horiz-adv-x="451" 
d="M98 0v588h-88v79h299v-79h-121v-192c20 6 44 10 71 10c22 0 65 -3 99 -25c45 -30 53 -73 53 -135v-246h-91v240c0 21 -1 49 -18 66c-13 13 -36 18 -57 18c-19 0 -39 -4 -57 -9v-315h-90z" />
    <glyph glyph-name="afii10061" unicode="&#x40c;" horiz-adv-x="372" 
d="M367 0h-101l-125 327v-327h-90v667h90v-306l125 306h91l-135 -323zM151 755l86 129l68 -42l-107 -115z" />
    <glyph glyph-name="afii10062" unicode="&#x40e;" horiz-adv-x="359" 
d="M8 667h94l41 -157c15 -59 26 -97 40 -175c6 33 18 100 38 177l40 155h90l-183 -667h-88l61 213zM248 827l75 -30c-10 -30 -29 -54 -50 -68c-29 -20 -61 -23 -89 -23s-60 3 -89 23c-21 14 -40 38 -50 68l75 30c3 -12 11 -29 21 -38c13 -12 30 -14 43 -14c15 0 30 2 43 14
c10 9 18 24 21 38z" />
    <glyph glyph-name="afii10145" unicode="&#x40f;" horiz-adv-x="410" 
d="M51 667h90v-591h128v591h90v-667h-111v-130h-86v130h-111v667z" />
    <glyph glyph-name="afii10017" unicode="&#x410;" horiz-adv-x="360" 
d="M359 0h-89l-25 130h-132l-25 -130h-87l145 667h71zM126 199h106c-20 112 -40 225 -52 338c-11 -114 -33 -226 -54 -338z" />
    <glyph glyph-name="afii10018" unicode="&#x411;" horiz-adv-x="364" 
d="M51 667h245v-76h-155v-210h15c33 0 91 -3 131 -44c39 -40 45 -106 45 -151s-6 -109 -44 -147c-19 -19 -54 -39 -113 -39h-124v667zM141 305v-229h6c18 0 48 0 68 19c21 20 24 58 24 92c0 32 -3 76 -27 98c-15 13 -39 20 -66 20h-5z" />
    <glyph glyph-name="afii10019" unicode="&#x412;" horiz-adv-x="364" 
d="M51 667h122c112 0 143 -79 143 -178c0 -37 -4 -77 -25 -109c-15 -23 -33 -32 -59 -41c21 -8 43 -18 59 -35c29 -31 35 -80 35 -121c0 -108 -38 -183 -157 -183h-118v667zM136 373h6c77 0 87 51 87 116c0 52 -16 105 -78 105h-15v-221zM136 302v-225c19 0 39 0 56 8
c37 17 41 66 41 101c0 73 -15 116 -97 116z" />
    <glyph glyph-name="afii10020" unicode="&#x413;" horiz-adv-x="309" 
d="M291 591h-150v-591h-90v667h240v-76z" />
    <glyph glyph-name="afii10021" unicode="&#x414;" horiz-adv-x="443" 
d="M94 667h286v-591h53v-206h-82v130h-265v-130h-82v206c30 15 48 36 58 52c23 36 32 91 32 184v355zM178 591v-249c0 -120 -9 -161 -16 -184c-13 -41 -35 -66 -53 -82h181v515h-112z" />
    <glyph glyph-name="afii10022" unicode="&#x415;" horiz-adv-x="321" 
d="M290 0h-239v667h239v-76h-149v-212h132v-76h-132v-227h149v-76z" />
    <glyph glyph-name="afii10024" unicode="&#x416;" horiz-adv-x="516" 
d="M511 0h-93l-116 329v-329h-88v329l-116 -329h-93l132 344l-126 323h87l116 -308v308h88v-308l116 308h87l-126 -323z" />
    <glyph glyph-name="afii10025" unicode="&#x417;" horiz-adv-x="355" 
d="M96 383h10c15 0 52 1 77 23c24 21 28 53 28 78c0 33 -7 64 -25 84c-11 12 -29 24 -59 24c-42 0 -69 -25 -85 -45v93c35 28 70 35 103 35c32 0 74 -6 107 -37c24 -23 49 -67 49 -142c0 -33 -4 -81 -36 -115c-14 -15 -29 -24 -47 -28c28 -4 47 -18 59 -29
c22 -21 44 -59 44 -128c0 -71 -23 -127 -58 -161c-37 -36 -77 -44 -120 -44c-32 0 -69 4 -105 35v94c34 -35 69 -43 94 -43c32 0 53 12 65 23c28 26 31 67 31 94c0 25 -3 66 -30 90c-24 22 -59 23 -81 23h-21v76z" />
    <glyph glyph-name="afii10026" unicode="&#x418;" horiz-adv-x="410" 
d="M51 0v667h88v-273c0 -50 -5 -147 -19 -235c27 89 34 125 59 201l100 307h80v-667h-88v297c0 54 12 166 18 217c-23 -82 -33 -126 -51 -181l-107 -333h-80z" />
    <glyph glyph-name="afii10027" unicode="&#x419;" horiz-adv-x="410" 
d="M51 0v667h88v-273c0 -50 -5 -147 -19 -235c27 89 34 125 59 201l100 307h80v-667h-88v297c0 54 12 166 18 217c-23 -82 -33 -126 -51 -181l-107 -333h-80zM269 827l75 -30c-10 -30 -29 -54 -50 -68c-29 -20 -61 -23 -89 -23s-60 3 -89 23c-21 14 -40 38 -50 68l75 30
c3 -12 11 -29 21 -38c13 -12 30 -14 43 -14c15 0 30 2 43 14c10 9 18 24 21 38z" />
    <glyph glyph-name="afii10028" unicode="&#x41a;" horiz-adv-x="372" 
d="M367 0h-101l-125 327v-327h-90v667h90v-306l125 306h91l-135 -323z" />
    <glyph glyph-name="afii10029" unicode="&#x41b;" horiz-adv-x="439" 
d="M100 667h288v-667h-90v591h-113v-340c0 -75 -3 -109 -6 -126s-12 -69 -41 -99c-26 -27 -58 -33 -83 -33c-21 0 -37 3 -51 9v91c10 -11 21 -15 37 -15c13 0 24 4 33 13c25 25 26 83 26 151v425z" />
    <glyph glyph-name="afii10030" unicode="&#x41c;" horiz-adv-x="504" 
d="M482 0h-87c-6 92 -13 185 -17 277c-1 30 -3 59 -4 89c-1 31 2 62 -3 93c-24 -154 -56 -306 -85 -459h-60c-32 152 -69 304 -88 459l-26 -459h-84l55 667h77l58 -272c3 -16 8 -32 11 -48c10 -54 18 -108 25 -162c2 32 10 63 15 94c4 24 7 49 11 73c3 16 7 31 10 47l52 268
h78z" />
    <glyph glyph-name="afii10031" unicode="&#x41d;" horiz-adv-x="414" 
d="M363 0h-90v330h-132v-330h-90v667h90v-261h132v261h90v-667z" />
    <glyph glyph-name="afii10032" unicode="&#x41e;" horiz-adv-x="423" 
d="M385 333c0 -100 -3 -238 -66 -301c-32 -32 -72 -41 -107 -41c-51 0 -85 18 -108 41c-62 63 -66 200 -66 299c0 102 3 240 66 303c23 23 57 41 108 41c50 0 84 -18 107 -41c62 -62 66 -199 66 -301zM132 317c0 -165 19 -209 37 -227c13 -13 27 -16 43 -16c15 0 29 3 42 16
c18 18 37 62 37 227v50c0 155 -22 197 -37 211c-13 13 -27 16 -42 16c-16 0 -30 -3 -43 -16c-15 -14 -37 -56 -37 -211v-50z" />
    <glyph glyph-name="afii10033" unicode="&#x41f;" horiz-adv-x="404" 
d="M353 0h-90v591h-122v-591h-90v667h302v-667z" />
    <glyph glyph-name="afii10034" unicode="&#x420;" horiz-adv-x="351" 
d="M51 667h118c37 0 65 -1 98 -21c55 -33 66 -106 66 -165c0 -55 -12 -119 -58 -155c-38 -29 -88 -30 -134 -30v-296h-90v667zM141 373h8c73 0 90 40 90 106c0 60 -16 112 -86 112h-12v-218z" />
    <glyph glyph-name="afii10035" unicode="&#x421;" horiz-adv-x="337" 
d="M313 92v-82c-27 -16 -42 -19 -73 -19c-178 0 -202 194 -202 331s17 354 200 354c31 0 48 -5 75 -20v-81c-18 10 -37 17 -58 17c-121 0 -122 -180 -122 -265c0 -87 7 -248 127 -248c20 0 35 4 53 13z" />
    <glyph glyph-name="afii10036" unicode="&#x422;" horiz-adv-x="288" 
d="M290 588h-102v-588h-88v588h-102v79h292v-79z" />
    <glyph glyph-name="afii10037" unicode="&#x423;" horiz-adv-x="359" 
d="M8 667h94l41 -157c15 -59 26 -97 40 -175c6 33 18 100 38 177l40 155h90l-183 -667h-88l61 213z" />
    <glyph glyph-name="afii10038" unicode="&#x424;" horiz-adv-x="526" 
d="M218 0v82c-58 6 -98 33 -121 56c-53 52 -67 131 -67 214c0 126 38 186 68 215c26 25 67 48 120 51v76h90v-76c53 -3 94 -26 120 -51c50 -48 68 -122 68 -210c0 -89 -15 -167 -67 -219c-23 -23 -63 -50 -121 -56v-82h-90zM302 542v-384c26 4 47 16 60 28
c39 37 44 103 44 168c0 50 -5 124 -40 160c-11 12 -33 27 -64 28zM224 158v384c-31 -1 -53 -16 -64 -28c-35 -36 -40 -110 -40 -160c0 -65 5 -131 44 -168c13 -12 34 -24 60 -28z" />
    <glyph glyph-name="afii10039" unicode="&#x425;" horiz-adv-x="332" 
d="M334 0h-90c-28 82 -62 163 -78 249c-4 -36 -16 -69 -27 -103c-15 -49 -30 -97 -46 -146h-95l127 339l-119 328h87c24 -66 70 -175 79 -241c18 82 47 161 72 241h90l-123 -328z" />
    <glyph glyph-name="afii10040" unicode="&#x426;" horiz-adv-x="432" 
d="M51 667h90v-591h128v591h90v-591h59v-206h-86v130h-281v667z" />
    <glyph glyph-name="afii10041" unicode="&#x427;" horiz-adv-x="405" 
d="M354 667v-667h-90v319c-25 -6 -49 -8 -72 -8c-30 0 -68 3 -97 24c-44 31 -50 84 -50 145v187h91v-190c0 -19 1 -52 20 -69c16 -15 43 -15 55 -15c20 0 37 3 53 7v267h90z" />
    <glyph glyph-name="afii10042" unicode="&#x428;" horiz-adv-x="610" 
d="M51 667h88v-591h122v591h88v-591h122v591h88v-667h-508v667z" />
    <glyph glyph-name="afii10043" unicode="&#x429;" horiz-adv-x="640" 
d="M51 667h88v-591h122v591h88v-591h122v591h88v-591h67v-206h-86v130h-489v667z" />
    <glyph glyph-name="afii10044" unicode="&#x42a;" horiz-adv-x="412" 
d="M186 381h13c39 0 95 -3 135 -44s46 -105 46 -152c0 -44 -5 -108 -44 -146c-19 -19 -54 -39 -113 -39h-127v588h-86v79h176v-286zM186 306v-230h4c22 0 51 0 71 19c22 21 25 65 25 93c0 26 -2 74 -28 98c-20 18 -50 20 -69 20h-3z" />
    <glyph glyph-name="afii10045" unicode="&#x42b;" horiz-adv-x="514" 
d="M462 0h-90v667h90v-667zM51 667h90v-285h10c43 0 96 -5 135 -44c40 -41 46 -105 46 -150c0 -47 -6 -111 -44 -149c-19 -19 -54 -39 -113 -39h-124v667zM141 306v-230h4c22 0 51 0 71 19c24 23 25 70 25 92c0 27 -2 75 -28 99c-20 18 -50 20 -69 20h-3z" />
    <glyph glyph-name="afii10046" unicode="&#x42c;" horiz-adv-x="367" 
d="M51 667h90v-285h13c39 0 95 -3 135 -44s46 -105 46 -151s-6 -110 -44 -148c-19 -19 -54 -39 -113 -39h-127v667zM141 306v-230h4c22 0 51 0 71 19c24 23 25 70 25 93c0 26 -2 74 -28 98c-20 18 -50 20 -69 20h-3z" />
    <glyph glyph-name="afii10047" unicode="&#x42d;" horiz-adv-x="369" 
d="M38 22v93c21 -29 53 -37 79 -37c30 0 51 11 65 25c43 42 53 154 53 207h-155v76h154c-1 124 -36 167 -49 180c-20 20 -41 27 -65 27s-52 -8 -82 -41v93c37 28 71 31 99 31c44 0 83 -10 118 -44c69 -67 76 -192 76 -263c0 -110 -12 -265 -84 -335
c-34 -33 -74 -44 -113 -44c-45 0 -74 14 -96 32z" />
    <glyph glyph-name="afii10048" unicode="&#x42e;" horiz-adv-x="597" 
d="M559 333c0 -100 -3 -238 -66 -301c-32 -32 -72 -41 -107 -41c-51 0 -85 18 -108 41c-55 55 -64 163 -64 286v7h-73v-325h-90v667h90v-266h74c0 67 9 179 63 233c23 23 57 41 108 41c50 0 84 -18 107 -41c62 -62 66 -199 66 -301zM306 317c0 -165 19 -209 37 -227
c13 -13 27 -16 43 -16c15 0 29 3 42 16c18 18 37 62 37 227v50c0 155 -22 197 -37 211c-13 13 -27 16 -42 16c-16 0 -30 -3 -43 -16c-15 -14 -37 -56 -37 -211v-50z" />
    <glyph glyph-name="afii10049" unicode="&#x42f;" horiz-adv-x="356" 
d="M20 0l109 309c-31 5 -53 20 -66 33c-33 32 -42 80 -42 135c0 83 23 132 52 158c35 32 76 32 113 32h119v-667h-90v304l-103 -304h-92zM215 593h-24c-17 0 -36 -1 -54 -16c-25 -22 -29 -65 -29 -98c0 -67 24 -89 31 -94c14 -11 40 -16 62 -16h14v224z" />
    <glyph glyph-name="afii10065" unicode="&#x430;" horiz-adv-x="349" 
d="M302 0h-83v57c-17 -38 -36 -64 -82 -64c-106 0 -107 162 -107 236c0 75 2 225 108 225c41 0 63 -23 81 -58v51h83v-447zM222 199v48c0 35 -2 132 -53 132c-52 0 -54 -89 -54 -125v-61c0 -36 2 -126 54 -126c51 0 53 97 53 132z" />
    <glyph glyph-name="afii10066" unicode="&#x431;" horiz-adv-x="353" 
d="M235 192v55c0 77 -14 105 -25 116c-9 9 -19 12 -28 12s-19 -3 -28 -12c-11 -11 -25 -38 -25 -116v-55c0 -24 2 -87 25 -110c9 -9 19 -12 28 -12s19 3 28 12c23 23 25 86 25 110zM219 565l-24 -12c-37 -18 -55 -45 -64 -64c-12 -26 -17 -70 -16 -99c5 16 15 32 26 42
c17 16 37 22 59 22c28 0 52 -9 73 -31c41 -44 48 -119 48 -198c0 -74 -7 -151 -56 -199c-26 -25 -52 -33 -85 -33s-61 8 -86 32c-52 51 -54 151 -54 236c0 52 3 127 9 183c5 45 16 105 59 147c19 19 44 32 70 44c32 14 53 21 65 34c10 11 12 23 12 31h73
c-3 -49 -19 -74 -38 -92c-23 -22 -48 -31 -71 -43z" />
    <glyph glyph-name="afii10067" unicode="&#x432;" horiz-adv-x="331" 
d="M47 447h110c33 0 75 -3 103 -31c20 -20 29 -54 29 -88c0 -13 -2 -49 -22 -72c-9 -10 -25 -21 -45 -24c17 -4 37 -14 51 -28c24 -24 28 -55 28 -79c0 -49 -18 -79 -35 -94c-20 -19 -53 -31 -95 -31h-124v447zM129 260h10c13 0 36 1 52 16c9 8 18 23 18 47
c0 21 -7 36 -17 45c-13 12 -33 13 -49 13h-14v-121zM129 66h15c8 0 33 1 48 12c12 9 21 28 21 54c0 23 -9 44 -22 55c-12 10 -32 15 -51 15h-11v-136z" />
    <glyph glyph-name="afii10068" unicode="&#x433;" horiz-adv-x="261" 
d="M249 374h-120v-374h-82v447h202v-73z" />
    <glyph glyph-name="afii10069" unicode="&#x434;" horiz-adv-x="355" 
d="M68 447h240v-373h39v-178h-74v104h-195v-104h-74v178c13 5 27 13 39 29c20 25 25 56 25 102v242zM226 74v299h-82v-158c0 -45 -4 -70 -10 -87c-6 -19 -17 -37 -33 -54h125z" />
    <glyph glyph-name="afii10070" unicode="&#x435;" horiz-adv-x="326" 
d="M299 207h-188c0 -39 0 -143 57 -143c44 0 51 54 51 87h77c-1 -32 -3 -61 -17 -90c-21 -44 -63 -68 -112 -68c-126 0 -137 133 -137 229c0 93 11 232 135 232c126 0 134 -154 134 -247zM111 267h104c-2 35 -2 117 -52 117c-49 0 -50 -83 -52 -117z" />
    <glyph glyph-name="afii10072" unicode="&#x436;" horiz-adv-x="450" 
d="M446 0h-92l-89 204v-204h-80v204l-89 -204h-92l104 230l-103 217h93l87 -205v205h80v-205l87 205h93l-103 -217z" />
    <glyph glyph-name="afii10073" unicode="&#x437;" horiz-adv-x="293" 
d="M30 339v84c7 6 18 15 35 21c18 7 38 10 59 10c51 0 80 -18 96 -34s32 -43 32 -86c0 -35 -11 -56 -19 -67c-10 -14 -25 -26 -43 -33c18 -6 38 -17 51 -30c15 -16 27 -41 27 -75c0 -40 -14 -78 -41 -103c-31 -29 -67 -33 -98 -33c-28 0 -64 3 -99 28v87c7 -8 20 -19 31 -25
c21 -12 46 -12 50 -12c18 0 38 5 50 17c10 10 17 26 17 45c0 26 -14 41 -25 48c-18 12 -43 12 -59 12h-18v70h18c25 0 46 7 57 18c9 9 15 23 15 40s-7 33 -18 43c-8 7 -21 14 -41 14c-19 0 -35 -5 -47 -13c-10 -6 -21 -16 -30 -26z" />
    <glyph glyph-name="afii10074" unicode="&#x438;" horiz-adv-x="370" 
d="M47 447h82v-223c0 -16 -2 -62 -3 -81c7 28 16 51 25 75l92 229h80v-447h-82v222c0 22 1 53 3 79c-8 -33 -17 -57 -27 -82l-90 -219h-80v447z" />
    <glyph glyph-name="afii10075" unicode="&#x439;" horiz-adv-x="370" 
d="M47 447h82v-223c0 -16 -2 -62 -3 -81c7 28 16 51 25 75l92 229h80v-447h-82v222c0 22 1 53 3 79c-8 -33 -17 -57 -27 -82l-90 -219h-80v447zM242 617l69 -24c-2 -6 -14 -42 -44 -65c-20 -15 -49 -23 -82 -23s-62 8 -82 23c-30 23 -42 59 -44 65l69 24
c3 -12 10 -25 19 -33c8 -7 21 -12 38 -12s30 5 38 12c9 8 16 21 19 33z" />
    <glyph glyph-name="afii10076" unicode="&#x43a;" horiz-adv-x="338" 
d="M334 0h-96l-109 203v-203h-82v447h82v-203l105 203h97l-122 -217z" />
    <glyph glyph-name="afii10077" unicode="&#x43b;" horiz-adv-x="373" 
d="M326 447v-447h-82v373h-90v-176c0 -67 -2 -142 -42 -179c-22 -21 -48 -24 -69 -24c-15 0 -26 2 -39 6v78c8 -5 16 -8 26 -8c9 0 18 2 27 11c18 18 19 54 19 108v258h250z" />
    <glyph glyph-name="afii10078" unicode="&#x43c;" horiz-adv-x="426" 
d="M243 0h-60l-39 157c-13 54 -23 106 -31 158c0 -61 -3 -106 -6 -154l-11 -161h-78l47 446h80l39 -184c7 -34 12 -56 29 -137c17 81 22 103 29 137l39 184h80l47 -446h-78l-11 161c-3 48 -6 93 -6 154c-8 -52 -18 -104 -31 -158z" />
    <glyph glyph-name="afii10079" unicode="&#x43d;" horiz-adv-x="358" 
d="M129 447v-171h100v171h82v-447h-82v202h-100v-202h-82v447h82z" />
    <glyph glyph-name="afii10080" unicode="&#x43e;" horiz-adv-x="341" 
d="M225 192v59c0 78 -14 105 -25 116c-9 9 -19 12 -28 12s-19 -3 -28 -12c-11 -11 -25 -38 -25 -116v-59c0 -24 2 -87 25 -110c9 -9 19 -12 28 -12s19 3 28 12c23 23 25 86 25 110zM311 223c0 -66 -4 -150 -55 -198c-25 -24 -53 -32 -85 -32c-33 0 -61 8 -86 32
c-51 48 -55 132 -55 198c0 67 4 151 55 199c25 24 53 32 86 32c32 0 60 -8 85 -32c51 -48 55 -132 55 -199z" />
    <glyph glyph-name="afii10081" unicode="&#x43f;" horiz-adv-x="352" 
d="M47 0v447h258v-447h-82v373h-94v-373h-82z" />
    <glyph glyph-name="afii10082" unicode="&#x440;" horiz-adv-x="349" 
d="M129 447v-58c17 38 37 65 83 65c106 0 107 -162 107 -236c0 -77 -2 -225 -110 -225c-42 0 -62 22 -80 57v-238h-82v635h82zM233 193v61c0 36 -2 125 -54 125c-50 0 -52 -98 -52 -133v-46c0 -35 2 -133 52 -133c52 0 54 90 54 126z" />
    <glyph glyph-name="afii10083" unicode="&#x441;" horiz-adv-x="253" 
d="M229 88v-77c-24 -14 -39 -18 -66 -18c-119 0 -133 138 -133 228c0 93 11 233 135 233c26 0 41 -4 64 -16v-84c-11 14 -23 21 -41 21c-67 0 -68 -101 -68 -148c0 -46 2 -156 67 -156c17 0 29 6 42 17z" />
    <glyph glyph-name="afii10084" unicode="&#x442;" horiz-adv-x="262" 
d="M254 374h-82v-374h-82v374h-82v73h246v-73z" />
    <glyph glyph-name="afii10085" unicode="&#x443;" horiz-adv-x="326" 
d="M323 447l-185 -635h-87l71 224l-119 411h94l65 -312l77 312h84z" />
    <glyph glyph-name="afii10086" unicode="&#x444;" horiz-adv-x="458" 
d="M188 -188v184c-50 4 -86 27 -107 49c-30 32 -53 86 -53 177c0 98 23 151 53 181c25 25 63 44 107 48v216h82v-216c44 -4 82 -23 107 -48c29 -30 53 -82 53 -180c0 -61 -9 -132 -53 -178c-21 -22 -57 -45 -107 -49v-184h-82zM264 377v-307c22 0 41 9 53 20
c33 31 35 109 35 135c0 43 -6 104 -34 131c-13 12 -32 21 -54 21zM194 70v307c-22 0 -41 -9 -54 -21c-28 -27 -34 -88 -34 -133c0 -40 6 -105 35 -133c12 -11 31 -20 53 -20z" />
    <glyph glyph-name="afii10087" unicode="&#x445;" horiz-adv-x="332" 
d="M329 0h-99c-20 44 -67 138 -73 181c-7 -53 -46 -131 -67 -181h-87l112 236l-112 211h98c23 -50 48 -100 63 -153c12 53 36 103 57 153h87l-101 -211z" />
    <glyph glyph-name="afii10088" unicode="&#x446;" horiz-adv-x="367" 
d="M47 447h82v-373h98v373h82v-373h48v-178h-76v104h-234v447z" />
    <glyph glyph-name="afii10089" unicode="&#x447;" horiz-adv-x="337" 
d="M208 0v195c-20 -7 -41 -11 -66 -11c-18 0 -56 2 -82 27c-29 27 -30 65 -30 96v140h80v-131c0 -15 1 -34 13 -46c11 -11 28 -12 39 -12c15 0 29 1 46 9v180h82v-447h-82z" />
    <glyph glyph-name="afii10090" unicode="&#x448;" horiz-adv-x="532" 
d="M47 447h82v-373h96v373h82v-373h96v373h82v-447h-438v447z" />
    <glyph glyph-name="afii10091" unicode="&#x449;" horiz-adv-x="543" 
d="M47 447h82v-373h96v373h82v-373h96v373h82v-373h48v-178h-76v104h-410v447z" />
    <glyph glyph-name="afii10092" unicode="&#x44a;" horiz-adv-x="357" 
d="M160 276h16c29 0 84 -2 121 -40c31 -31 35 -72 35 -104c0 -33 -6 -72 -36 -100c-31 -29 -72 -32 -105 -32h-113v374h-68v73h150v-171zM160 70h20c12 0 35 0 50 14c11 11 16 29 16 50c0 24 -7 43 -18 54s-31 18 -58 18h-10v-136z" />
    <glyph glyph-name="afii10093" unicode="&#x44b;" horiz-adv-x="460" 
d="M413 0h-82v447h82v-447zM129 447v-171h14c29 0 84 -2 121 -40c31 -31 35 -70 35 -102c0 -27 -4 -72 -36 -102c-31 -29 -73 -32 -105 -32h-111v447h82zM129 70h20c12 0 35 0 50 14c7 7 16 22 16 50c0 29 -9 45 -18 54c-11 11 -31 18 -58 18h-10v-136z" />
    <glyph glyph-name="afii10094" unicode="&#x44c;" horiz-adv-x="326" 
d="M129 447v-171h16c29 0 84 -2 121 -40c31 -31 35 -70 35 -102c0 -27 -4 -72 -36 -102c-31 -29 -73 -32 -105 -32h-113v447h82zM129 70h20c12 0 35 0 50 14c7 7 16 22 16 50c0 29 -9 45 -18 54c-11 11 -31 18 -58 18h-10v-136z" />
    <glyph glyph-name="afii10095" unicode="&#x44d;" horiz-adv-x="297" 
d="M36 15v87c6 -7 16 -16 24 -21c14 -9 27 -10 40 -10c17 0 31 3 45 16c26 24 32 74 32 105h-109v74h108c-1 31 -10 70 -31 91c-13 13 -28 18 -46 18s-32 -7 -41 -13c-8 -6 -16 -14 -22 -21v89c13 10 37 24 80 24c38 0 69 -9 96 -37c46 -48 55 -132 55 -186
c0 -62 -8 -155 -58 -204c-29 -28 -59 -34 -94 -34c-22 0 -50 1 -79 22z" />
    <glyph glyph-name="afii10096" unicode="&#x44e;" horiz-adv-x="492" 
d="M376 192v59c0 78 -14 105 -25 116c-9 9 -19 12 -28 12s-19 -3 -28 -12c-11 -11 -25 -38 -25 -116v-59c0 -16 1 -85 25 -110c6 -7 16 -12 28 -12c9 0 19 3 28 12c23 23 25 86 25 110zM462 223c0 -66 -4 -149 -55 -198c-29 -27 -59 -32 -88 -32c-28 0 -57 5 -84 32
c-47 47 -51 137 -51 171h-55v-196h-82v447h82v-177h57c0 36 6 109 51 152c25 24 51 32 84 32s61 -8 86 -32c51 -48 55 -132 55 -199z" />
    <glyph glyph-name="afii10097" unicode="&#x44f;" horiz-adv-x="323" 
d="M20 0l88 179c-24 5 -45 18 -59 34c-22 26 -25 61 -25 85c0 49 14 87 37 111c34 35 82 38 119 38h96v-447h-82v183l-83 -183h-91zM194 236v139h-18c-12 0 -34 -1 -49 -16c-10 -9 -19 -26 -19 -56c0 -16 2 -38 19 -52c10 -8 25 -15 50 -15h17z" />
    <glyph glyph-name="afii10071" unicode="&#x451;" horiz-adv-x="326" 
d="M299 207h-188c0 -39 0 -143 57 -143c44 0 51 54 51 87h77c-1 -32 -3 -61 -17 -90c-21 -44 -63 -68 -112 -68c-126 0 -137 133 -137 229c0 93 11 232 135 232c126 0 134 -154 134 -247zM111 267h104c-2 35 -2 117 -52 117c-49 0 -50 -83 -52 -117zM287 563
c0 -28 -22 -50 -50 -50s-50 22 -50 50s22 50 50 50s50 -22 50 -50zM139 563c0 -28 -22 -50 -50 -50s-50 22 -50 50s22 50 50 50s50 -22 50 -50z" />
    <glyph glyph-name="afii10099" unicode="&#x452;" horiz-adv-x="371" 
d="M60 729h82v-144h106v-64h-106v-150c9 15 23 32 34 41c12 9 30 18 59 18c32 0 50 -12 59 -20c28 -26 30 -74 30 -104v-350c0 -39 -3 -86 -36 -117c-14 -13 -38 -27 -75 -27c-17 0 -35 4 -52 10v77c7 -5 18 -10 34 -10c15 0 25 5 31 10c16 14 16 38 16 66v320
c0 24 0 56 -17 72c-6 5 -15 11 -31 11c-17 0 -28 -7 -34 -13c-18 -19 -18 -60 -18 -80v-275h-82v521h-50v64h50v144z" />
    <glyph glyph-name="afii10100" unicode="&#x453;" horiz-adv-x="261" 
d="M249 374h-120v-374h-82v447h202v-73zM101 541l86 129l68 -42l-107 -115z" />
    <glyph glyph-name="afii10101" unicode="&#x454;" horiz-adv-x="297" 
d="M261 102v-87c-29 -21 -57 -22 -79 -22c-35 0 -65 6 -94 34c-45 44 -58 121 -58 196c0 97 21 159 55 194c27 28 59 37 94 37c41 0 66 -12 82 -24v-89c-6 7 -14 15 -22 21c-12 8 -26 13 -42 13c-17 0 -32 -5 -45 -18c-21 -21 -30 -60 -31 -91h108v-74h-109
c0 -31 6 -81 32 -105c14 -13 28 -16 45 -16c13 0 26 1 40 10c8 5 18 14 24 21z" />
    <glyph glyph-name="afii10102" unicode="&#x455;" horiz-adv-x="260" 
d="M219 438v-77c-18 14 -40 22 -63 22c-28 0 -53 -21 -53 -50c0 -73 138 -81 138 -208c0 -78 -49 -132 -128 -132c-31 0 -46 5 -73 21v80c21 -16 41 -27 68 -27c35 0 57 20 57 56c0 81 -140 90 -140 212c0 71 48 122 120 122c28 0 50 -6 74 -19z" />
    <glyph glyph-name="afii10103" unicode="&#x456;" horiz-adv-x="176" 
d="M140 581c0 -30 -25 -56 -55 -56c-31 0 -56 25 -56 56s25 56 56 56c30 0 55 -26 55 -56zM129 0h-82v447h82v-447z" />
    <glyph glyph-name="afii10104" unicode="&#x457;" horiz-adv-x="176" 
d="M129 0h-82v447h82v-447zM166 587c0 -28 -14 -50 -33 -50s-34 22 -34 50s15 50 34 50s33 -22 33 -50zM77 587c0 -28 -14 -50 -33 -50s-34 22 -34 50s15 50 34 50s33 -22 33 -50z" />
    <glyph glyph-name="afii10105" unicode="&#x458;" horiz-adv-x="176" 
d="M140 581c0 -30 -25 -56 -55 -56c-31 0 -56 25 -56 56s25 56 56 56c30 0 55 -26 55 -56zM129 -188h-82v635h82v-635z" />
    <glyph glyph-name="afii10106" unicode="&#x459;" horiz-adv-x="523" 
d="M326 276h16c29 0 84 -2 121 -40c31 -31 35 -71 35 -99c0 -30 -4 -75 -36 -105c-31 -29 -73 -32 -105 -32h-113v373h-90v-176c0 -67 -2 -142 -42 -179c-22 -21 -48 -24 -69 -24c-15 0 -26 2 -39 6v78c8 -5 16 -8 26 -8c9 0 18 2 27 11c18 18 19 54 19 108v258h250v-171z
M326 70h20c12 0 35 0 50 14c7 7 16 22 16 50c0 29 -9 45 -18 54c-11 11 -31 18 -58 18h-10v-136z" />
    <glyph glyph-name="afii10107" unicode="&#x45a;" horiz-adv-x="508" 
d="M311 447v-171h16c29 0 84 -2 121 -40c31 -31 35 -70 35 -102c0 -27 -4 -72 -36 -102c-31 -29 -73 -32 -105 -32h-113v206h-100v-206h-82v447h82v-171h100v171h82zM311 70h20c12 0 35 0 50 14c7 7 16 22 16 50c0 29 -9 45 -18 54c-11 11 -31 18 -58 18h-10v-136z" />
    <glyph glyph-name="afii10108" unicode="&#x45b;" horiz-adv-x="371" 
d="M324 0h-82v275c0 34 -1 83 -47 83c-53 0 -53 -55 -53 -93v-265h-82v521h-50v64h50v144h82v-144h106v-64h-106v-150c23 37 46 59 92 59c77 0 90 -61 90 -124v-306z" />
    <glyph glyph-name="afii10109" unicode="&#x45c;" horiz-adv-x="338" 
d="M334 0h-96l-109 203v-203h-82v447h82v-203l105 203h97l-122 -217zM131 541l86 129l68 -42l-107 -115z" />
    <glyph glyph-name="afii10110" unicode="&#x45e;" horiz-adv-x="326" 
d="M323 447l-185 -635h-87l71 224l-119 411h94l65 -312l77 312h84zM225 617l69 -24c-2 -6 -14 -42 -44 -65c-20 -15 -49 -23 -82 -23s-62 8 -82 23c-30 23 -42 59 -44 65l69 24c3 -12 10 -25 19 -33c8 -7 21 -12 38 -12s30 5 38 12c9 8 16 21 19 33z" />
    <glyph glyph-name="afii10193" unicode="&#x45f;" horiz-adv-x="356" 
d="M47 447h82v-373h98v373h82v-447h-93v-104h-76v104h-93v447z" />
    <glyph glyph-name="afii10146" unicode="&#x462;" horiz-adv-x="403" 
d="M87 0v524h-72v75h72v95h90v-95h111v-75h-111v-142h13c39 0 95 -3 135 -44s46 -105 46 -151s-6 -110 -44 -148c-19 -19 -54 -39 -113 -39h-127zM177 306v-230h4c22 0 51 0 71 19c24 23 25 70 25 93c0 26 -2 74 -28 98c-20 18 -50 20 -72 20z" />
    <glyph glyph-name="afii10194" unicode="&#x463;" horiz-adv-x="345" 
d="M66 0v379h-56v68h56v220h82v-220h88v-68h-88v-103h16c29 0 84 -2 121 -40c31 -31 35 -70 35 -102c0 -27 -4 -72 -36 -102c-31 -29 -73 -32 -105 -32h-113zM148 70h20c12 0 35 0 50 14c7 7 16 22 16 50c0 29 -9 45 -18 54c-11 11 -31 18 -58 18h-10v-136z" />
    <glyph glyph-name="afii10147" unicode="&#x472;" horiz-adv-x="423" 
d="M385 330c0 -127 -10 -242 -66 -298c-32 -32 -72 -41 -107 -41c-51 0 -85 18 -108 41c-62 62 -66 200 -66 299c0 108 5 241 66 303c23 23 57 41 108 41c35 0 75 -9 107 -41c54 -55 66 -164 66 -304zM132 386h159c1 51 -7 162 -37 192c-13 13 -28 16 -42 16
c-16 0 -30 -3 -43 -16c-35 -34 -37 -156 -37 -192zM291 310h-159c-1 -77 3 -186 37 -220c13 -13 27 -16 43 -16c14 0 29 3 42 16c7 7 39 43 37 220z" />
    <glyph glyph-name="afii10195" unicode="&#x473;" horiz-adv-x="341" 
d="M118 192c0 -24 4 -87 26 -110c10 -11 22 -12 28 -12c10 0 21 4 28 11c21 19 26 87 26 111h-108zM118 266h108c-4 72 -18 93 -26 101c-9 9 -19 12 -28 12s-19 -3 -28 -12c-19 -19 -24 -68 -26 -101zM311 223c0 -66 -4 -149 -55 -198c-25 -24 -53 -32 -85 -32
c-33 0 -61 8 -86 32c-45 43 -55 114 -55 195c0 73 6 155 55 202c25 24 53 32 86 32c32 0 60 -8 85 -32c53 -50 55 -137 55 -199z" />
    <glyph glyph-name="afii10148" unicode="&#x474;" horiz-adv-x="327" 
d="M329 667l-131 -667h-71l-129 667h89c21 -129 42 -258 61 -388c6 -38 12 -76 16 -114c2 36 9 72 15 108c8 49 14 99 23 148l43 246h84z" />
    <glyph glyph-name="afii10196" unicode="&#x475;" horiz-adv-x="300" 
d="M297 447l-117 -447h-56l-121 447h89c25 -112 52 -223 60 -338c7 27 9 55 13 82c13 86 34 171 52 256h80z" />
    <glyph glyph-name="afii10050" unicode="&#x490;" horiz-adv-x="341" 
d="M51 667l186 1v125h86v-202h-182v-591h-90v667z" />
    <glyph glyph-name="afii10098" unicode="&#x491;" horiz-adv-x="284" 
d="M47 0v447h149v100h76v-173h-143v-374h-82z" />
    <glyph glyph-name="uni0492" unicode="&#x492;" horiz-adv-x="323" 
d="M305 591h-150v-211h126v-76h-126v-304h-90v304h-50v76h50v287h240v-76z" />
    <glyph glyph-name="uni0493" unicode="&#x493;" horiz-adv-x="268" 
d="M256 374h-120v-122h93v-73h-93v-179h-82v179h-44v73h44v195h202v-73z" />
    <glyph glyph-name="uni0494" unicode="&#x494;" horiz-adv-x="396" 
d="M291 591h-150v-202c20 10 42 17 71 17c47 0 84 -17 109 -41c37 -36 55 -98 55 -166c0 -51 -10 -136 -57 -180c-26 -24 -53 -28 -79 -28c-24 0 -46 4 -70 14l20 87c11 -11 26 -18 40 -18c15 0 27 7 35 20c14 22 17 65 17 94c0 26 -2 84 -34 115c-13 13 -29 20 -50 20
c-13 0 -35 -3 -57 -19v-304h-90v667h240v-76z" />
    <glyph glyph-name="uni0495" unicode="&#x495;" horiz-adv-x="321" 
d="M249 374h-120v-106h6c34 0 80 -5 115 -41c42 -43 46 -115 46 -169c0 -67 -10 -146 -61 -196c-27 -27 -68 -47 -115 -50v86c21 2 38 11 49 22c34 32 39 96 39 136c0 41 -3 97 -30 120c-9 8 -25 15 -49 15v-191h-82v447h202v-73z" />
    <glyph glyph-name="uni0496" unicode="&#x496;" horiz-adv-x="546" 
d="M379 344l103 -268h59v-206h-86v130h-37l-116 329v-329h-88v329l-116 -329h-93l132 344l-126 323h87l116 -308v308h88v-308l116 308h87z" />
    <glyph glyph-name="uni0497" unicode="&#x497;" horiz-adv-x="466" 
d="M5 447h93l87 -205v205h80v-205l87 205h93l-103 -217l72 -156h48v-178h-76v104h-32l-89 204v-204h-80v204l-89 -204h-92l104 230z" />
    <glyph glyph-name="uni0498" unicode="&#x498;" horiz-adv-x="355" 
d="M96 383h10c15 0 52 1 77 23c24 21 28 53 28 78c0 33 -7 64 -25 84c-11 12 -29 24 -59 24c-42 0 -69 -25 -85 -45v93c35 28 70 35 103 35c32 0 74 -6 107 -37c24 -23 49 -67 49 -142c0 -33 -4 -81 -36 -115c-14 -15 -29 -24 -47 -28c28 -4 48 -18 61 -31
c25 -25 42 -66 42 -124c0 -48 -12 -104 -39 -143c-29 -42 -64 -54 -90 -59v-126h-86v125c-24 3 -47 12 -68 31v94c18 -20 49 -43 94 -43c31 0 52 11 65 23c28 26 31 67 31 94c0 25 -3 66 -30 90c-24 22 -59 23 -81 23h-21v76z" />
    <glyph glyph-name="uni0499" unicode="&#x499;" horiz-adv-x="293" 
d="M30 339v84c7 6 18 15 35 21c18 7 38 10 59 10c51 0 80 -18 96 -34s32 -43 32 -86c0 -35 -11 -56 -19 -67c-10 -14 -25 -26 -43 -33c18 -6 38 -17 51 -30c15 -16 27 -41 27 -76c0 -47 -18 -80 -41 -102c-19 -19 -40 -27 -63 -30v-100h-76v101c-22 2 -41 10 -58 24v87
c8 -8 20 -19 31 -25c14 -8 29 -12 47 -12c25 0 43 7 53 17s17 26 17 45c0 26 -14 41 -25 48c-18 12 -43 12 -59 12h-18v70h18c25 0 46 7 57 18c9 9 15 23 15 40s-7 33 -18 43c-8 7 -21 14 -41 14c-19 0 -35 -5 -47 -13c-10 -6 -21 -16 -30 -26z" />
    <glyph glyph-name="uni049A" unicode="&#x49a;" horiz-adv-x="397" 
d="M51 667h90v-306l125 306h91l-135 -323l114 -268h59v-206h-86v130h-43l-125 327v-327h-90v667z" />
    <glyph glyph-name="uni049B" unicode="&#x49b;" horiz-adv-x="346" 
d="M47 447h82v-203l105 203h97l-122 -217l85 -156h48v-178h-76v104h-28l-109 203v-203h-82v447z" />
    <glyph glyph-name="uni049C" unicode="&#x49c;" horiz-adv-x="464" 
d="M141 324v-324h-90v667h90v-267h40v143h63v-173l115 297h92l-123 -308l131 -359h-98l-117 338v-175h-63v161h-40z" />
    <glyph glyph-name="uni049D" unicode="&#x49d;" horiz-adv-x="392" 
d="M129 204v-204h-82v447h82v-173h30v113h60v-129l74 189h93l-93 -208l95 -239h-92l-77 211v-128h-60v121h-30z" />
    <glyph glyph-name="uni04A0" unicode="&#x4a0;" horiz-adv-x="440" 
d="M435 0h-101l-125 327v-327h-90v591h-114v76h204v-306l125 306h91l-135 -323z" />
    <glyph glyph-name="uni04A1" unicode="&#x4a1;" horiz-adv-x="396" 
d="M392 0h-96l-109 203v-203h-82v374h-100v73h182v-203l105 203h97l-122 -217z" />
    <glyph glyph-name="uni04A2" unicode="&#x4a2;" horiz-adv-x="436" 
d="M51 667h90v-261h132v261h90v-591h59v-206h-86v130h-63v330h-132v-330h-90v667z" />
    <glyph glyph-name="uni04A3" unicode="&#x4a3;" horiz-adv-x="369" 
d="M129 447v-171h100v171h82v-373h48v-178h-76v104h-54v202h-100v-202h-82v447h82z" />
    <glyph glyph-name="uni04A4" unicode="&#x4a4;" horiz-adv-x="504" 
d="M51 667h90v-261h132v261h221v-76h-131v-591h-90v330h-132v-330h-90v667z" />
    <glyph glyph-name="uni04A5" unicode="&#x4a5;" horiz-adv-x="414" 
d="M129 447v-171h100v171h180v-73h-98v-374h-82v202h-100v-202h-82v447h82z" />
    <glyph glyph-name="uni04AA" unicode="&#x4aa;" horiz-adv-x="337" 
d="M313 92v-82c-10 -7 -20 -12 -31 -14v-126h-86v126c-27 5 -53 17 -78 41c-70 68 -80 186 -80 285c0 112 14 241 78 306c32 32 72 48 122 48c21 0 43 -2 75 -20v-81c-27 15 -44 17 -58 17c-28 0 -50 -8 -70 -30c-38 -41 -52 -117 -52 -235c0 -70 6 -169 51 -216
c20 -21 48 -32 76 -32c30 0 46 9 53 13z" />
    <glyph glyph-name="uni04AB" unicode="&#x4ab;" horiz-adv-x="253" 
d="M229 88v-77c-9 -6 -19 -11 -32 -14v-101h-76v105c-18 6 -34 16 -50 36c-33 43 -41 108 -41 192c0 64 6 147 51 192c26 26 56 33 87 33c18 0 37 -3 61 -16v-84c-11 16 -28 21 -41 21c-12 0 -27 -3 -40 -18c-28 -31 -28 -96 -28 -130c0 -53 3 -113 33 -142
c12 -12 25 -14 34 -14c8 0 27 2 42 17z" />
    <glyph glyph-name="uni04AE" unicode="&#x4ae;" horiz-adv-x="341" 
d="M343 667l-116 -380v-287h-90v287l-139 380h95l54 -179c13 -43 23 -76 33 -130c5 30 18 98 26 132l44 177h93z" />
    <glyph glyph-name="uni04AF" unicode="&#x4af;" horiz-adv-x="324" 
d="M3 447h88l71 -283l71 283h88l-120 -390v-245h-78v245z" />
    <glyph glyph-name="uni04B0" unicode="&#x4b0;" horiz-adv-x="341" 
d="M343 667l-116 -380v-27h93v-70h-93v-190h-90v190h-93v70h93v27l-139 380h95l54 -179c19 -63 27 -92 34 -130c7 45 14 83 24 127c14 64 21 87 31 126l14 56h93z" />
    <glyph glyph-name="uni04B1" unicode="&#x4b1;" horiz-adv-x="324" 
d="M3 447h88l71 -265l71 265h88l-120 -364v-19h92v-64h-92v-188h-78v188h-92v64h92v19z" />
    <glyph glyph-name="uni04B2" unicode="&#x4b2;" horiz-adv-x="363" 
d="M93 667c24 -66 70 -175 79 -241c18 82 47 161 72 241h90l-123 -328l95 -263h53v-206h-86v130h-29c-28 82 -62 163 -78 249c-4 -36 -16 -69 -27 -103c-15 -49 -30 -97 -46 -146h-95l127 339l-119 328h87z" />
    <glyph glyph-name="uni04B3" unicode="&#x4b3;" horiz-adv-x="339" 
d="M3 447h98c23 -50 48 -100 63 -153c12 53 36 103 57 153h87l-101 -211l81 -162h48v-178h-76v104h-33c-17 44 -64 138 -70 181c-7 -53 -46 -131 -67 -181h-87l112 236z" />
    <glyph glyph-name="uni04B6" unicode="&#x4b6;" horiz-adv-x="427" 
d="M354 667v-591h59v-206h-86v130h-63v319c-25 -6 -49 -8 -72 -8c-30 0 -68 3 -97 24c-44 31 -50 84 -50 145v187h91v-190c0 -19 1 -52 20 -69c16 -15 43 -15 55 -15c20 0 37 3 53 7v267h90z" />
    <glyph glyph-name="uni04B7" unicode="&#x4b7;" horiz-adv-x="348" 
d="M262 0h-54v195c-20 -7 -41 -11 -66 -11c-18 0 -56 2 -82 27c-29 27 -30 65 -30 96v140h80v-131c0 -15 1 -34 13 -46c11 -11 28 -12 39 -12c15 0 29 1 46 9v180h82v-373h48v-178h-76v104z" />
    <glyph glyph-name="uni04B8" unicode="&#x4b8;" horiz-adv-x="429" 
d="M378 667v-667h-90v319c-12 -3 -25 -5 -40 -6v-142h-63v140c-26 0 -62 7 -86 22c-51 33 -54 100 -54 147v187h91v-197c0 -40 9 -54 13 -59c7 -9 21 -16 36 -16v148h63v-150c15 0 28 3 40 7v267h90z" />
    <glyph glyph-name="uni04B9" unicode="&#x4b9;" horiz-adv-x="367" 
d="M238 0v195c-10 -4 -20 -7 -30 -8v-96h-60v94c-35 -3 -70 10 -90 30c-26 26 -28 61 -28 91v141h80v-138c0 -16 4 -34 13 -42c6 -5 17 -8 25 -9v133h60v-132c10 1 20 3 30 8v180h82v-447h-82z" />
    <glyph glyph-name="uni04BA" unicode="&#x4ba;" horiz-adv-x="404" 
d="M51 0v667h90v-271c20 6 44 10 72 10c21 0 64 -2 98 -25c45 -30 53 -73 53 -135v-246h-91v240c0 21 -1 49 -18 66c-13 13 -36 18 -57 18c-19 0 -39 -4 -57 -9v-315h-90z" />
    <glyph glyph-name="uni04BB" unicode="&#x4bb;" horiz-adv-x="358" 
d="M311 0h-82v298c-1 35 -2 84 -48 84c-52 0 -52 -55 -52 -93v-289h-82v729h82v-334c23 37 46 59 92 59c77 0 90 -61 90 -124v-330z" />
    <glyph glyph-name="uni04C0" unicode="&#x4c0;" horiz-adv-x="176" 
d="M129 0h-82v667h82v-667z" />
    <glyph glyph-name="uni04C1" unicode="&#x4c1;" horiz-adv-x="516" 
d="M511 0h-93l-116 329v-329h-88v329l-116 -329h-93l132 344l-126 323h87l116 -308v308h88v-308l116 308h87l-126 -323zM322 827l75 -30c-10 -30 -29 -54 -50 -68c-29 -20 -61 -23 -89 -23s-60 3 -89 23c-21 14 -40 38 -50 68l75 30c3 -12 11 -29 21 -38
c13 -12 30 -14 43 -14c15 0 30 2 43 14c10 9 18 24 21 38z" />
    <glyph glyph-name="uni04C2" unicode="&#x4c2;" horiz-adv-x="450" 
d="M446 0h-92l-89 204v-204h-80v204l-89 -204h-92l104 230l-103 217h93l87 -205v205h80v-205l87 205h93l-103 -217zM282 617l69 -24c-2 -6 -14 -42 -44 -65c-20 -15 -49 -23 -82 -23s-62 8 -82 23c-30 23 -42 59 -44 65l69 24c3 -12 10 -25 19 -33c8 -7 21 -12 38 -12
s30 5 38 12c9 8 16 21 19 33z" />
    <glyph glyph-name="uni04C3" unicode="&#x4c3;" horiz-adv-x="402" 
d="M51 667h90v-323l125 323h91l-115 -280c31 -5 59 -20 78 -40c46 -49 50 -136 50 -181v-88c0 -122 -24 -178 -54 -207c-23 -22 -51 -31 -83 -31c-25 0 -47 6 -65 14l20 87c9 -9 24 -18 38 -18c13 0 25 5 35 20c12 18 19 47 19 122v93c0 48 0 104 -33 135
c-12 11 -31 20 -53 20c-16 0 -36 -5 -53 -13v-300h-90v667z" />
    <glyph glyph-name="uni04C4" unicode="&#x4c4;" horiz-adv-x="335" 
d="M47 447h82v-217l105 217h97l-116 -202c21 -7 37 -18 48 -29c34 -34 42 -84 42 -147c0 -79 -12 -158 -61 -207c-27 -27 -68 -47 -115 -50v86c21 2 38 11 49 22c34 31 39 91 39 149c0 32 -3 80 -29 104c-19 17 -43 18 -59 18v-191h-82v447z" />
    <glyph glyph-name="uni04C7" unicode="&#x4c7;" horiz-adv-x="414" 
d="M51 667h90v-261h132v261h90v-697c0 -27 -1 -54 -10 -80c-19 -54 -67 -78 -122 -78c-27 0 -53 5 -77 18v90c19 -11 38 -22 60 -22c59 0 59 58 59 103v329h-132v-330h-90v667z" />
    <glyph glyph-name="uni04C8" unicode="&#x4c8;" horiz-adv-x="358" 
d="M129 447v-171h100v171h82v-491c0 -39 -3 -86 -36 -117c-14 -13 -38 -27 -75 -27c-17 0 -35 4 -52 10v77c7 -5 18 -10 34 -10c15 0 25 5 31 10c16 14 16 38 16 66v237h-100v-202h-82v447h82z" />
    <glyph glyph-name="uni04D0" unicode="&#x4d0;" horiz-adv-x="360" 
d="M359 0h-89l-25 130h-132l-25 -130h-87l145 667h71zM126 199h106c-20 112 -40 225 -52 338c-11 -114 -33 -226 -54 -338zM244 827l75 -30c-10 -30 -29 -54 -50 -68c-29 -20 -61 -23 -89 -23s-60 3 -89 23c-21 14 -40 38 -50 68l75 30c3 -12 11 -29 21 -38
c13 -12 30 -14 43 -14c15 0 30 2 43 14c10 9 18 24 21 38z" />
    <glyph glyph-name="uni04D1" unicode="&#x4d1;" horiz-adv-x="349" 
d="M302 0h-83v57c-17 -38 -36 -64 -82 -64c-106 0 -107 162 -107 236c0 75 2 225 108 225c41 0 63 -23 81 -58v51h83v-447zM222 199v48c0 35 -2 132 -53 132c-52 0 -54 -89 -54 -125v-61c0 -36 2 -126 54 -126c51 0 53 97 53 132zM231 617l69 -24c-2 -6 -14 -42 -44 -65
c-20 -15 -49 -23 -82 -23s-62 8 -82 23c-30 23 -42 59 -44 65l69 24c3 -12 10 -25 19 -33c8 -7 21 -12 38 -12s30 5 38 12c9 8 16 21 19 33z" />
    <glyph glyph-name="uni04D2" unicode="&#x4d2;" horiz-adv-x="360" 
d="M359 0h-89l-25 130h-132l-25 -130h-87l145 667h71zM126 199h106c-20 112 -40 225 -52 338c-11 -114 -33 -226 -54 -338zM299 771c0 -28 -22 -50 -50 -50s-50 22 -50 50s22 50 50 50s50 -22 50 -50zM151 771c0 -28 -22 -50 -50 -50s-50 22 -50 50s22 50 50 50
s50 -22 50 -50z" />
    <glyph glyph-name="uni04D3" unicode="&#x4d3;" horiz-adv-x="349" 
d="M302 0h-83v57c-17 -38 -36 -64 -82 -64c-106 0 -107 162 -107 236c0 75 2 225 108 225c41 0 63 -23 81 -58v51h83v-447zM222 199v48c0 35 -2 132 -53 132c-52 0 -54 -89 -54 -125v-61c0 -36 2 -126 54 -126c51 0 53 97 53 132zM294 563c0 -28 -22 -50 -50 -50
s-50 22 -50 50s22 50 50 50s50 -22 50 -50zM146 563c0 -28 -22 -50 -50 -50s-50 22 -50 50s22 50 50 50s50 -22 50 -50z" />
    <glyph glyph-name="uni04D4" unicode="&#x4d4;" horiz-adv-x="511" 
d="M510 0h-232l-27 131h-138l-24 -131h-88l142 667h221l17 -76h-145l45 -212h132l18 -76h-132l51 -227h142zM239 199l-32 151c-13 63 -20 126 -27 190c-3 -48 -11 -96 -18 -143c-10 -66 -22 -132 -36 -198h113z" />
    <glyph glyph-name="uni04D5" unicode="&#x4d5;" horiz-adv-x="505" 
d="M396 153h79c-5 -86 -29 -160 -129 -160c-53 0 -86 21 -106 70c-21 -48 -47 -70 -101 -70c-86 0 -109 71 -109 144c0 72 24 151 110 151c27 0 52 -8 70 -29c-3 59 4 115 -74 115c-32 0 -57 -9 -84 -26v84c33 15 53 22 90 22c48 0 82 -14 106 -57c23 39 50 57 96 57
c127 0 131 -156 131 -248h-184v-18c0 -40 1 -127 57 -127c45 0 48 59 48 92zM392 266v20c0 33 -5 100 -50 100s-50 -67 -50 -99v-21h100zM216 142c0 35 -8 81 -52 81c-43 0 -51 -43 -51 -77c0 -35 5 -87 51 -87c44 0 52 49 52 83z" />
    <glyph glyph-name="uni04D6" unicode="&#x4d6;" horiz-adv-x="321" 
d="M290 0h-239v667h239v-76h-149v-212h132v-76h-132v-227h149v-76zM233 827l75 -30c-10 -30 -29 -54 -50 -68c-29 -20 -61 -23 -89 -23s-60 3 -89 23c-21 14 -40 38 -50 68l75 30c3 -12 11 -29 21 -38c13 -12 30 -14 43 -14c15 0 30 2 43 14c10 9 18 24 21 38z" />
    <glyph glyph-name="uni04D7" unicode="&#x4d7;" horiz-adv-x="326" 
d="M299 207h-188c0 -39 0 -143 57 -143c44 0 51 54 51 87h77c-1 -32 -3 -61 -17 -90c-21 -44 -63 -68 -112 -68c-126 0 -137 133 -137 229c0 93 11 232 135 232c126 0 134 -154 134 -247zM111 267h104c-2 35 -2 117 -52 117c-49 0 -50 -83 -52 -117zM220 617l69 -24
c-2 -6 -14 -42 -44 -65c-20 -15 -49 -23 -82 -23s-62 8 -82 23c-30 23 -42 59 -44 65l69 24c3 -12 10 -25 19 -33c8 -7 21 -12 38 -12s30 5 38 12c9 8 16 21 19 33z" />
    <glyph glyph-name="uni04D8" unicode="&#x4d8;" horiz-adv-x="411" 
d="M38 351h243c-1 50 -3 95 -7 135c-2 23 -6 70 -32 94c-14 13 -30 16 -44 16c-13 0 -30 -2 -44 -15c-19 -17 -28 -52 -32 -77l-84 35c8 30 27 73 51 97c32 32 70 39 108 39c33 0 75 -6 110 -40c63 -60 67 -182 67 -289c0 -200 -31 -280 -69 -317c-36 -35 -80 -38 -107 -38
c-31 0 -68 4 -101 37c-53 54 -59 158 -59 273v50zM280 275h-157v-49c0 -39 1 -102 31 -133c13 -13 28 -18 46 -18c11 0 29 2 43 15s23 38 29 79c5 34 7 72 8 106z" />
    <glyph glyph-name="afii10846" unicode="&#x4d9;" horiz-adv-x="326" 
d="M30 248h188v4c0 83 -18 110 -29 120c-9 8 -18 11 -28 11c-11 0 -22 -4 -29 -11c-16 -15 -24 -50 -25 -76l-77 16c5 31 15 78 43 107c20 21 49 35 89 35c41 0 68 -14 86 -32c46 -45 51 -133 51 -197c0 -69 -6 -153 -51 -199c-22 -23 -51 -33 -85 -33c-30 0 -56 9 -78 30
c-51 49 -55 153 -55 194v31zM218 188h-104c1 -51 6 -95 26 -115c8 -8 16 -10 25 -10c13 0 21 4 28 12c15 16 24 45 25 113z" />
    <glyph glyph-name="uni04DA" unicode="&#x4da;" horiz-adv-x="411" 
d="M38 351h243c-1 50 -3 95 -7 135c-2 23 -6 70 -32 94c-14 13 -30 16 -44 16c-13 0 -30 -2 -44 -15c-19 -17 -28 -52 -32 -77l-84 35c8 30 27 73 51 97c32 32 70 39 108 39c33 0 75 -6 110 -40c63 -60 67 -182 67 -289c0 -200 -31 -280 -69 -317c-36 -35 -80 -38 -107 -38
c-31 0 -68 4 -101 37c-53 54 -59 158 -59 273v50zM280 275h-157v-49c0 -39 1 -102 31 -133c13 -13 28 -18 46 -18c11 0 29 2 43 15s23 38 29 79c5 34 7 72 8 106zM320 771c0 -28 -22 -50 -50 -50s-50 22 -50 50s22 50 50 50s50 -22 50 -50zM172 771c0 -28 -22 -50 -50 -50
s-50 22 -50 50s22 50 50 50s50 -22 50 -50z" />
    <glyph glyph-name="uni04DB" unicode="&#x4db;" horiz-adv-x="326" 
d="M30 248h188v4c0 83 -18 110 -29 120c-9 8 -18 11 -28 11c-11 0 -22 -4 -29 -11c-16 -15 -24 -50 -25 -76l-77 16c5 31 15 78 43 107c20 21 49 35 89 35c41 0 68 -14 86 -32c46 -45 51 -133 51 -197c0 -69 -6 -153 -51 -199c-22 -23 -51 -33 -85 -33c-30 0 -56 9 -78 30
c-51 49 -55 153 -55 194v31zM218 188h-104c1 -51 6 -95 26 -115c8 -8 16 -10 25 -10c13 0 21 4 28 12c15 16 24 45 25 113zM289 563c0 -28 -22 -50 -50 -50s-50 22 -50 50s22 50 50 50s50 -22 50 -50zM141 563c0 -28 -22 -50 -50 -50s-50 22 -50 50s22 50 50 50
s50 -22 50 -50z" />
    <glyph glyph-name="uni04DC" unicode="&#x4dc;" horiz-adv-x="516" 
d="M511 0h-93l-116 329v-329h-88v329l-116 -329h-93l132 344l-126 323h87l116 -308v308h88v-308l116 308h87l-126 -323zM377 771c0 -28 -22 -50 -50 -50s-50 22 -50 50s22 50 50 50s50 -22 50 -50zM229 771c0 -28 -22 -50 -50 -50s-50 22 -50 50s22 50 50 50s50 -22 50 -50z
" />
    <glyph glyph-name="uni04DD" unicode="&#x4dd;" horiz-adv-x="450" 
d="M446 0h-92l-89 204v-204h-80v204l-89 -204h-92l104 230l-103 217h93l87 -205v205h80v-205l87 205h93l-103 -217zM344 563c0 -28 -22 -50 -50 -50s-50 22 -50 50s22 50 50 50s50 -22 50 -50zM196 563c0 -28 -22 -50 -50 -50s-50 22 -50 50s22 50 50 50s50 -22 50 -50z" />
    <glyph glyph-name="uni04DE" unicode="&#x4de;" horiz-adv-x="355" 
d="M96 383h10c15 0 52 1 77 23c24 21 28 53 28 78c0 33 -7 64 -25 84c-11 12 -29 24 -59 24c-42 0 -69 -25 -85 -45v93c35 28 70 35 103 35c32 0 74 -6 107 -37c24 -23 49 -67 49 -142c0 -33 -4 -81 -36 -115c-14 -15 -29 -24 -47 -28c28 -4 47 -18 59 -29
c22 -21 44 -59 44 -128c0 -71 -23 -127 -58 -161c-37 -36 -77 -44 -120 -44c-32 0 -69 4 -105 35v94c34 -35 69 -43 94 -43c32 0 53 12 65 23c28 26 31 67 31 94c0 25 -3 66 -30 90c-24 22 -59 23 -81 23h-21v76zM274 771c0 -28 -22 -50 -50 -50s-50 22 -50 50s22 50 50 50
s50 -22 50 -50zM126 771c0 -28 -22 -50 -50 -50s-50 22 -50 50s22 50 50 50s50 -22 50 -50z" />
    <glyph glyph-name="uni04DF" unicode="&#x4df;" horiz-adv-x="293" 
d="M30 339v84c7 6 18 15 35 21c18 7 38 10 59 10c51 0 80 -18 96 -34s32 -43 32 -86c0 -35 -11 -56 -19 -67c-10 -14 -25 -26 -43 -33c18 -6 38 -17 51 -30c15 -16 27 -41 27 -75c0 -40 -14 -78 -41 -103c-31 -29 -67 -33 -98 -33c-28 0 -64 3 -99 28v87c7 -8 20 -19 31 -25
c21 -12 46 -12 50 -12c18 0 38 5 50 17c10 10 17 26 17 45c0 26 -14 41 -25 48c-18 12 -43 12 -59 12h-18v70h18c25 0 46 7 57 18c9 9 15 23 15 40s-7 33 -18 43c-8 7 -21 14 -41 14c-19 0 -35 -5 -47 -13c-10 -6 -21 -16 -30 -26zM249 563c0 -28 -22 -50 -50 -50
s-50 22 -50 50s22 50 50 50s50 -22 50 -50zM101 563c0 -28 -22 -50 -50 -50s-50 22 -50 50s22 50 50 50s50 -22 50 -50z" />
    <glyph glyph-name="uni04E2" unicode="&#x4e2;" horiz-adv-x="410" 
d="M51 0v667h88v-273c0 -50 -5 -147 -19 -235c27 89 34 125 59 201l100 307h80v-667h-88v297c0 54 12 166 18 217c-23 -82 -33 -126 -51 -181l-107 -333h-80zM317 732h-224v62h224v-62z" />
    <glyph glyph-name="uni04E3" unicode="&#x4e3;" horiz-adv-x="370" 
d="M47 447h82v-223c0 -16 -2 -62 -3 -81c7 28 16 51 25 75l92 229h80v-447h-82v222c0 22 1 53 3 79c-8 -33 -17 -57 -27 -82l-90 -219h-80v447zM292 531h-224v62h224v-62z" />
    <glyph glyph-name="uni04E4" unicode="&#x4e4;" horiz-adv-x="410" 
d="M51 0v667h88v-273c0 -50 -5 -147 -19 -235c27 89 34 125 59 201l100 307h80v-667h-88v297c0 54 12 166 18 217c-23 -82 -33 -126 -51 -181l-107 -333h-80zM329 771c0 -28 -22 -50 -50 -50s-50 22 -50 50s22 50 50 50s50 -22 50 -50zM181 771c0 -28 -22 -50 -50 -50
s-50 22 -50 50s22 50 50 50s50 -22 50 -50z" />
    <glyph glyph-name="uni04E5" unicode="&#x4e5;" horiz-adv-x="370" 
d="M47 447h82v-223c0 -16 -2 -62 -3 -81c7 28 16 51 25 75l92 229h80v-447h-82v222c0 22 1 53 3 79c-8 -33 -17 -57 -27 -82l-90 -219h-80v447zM304 563c0 -28 -22 -50 -50 -50s-50 22 -50 50s22 50 50 50s50 -22 50 -50zM156 563c0 -28 -22 -50 -50 -50s-50 22 -50 50
s22 50 50 50s50 -22 50 -50z" />
    <glyph glyph-name="uni04E6" unicode="&#x4e6;" horiz-adv-x="423" 
d="M385 333c0 -100 -3 -238 -66 -301c-32 -32 -72 -41 -107 -41c-51 0 -85 18 -108 41c-62 63 -66 200 -66 299c0 102 3 240 66 303c23 23 57 41 108 41c50 0 84 -18 107 -41c62 -62 66 -199 66 -301zM132 317c0 -165 19 -209 37 -227c13 -13 27 -16 43 -16c15 0 29 3 42 16
c18 18 37 62 37 227v50c0 155 -22 197 -37 211c-13 13 -27 16 -42 16c-16 0 -30 -3 -43 -16c-15 -14 -37 -56 -37 -211v-50zM331 771c0 -28 -22 -50 -50 -50s-50 22 -50 50s22 50 50 50s50 -22 50 -50zM183 771c0 -28 -22 -50 -50 -50s-50 22 -50 50s22 50 50 50
s50 -22 50 -50z" />
    <glyph glyph-name="uni04E7" unicode="&#x4e7;" horiz-adv-x="341" 
d="M225 192v59c0 78 -14 105 -25 116c-9 9 -19 12 -28 12s-19 -3 -28 -12c-11 -11 -25 -38 -25 -116v-59c0 -24 2 -87 25 -110c9 -9 19 -12 28 -12s19 3 28 12c23 23 25 86 25 110zM311 223c0 -66 -4 -150 -55 -198c-25 -24 -53 -32 -85 -32c-33 0 -61 8 -86 32
c-51 48 -55 132 -55 198c0 67 4 151 55 199c25 24 53 32 86 32c32 0 60 -8 85 -32c51 -48 55 -132 55 -199zM290 563c0 -28 -22 -50 -50 -50s-50 22 -50 50s22 50 50 50s50 -22 50 -50zM142 563c0 -28 -22 -50 -50 -50s-50 22 -50 50s22 50 50 50s50 -22 50 -50z" />
    <glyph glyph-name="uni04E8" unicode="&#x4e8;" horiz-adv-x="423" 
d="M385 330c0 -127 -10 -242 -66 -298c-32 -32 -72 -41 -107 -41c-51 0 -85 18 -108 41c-62 62 -66 200 -66 299c0 108 5 241 66 303c23 23 57 41 108 41c35 0 75 -9 107 -41c54 -55 66 -164 66 -304zM132 386h159c1 51 -7 162 -37 192c-13 13 -28 16 -42 16
c-16 0 -30 -3 -43 -16c-35 -34 -37 -156 -37 -192zM291 310h-159c-1 -77 3 -186 37 -220c13 -13 27 -16 43 -16c14 0 29 3 42 16c7 7 39 43 37 220z" />
    <glyph glyph-name="uni04E9" unicode="&#x4e9;" horiz-adv-x="341" 
d="M118 192c0 -24 4 -87 26 -110c10 -11 22 -12 28 -12c10 0 21 4 28 11c21 19 26 87 26 111h-108zM118 266h108c-4 72 -18 93 -26 101c-9 9 -19 12 -28 12s-19 -3 -28 -12c-19 -19 -24 -68 -26 -101zM311 223c0 -66 -4 -149 -55 -198c-25 -24 -53 -32 -85 -32
c-33 0 -61 8 -86 32c-45 43 -55 114 -55 195c0 73 6 155 55 202c25 24 53 32 86 32c32 0 60 -8 85 -32c53 -50 55 -137 55 -199z" />
    <glyph glyph-name="uni04EA" unicode="&#x4ea;" horiz-adv-x="423" 
d="M385 330c0 -127 -10 -242 -66 -298c-32 -32 -72 -41 -107 -41c-51 0 -85 18 -108 41c-62 62 -66 200 -66 299c0 108 5 241 66 303c23 23 57 41 108 41c35 0 75 -9 107 -41c54 -55 66 -164 66 -304zM132 386h159c1 51 -7 162 -37 192c-13 13 -28 16 -42 16
c-16 0 -30 -3 -43 -16c-35 -34 -37 -156 -37 -192zM291 310h-159c-1 -77 3 -186 37 -220c13 -13 27 -16 43 -16c14 0 29 3 42 16c7 7 39 43 37 220zM333 771c0 -28 -22 -50 -50 -50s-50 22 -50 50s22 50 50 50s50 -22 50 -50zM185 771c0 -28 -22 -50 -50 -50s-50 22 -50 50
s22 50 50 50s50 -22 50 -50z" />
    <glyph glyph-name="uni04EB" unicode="&#x4eb;" horiz-adv-x="341" 
d="M118 192c0 -24 4 -87 26 -110c10 -11 22 -12 28 -12c10 0 21 4 28 11c21 19 26 87 26 111h-108zM118 266h108c-4 72 -18 93 -26 101c-9 9 -19 12 -28 12s-19 -3 -28 -12c-19 -19 -24 -68 -26 -101zM311 223c0 -66 -4 -149 -55 -198c-25 -24 -53 -32 -85 -32
c-33 0 -61 8 -86 32c-45 43 -55 114 -55 195c0 73 6 155 55 202c25 24 53 32 86 32c32 0 60 -8 85 -32c53 -50 55 -137 55 -199zM295 563c0 -28 -22 -50 -50 -50s-50 22 -50 50s22 50 50 50s50 -22 50 -50zM147 563c0 -28 -22 -50 -50 -50s-50 22 -50 50s22 50 50 50
s50 -22 50 -50z" />
    <glyph glyph-name="uni04EE" unicode="&#x4ee;" horiz-adv-x="359" 
d="M8 667h94l41 -157c15 -59 26 -97 40 -175c6 33 18 100 38 177l40 155h90l-183 -667h-88l61 213zM296 732h-224v62h224v-62z" />
    <glyph glyph-name="uni04EF" unicode="&#x4ef;" horiz-adv-x="326" 
d="M323 447l-185 -635h-87l71 224l-119 411h94l65 -312l77 312h84zM275 531h-224v62h224v-62z" />
    <glyph glyph-name="uni04F0" unicode="&#x4f0;" horiz-adv-x="359" 
d="M8 667h94l41 -157c15 -59 26 -97 40 -175c6 33 18 100 38 177l40 155h90l-183 -667h-88l61 213zM309 771c0 -28 -22 -50 -50 -50s-50 22 -50 50s22 50 50 50s50 -22 50 -50zM161 771c0 -28 -22 -50 -50 -50s-50 22 -50 50s22 50 50 50s50 -22 50 -50z" />
    <glyph glyph-name="uni04F1" unicode="&#x4f1;" horiz-adv-x="326" 
d="M323 447l-185 -635h-87l71 224l-119 411h94l65 -312l77 312h84zM291 563c0 -28 -22 -50 -50 -50s-50 22 -50 50s22 50 50 50s50 -22 50 -50zM143 563c0 -28 -22 -50 -50 -50s-50 22 -50 50s22 50 50 50s50 -22 50 -50z" />
    <glyph glyph-name="uni04F2" unicode="&#x4f2;" horiz-adv-x="359" 
d="M8 667h94l41 -157c15 -59 26 -97 40 -175c6 33 18 100 38 177l40 155h90l-183 -667h-88l61 213zM322 852l-77 -126l-39 21l61 138zM209 852l-77 -126l-40 21l61 138z" />
    <glyph glyph-name="uni04F3" unicode="&#x4f3;" horiz-adv-x="326" 
d="M323 447l-185 -635h-87l71 224l-119 411h94l65 -312l77 312h84zM303 638l-77 -126l-39 21l61 138zM190 638l-77 -126l-40 21l61 138z" />
    <glyph glyph-name="uni04F4" unicode="&#x4f4;" horiz-adv-x="405" 
d="M354 667v-667h-90v319c-25 -6 -49 -8 -72 -8c-30 0 -68 3 -97 24c-44 31 -50 84 -50 145v187h91v-190c0 -19 1 -52 20 -69c16 -15 43 -15 55 -15c20 0 37 3 53 7v267h90zM329 771c0 -28 -22 -50 -50 -50s-50 22 -50 50s22 50 50 50s50 -22 50 -50zM181 771
c0 -28 -22 -50 -50 -50s-50 22 -50 50s22 50 50 50s50 -22 50 -50z" />
    <glyph glyph-name="uni04F5" unicode="&#x4f5;" horiz-adv-x="337" 
d="M208 0v195c-20 -7 -41 -11 -66 -11c-18 0 -56 2 -82 27c-29 27 -30 65 -30 96v140h80v-131c0 -15 1 -34 13 -46c11 -11 28 -12 39 -12c15 0 29 1 46 9v180h82v-447h-82zM288 563c0 -28 -22 -50 -50 -50s-50 22 -50 50s22 50 50 50s50 -22 50 -50zM140 563
c0 -28 -22 -50 -50 -50s-50 22 -50 50s22 50 50 50s50 -22 50 -50z" />
    <glyph glyph-name="uni04F8" unicode="&#x4f8;" horiz-adv-x="514" 
d="M462 0h-90v667h90v-667zM51 667h90v-285h10c43 0 96 -5 135 -44c40 -41 46 -105 46 -150c0 -47 -6 -111 -44 -149c-19 -19 -54 -39 -113 -39h-124v667zM141 306v-230h4c22 0 51 0 71 19c24 23 25 70 25 92c0 27 -2 75 -28 99c-20 18 -50 20 -69 20h-3zM376 771
c0 -28 -22 -50 -50 -50s-50 22 -50 50s22 50 50 50s50 -22 50 -50zM228 771c0 -28 -22 -50 -50 -50s-50 22 -50 50s22 50 50 50s50 -22 50 -50z" />
    <glyph glyph-name="uni04F9" unicode="&#x4f9;" horiz-adv-x="460" 
d="M413 0h-82v447h82v-447zM129 447v-171h14c29 0 84 -2 121 -40c31 -31 35 -70 35 -102c0 -27 -4 -72 -36 -102c-31 -29 -73 -32 -105 -32h-111v447h82zM129 70h20c12 0 35 0 50 14c7 7 16 22 16 50c0 29 -9 45 -18 54c-11 11 -31 18 -58 18h-10v-136zM354 563
c0 -28 -22 -50 -50 -50s-50 22 -50 50s22 50 50 50s50 -22 50 -50zM206 563c0 -28 -22 -50 -50 -50s-50 22 -50 50s22 50 50 50s50 -22 50 -50z" />
    <glyph glyph-name="uni1E9E" unicode="&#x1e9e;" horiz-adv-x="385" 
d="M52 0v505c0 40 -1 85 35 126c21 23 53 43 104 44c49 1 79 -8 109 -37c34 -32 37 -84 37 -141l-74 -110c23 -6 46 -19 61 -42c22 -34 23 -90 23 -126c0 -61 -4 -142 -40 -185c-27 -32 -65 -34 -117 -34h-3v78c21 0 37 4 48 16c23 26 19 90 19 128s-2 74 -17 96
c-10 15 -30 24 -50 25v54l61 100c1 32 1 63 -12 82c-8 12 -23 20 -43 20c-17 0 -32 -8 -40 -19c-13 -17 -16 -43 -16 -78v-502h-85z" />
    <glyph glyph-name="uni2010" unicode="&#x2010;" horiz-adv-x="255" 
d="M205 295v-78h-155v78h155z" />
    <glyph glyph-name="uni2011" unicode="&#x2011;" horiz-adv-x="255" 
d="M205 295v-78h-155v78h155z" />
    <glyph glyph-name="figuredash" unicode="&#x2012;" horiz-adv-x="550" 
d="M480 302h-410v70h410v-70z" />
    <glyph glyph-name="endash" unicode="&#x2013;" horiz-adv-x="550" 
d="M480 221h-410v70h410v-70z" />
    <glyph glyph-name="emdash" unicode="&#x2014;" horiz-adv-x="820" 
d="M750 291v-70h-680v70h680z" />
    <glyph glyph-name="afii00208" unicode="&#x2015;" horiz-adv-x="820" 
d="M750 291v-70h-680v70h680z" />
    <glyph glyph-name="quoteleft" unicode="&#x2018;" horiz-adv-x="197" 
d="M40 492l78 215l46 -13l-52 -223z" />
    <glyph glyph-name="quoteright" unicode="&#x2019;" horiz-adv-x="197" 
d="M164 667l-78 -215l-46 13l52 223z" />
    <glyph glyph-name="quotesinglbase" unicode="&#x201a;" horiz-adv-x="197" 
d="M157 72l-78 -215l-46 13l52 223z" />
    <glyph glyph-name="quotedblleft" unicode="&#x201c;" horiz-adv-x="319" 
d="M40 492l78 215l46 -13l-52 -223zM162 492l78 215l46 -13l-52 -223z" />
    <glyph glyph-name="quotedblright" unicode="&#x201d;" horiz-adv-x="319" 
d="M286 667l-78 -215l-46 13l52 223zM164 667l-78 -215l-46 13l52 223z" />
    <glyph glyph-name="quotedblbase" unicode="&#x201e;" horiz-adv-x="318" 
d="M278 72l-78 -215l-46 13l52 223zM157 72l-78 -215l-46 13l52 223z" />
    <glyph glyph-name="dagger" unicode="&#x2020;" horiz-adv-x="380" 
d="M323 459h-91v-642h-83v642h-92v73h92v197h83v-197h91v-73z" />
    <glyph glyph-name="daggerdbl" unicode="&#x2021;" horiz-adv-x="380" 
d="M323 124h-91v-307h-83v307h-92v73h92v257h-92v74h92v201h83v-201h91v-74h-91v-257h91v-73z" />
    <glyph glyph-name="bullet" unicode="&#x2022;" horiz-adv-x="1000" 
d="M638 340c0 -75 -61 -140 -137 -140c-77 0 -138 64 -138 140s61 140 138 140c76 0 137 -65 137 -140z" />
    <glyph glyph-name="ellipsis" unicode="&#x2026;" horiz-adv-x="560" 
d="M520 47c0 -29 -24 -54 -53 -54c-30 0 -54 24 -54 54c0 29 25 53 54 53s53 -24 53 -53zM333 47c0 -29 -24 -54 -53 -54s-53 25 -53 54s24 53 53 53s53 -24 53 -53zM147 47c0 -30 -24 -54 -54 -54c-29 0 -53 25 -53 54s24 53 53 53s54 -24 54 -53z" />
    <glyph glyph-name="perthousand" unicode="&#x2030;" horiz-adv-x="752" 
d="M223 497c0 -77 -10 -168 -97 -168c-86 0 -94 92 -94 168c0 82 8 174 94 174c87 0 97 -91 97 -174zM164 476v49c0 24 -1 92 -36 92c-34 0 -36 -58 -36 -82v-65c0 -25 0 -87 36 -87c35 0 36 69 36 93zM427 667l-291 -667h-55l291 667h55zM483 163c0 -77 -10 -168 -97 -168
c-86 0 -94 92 -94 168c0 82 8 174 94 174c87 0 97 -91 97 -174zM424 142v49c0 24 -1 92 -36 92c-34 0 -36 -58 -36 -82v-65c0 -25 0 -87 36 -87c35 0 36 69 36 93zM720 163c0 -77 -10 -168 -97 -168c-86 0 -94 92 -94 168c0 82 8 174 94 174c87 0 97 -91 97 -174zM661 142
v49c0 24 -1 92 -36 92c-34 0 -36 -58 -36 -82v-65c0 -25 0 -87 36 -87c35 0 36 69 36 93z" />
    <glyph glyph-name="guilsinglleft" unicode="&#x2039;" horiz-adv-x="221" 
d="M187 405l-101 -171l92 -177l-39 -21l-106 198l115 196z" />
    <glyph glyph-name="guilsinglright" unicode="&#x203a;" horiz-adv-x="221" 
d="M187 234l-105 -198l-39 21l92 177l-102 171l40 25z" />
    <glyph glyph-name="fraction" unicode="&#x2044;" horiz-adv-x="126" 
d="M256 667l-331 -667h-55l331 667h55z" />
    <glyph glyph-name="Euro" unicode="&#x20ac;" horiz-adv-x="380" 
d="M371 10c-27 -16 -42 -19 -73 -19c-144 0 -187 128 -199 249h-98l28 66h67c0 22 0 45 1 67h-97l29 67h73c14 115 58 236 194 236c31 0 48 -5 75 -20v-81c-19 10 -36 17 -58 17c-82 0 -107 -85 -116 -152h149l-29 -67h-125c-1 -15 -1 -31 -1 -46v-21h90l-28 -66h-58
c9 -72 35 -161 123 -161c21 0 35 4 53 13v-82z" />
    <glyph glyph-name="uni20B4" unicode="&#x20b4;" horiz-adv-x="380" 
d="M85 567v86c13 5 31 12 43 15c20 5 51 8 68 8c29 0 67 -5 95 -33c25 -26 37 -67 37 -106c0 -43 -13 -77 -34 -106h61v-62h-96l-40 -52h136v-61h-170c-37 -46 -40 -86 -40 -106c0 -16 2 -41 22 -58c16 -13 36 -15 51 -15c21 0 34 4 52 11c16 6 27 12 41 24v-89
c-13 -7 -38 -19 -52 -23c-17 -5 -52 -10 -70 -10c-47 0 -76 19 -93 37c-22 23 -38 59 -38 114c0 49 13 84 35 115h-59v61h93l40 52h-133v62h170c32 38 36 73 36 89c0 30 -10 48 -19 57c-15 15 -35 18 -53 18c-19 0 -31 -3 -48 -10c-13 -5 -23 -10 -35 -18z" />
    <glyph glyph-name="uni20B6" unicode="&#x20b6;" horiz-adv-x="380" 
d="M198 667c37 0 65 -1 98 -21c55 -33 66 -106 66 -165c0 -55 -12 -116 -58 -152c-38 -29 -88 -30 -134 -30v-52h110v-61h-110v-186h-90v186h-66v62h66v51h-66v74h66v294h118zM170 373h8c73 0 90 40 90 106c0 60 -16 112 -86 112h-12v-218z" />
    <glyph glyph-name="uni20B6" unicode="&#x20cf;" horiz-adv-x="380" 
d="M198 667c37 0 65 -1 98 -21c55 -33 66 -106 66 -165c0 -55 -12 -116 -58 -152c-38 -29 -88 -30 -134 -30v-52h110v-61h-110v-186h-90v186h-66v62h66v51h-66v74h66v294h118zM170 373h8c73 0 90 40 90 106c0 60 -16 112 -86 112h-12v-218z" />
    <glyph glyph-name="uni20B6" unicode="&#x20ce;" horiz-adv-x="380" 
d="M198 667c37 0 65 -1 98 -21c55 -33 66 -106 66 -165c0 -55 -12 -116 -58 -152c-38 -29 -88 -30 -134 -30v-52h110v-61h-110v-186h-90v186h-66v62h66v51h-66v74h66v294h118zM170 373h8c73 0 90 40 90 106c0 60 -16 112 -86 112h-12v-218z" />
    <glyph glyph-name="uni20B6" unicode="&#x20cd;" horiz-adv-x="380" 
d="M198 667c37 0 65 -1 98 -21c55 -33 66 -106 66 -165c0 -55 -12 -116 -58 -152c-38 -29 -88 -30 -134 -30v-52h110v-61h-110v-186h-90v186h-66v62h66v51h-66v74h66v294h118zM170 373h8c73 0 90 40 90 106c0 60 -16 112 -86 112h-12v-218z" />
    <glyph glyph-name="uni20B6" unicode="&#x20cc;" horiz-adv-x="380" 
d="M198 667c37 0 65 -1 98 -21c55 -33 66 -106 66 -165c0 -55 -12 -116 -58 -152c-38 -29 -88 -30 -134 -30v-52h110v-61h-110v-186h-90v186h-66v62h66v51h-66v74h66v294h118zM170 373h8c73 0 90 40 90 106c0 60 -16 112 -86 112h-12v-218z" />
    <glyph glyph-name="uni20B6" unicode="&#x20cb;" horiz-adv-x="380" 
d="M198 667c37 0 65 -1 98 -21c55 -33 66 -106 66 -165c0 -55 -12 -116 -58 -152c-38 -29 -88 -30 -134 -30v-52h110v-61h-110v-186h-90v186h-66v62h66v51h-66v74h66v294h118zM170 373h8c73 0 90 40 90 106c0 60 -16 112 -86 112h-12v-218z" />
    <glyph glyph-name="uni20B6" unicode="&#x20ca;" horiz-adv-x="380" 
d="M198 667c37 0 65 -1 98 -21c55 -33 66 -106 66 -165c0 -55 -12 -116 -58 -152c-38 -29 -88 -30 -134 -30v-52h110v-61h-110v-186h-90v186h-66v62h66v51h-66v74h66v294h118zM170 373h8c73 0 90 40 90 106c0 60 -16 112 -86 112h-12v-218z" />
    <glyph glyph-name="uni20B6" unicode="&#x20c9;" horiz-adv-x="380" 
d="M198 667c37 0 65 -1 98 -21c55 -33 66 -106 66 -165c0 -55 -12 -116 -58 -152c-38 -29 -88 -30 -134 -30v-52h110v-61h-110v-186h-90v186h-66v62h66v51h-66v74h66v294h118zM170 373h8c73 0 90 40 90 106c0 60 -16 112 -86 112h-12v-218z" />
    <glyph glyph-name="uni20B6" unicode="&#x20c8;" horiz-adv-x="380" 
d="M198 667c37 0 65 -1 98 -21c55 -33 66 -106 66 -165c0 -55 -12 -116 -58 -152c-38 -29 -88 -30 -134 -30v-52h110v-61h-110v-186h-90v186h-66v62h66v51h-66v74h66v294h118zM170 373h8c73 0 90 40 90 106c0 60 -16 112 -86 112h-12v-218z" />
    <glyph glyph-name="uni20B6" unicode="&#x20c7;" horiz-adv-x="380" 
d="M198 667c37 0 65 -1 98 -21c55 -33 66 -106 66 -165c0 -55 -12 -116 -58 -152c-38 -29 -88 -30 -134 -30v-52h110v-61h-110v-186h-90v186h-66v62h66v51h-66v74h66v294h118zM170 373h8c73 0 90 40 90 106c0 60 -16 112 -86 112h-12v-218z" />
    <glyph glyph-name="uni20B6" unicode="&#x20c6;" horiz-adv-x="380" 
d="M198 667c37 0 65 -1 98 -21c55 -33 66 -106 66 -165c0 -55 -12 -116 -58 -152c-38 -29 -88 -30 -134 -30v-52h110v-61h-110v-186h-90v186h-66v62h66v51h-66v74h66v294h118zM170 373h8c73 0 90 40 90 106c0 60 -16 112 -86 112h-12v-218z" />
    <glyph glyph-name="uni20B6" unicode="&#x20c5;" horiz-adv-x="380" 
d="M198 667c37 0 65 -1 98 -21c55 -33 66 -106 66 -165c0 -55 -12 -116 -58 -152c-38 -29 -88 -30 -134 -30v-52h110v-61h-110v-186h-90v186h-66v62h66v51h-66v74h66v294h118zM170 373h8c73 0 90 40 90 106c0 60 -16 112 -86 112h-12v-218z" />
    <glyph glyph-name="uni20B6" unicode="&#x20c4;" horiz-adv-x="380" 
d="M198 667c37 0 65 -1 98 -21c55 -33 66 -106 66 -165c0 -55 -12 -116 -58 -152c-38 -29 -88 -30 -134 -30v-52h110v-61h-110v-186h-90v186h-66v62h66v51h-66v74h66v294h118zM170 373h8c73 0 90 40 90 106c0 60 -16 112 -86 112h-12v-218z" />
    <glyph glyph-name="uni20B6" unicode="&#x20c3;" horiz-adv-x="380" 
d="M198 667c37 0 65 -1 98 -21c55 -33 66 -106 66 -165c0 -55 -12 -116 -58 -152c-38 -29 -88 -30 -134 -30v-52h110v-61h-110v-186h-90v186h-66v62h66v51h-66v74h66v294h118zM170 373h8c73 0 90 40 90 106c0 60 -16 112 -86 112h-12v-218z" />
    <glyph glyph-name="uni20B6" unicode="&#x20c2;" horiz-adv-x="380" 
d="M198 667c37 0 65 -1 98 -21c55 -33 66 -106 66 -165c0 -55 -12 -116 -58 -152c-38 -29 -88 -30 -134 -30v-52h110v-61h-110v-186h-90v186h-66v62h66v51h-66v74h66v294h118zM170 373h8c73 0 90 40 90 106c0 60 -16 112 -86 112h-12v-218z" />
    <glyph glyph-name="uni20B6" unicode="&#x20c1;" horiz-adv-x="380" 
d="M198 667c37 0 65 -1 98 -21c55 -33 66 -106 66 -165c0 -55 -12 -116 -58 -152c-38 -29 -88 -30 -134 -30v-52h110v-61h-110v-186h-90v186h-66v62h66v51h-66v74h66v294h118zM170 373h8c73 0 90 40 90 106c0 60 -16 112 -86 112h-12v-218z" />
    <glyph glyph-name="uni20B6" unicode="&#x20c0;" horiz-adv-x="380" 
d="M198 667c37 0 65 -1 98 -21c55 -33 66 -106 66 -165c0 -55 -12 -116 -58 -152c-38 -29 -88 -30 -134 -30v-52h110v-61h-110v-186h-90v186h-66v62h66v51h-66v74h66v294h118zM170 373h8c73 0 90 40 90 106c0 60 -16 112 -86 112h-12v-218z" />
    <glyph glyph-name="uni20B6" unicode="&#x20bf;" horiz-adv-x="380" 
d="M198 667c37 0 65 -1 98 -21c55 -33 66 -106 66 -165c0 -55 -12 -116 -58 -152c-38 -29 -88 -30 -134 -30v-52h110v-61h-110v-186h-90v186h-66v62h66v51h-66v74h66v294h118zM170 373h8c73 0 90 40 90 106c0 60 -16 112 -86 112h-12v-218z" />
    <glyph glyph-name="uni20B6" unicode="&#x20be;" horiz-adv-x="380" 
d="M198 667c37 0 65 -1 98 -21c55 -33 66 -106 66 -165c0 -55 -12 -116 -58 -152c-38 -29 -88 -30 -134 -30v-52h110v-61h-110v-186h-90v186h-66v62h66v51h-66v74h66v294h118zM170 373h8c73 0 90 40 90 106c0 60 -16 112 -86 112h-12v-218z" />
    <glyph glyph-name="uni20B6" unicode="&#x20bd;" horiz-adv-x="380" 
d="M198 667c37 0 65 -1 98 -21c55 -33 66 -106 66 -165c0 -55 -12 -116 -58 -152c-38 -29 -88 -30 -134 -30v-52h110v-61h-110v-186h-90v186h-66v62h66v51h-66v74h66v294h118zM170 373h8c73 0 90 40 90 106c0 60 -16 112 -86 112h-12v-218z" />
    <glyph glyph-name="uni20B6" unicode="&#x20bc;" horiz-adv-x="380" 
d="M198 667c37 0 65 -1 98 -21c55 -33 66 -106 66 -165c0 -55 -12 -116 -58 -152c-38 -29 -88 -30 -134 -30v-52h110v-61h-110v-186h-90v186h-66v62h66v51h-66v74h66v294h118zM170 373h8c73 0 90 40 90 106c0 60 -16 112 -86 112h-12v-218z" />
    <glyph glyph-name="uni20B6" unicode="&#x20bb;" horiz-adv-x="380" 
d="M198 667c37 0 65 -1 98 -21c55 -33 66 -106 66 -165c0 -55 -12 -116 -58 -152c-38 -29 -88 -30 -134 -30v-52h110v-61h-110v-186h-90v186h-66v62h66v51h-66v74h66v294h118zM170 373h8c73 0 90 40 90 106c0 60 -16 112 -86 112h-12v-218z" />
    <glyph glyph-name="uni20B6" unicode="&#x20ba;" horiz-adv-x="380" 
d="M198 667c37 0 65 -1 98 -21c55 -33 66 -106 66 -165c0 -55 -12 -116 -58 -152c-38 -29 -88 -30 -134 -30v-52h110v-61h-110v-186h-90v186h-66v62h66v51h-66v74h66v294h118zM170 373h8c73 0 90 40 90 106c0 60 -16 112 -86 112h-12v-218z" />
    <glyph glyph-name="uni20B6" unicode="&#x20b9;" horiz-adv-x="380" 
d="M198 667c37 0 65 -1 98 -21c55 -33 66 -106 66 -165c0 -55 -12 -116 -58 -152c-38 -29 -88 -30 -134 -30v-52h110v-61h-110v-186h-90v186h-66v62h66v51h-66v74h66v294h118zM170 373h8c73 0 90 40 90 106c0 60 -16 112 -86 112h-12v-218z" />
    <glyph glyph-name="uni20B6" unicode="&#x20b7;" horiz-adv-x="380" 
d="M198 667c37 0 65 -1 98 -21c55 -33 66 -106 66 -165c0 -55 -12 -116 -58 -152c-38 -29 -88 -30 -134 -30v-52h110v-61h-110v-186h-90v186h-66v62h66v51h-66v74h66v294h118zM170 373h8c73 0 90 40 90 106c0 60 -16 112 -86 112h-12v-218z" />
    <glyph glyph-name="uni20B8" unicode="&#x20b8;" horiz-adv-x="380" 
d="M336 478h-101v-478h-88v478h-104v79h293v-79zM336 598h-293v69h293v-69z" />
    <glyph glyph-name="afii61352" unicode="&#x2116;" horiz-adv-x="645" 
d="M362 0h-84c-37 110 -75 220 -110 331c-9 27 -18 54 -25 82c-8 33 -13 67 -22 100c5 -33 6 -67 8 -101c8 -137 9 -275 11 -412h-89v667h84c57 -168 117 -334 158 -507c-11 84 -21 169 -21 254v253h90v-667zM606 513c0 -62 -11 -155 -92 -155c-83 0 -96 93 -96 157
c0 63 13 157 95 157c83 0 93 -96 93 -159zM603 256h-182v64h182v-64zM543 514c0 20 -1 99 -30 99c-33 0 -33 -78 -33 -100c0 -21 2 -97 32 -97s31 77 31 98z" />
    <glyph glyph-name="uni2117" unicode="&#x2117;" horiz-adv-x="757" 
d="M294 535h94c26 0 61 0 87 -26c13 -13 27 -38 27 -82c0 -13 -1 -62 -29 -89c-25 -23 -64 -24 -81 -24h-28v-182h-70v403zM364 368h12c15 0 33 2 43 10c15 12 15 37 15 50c0 12 0 34 -12 46s-32 12 -43 12h-15v-118zM724 333c0 -96 -42 -184 -101 -244
c-61 -61 -148 -102 -245 -102c-96 0 -183 41 -244 102c-59 60 -101 148 -101 244s42 184 101 244c61 61 148 102 244 102c97 0 184 -41 245 -102c59 -60 101 -148 101 -244zM378 630c-76 0 -149 -30 -205 -86c-35 -36 -86 -104 -86 -211s51 -175 86 -211
c56 -56 129 -86 205 -86c77 0 150 30 206 86c35 36 86 104 86 211s-51 175 -86 211c-56 56 -129 86 -206 86z" />
    <glyph glyph-name="trademark" unicode="&#x2122;" horiz-adv-x="496" 
d="M486 287h-61l-15 223l-47 -223h-44c-18 76 -36 151 -50 228l-15 -228h-59l35 380h53c21 -84 44 -167 57 -253c4 34 12 67 19 100l33 153h55zM185 616h-63v-329h-62v329h-65v51h190v-51z" />
    <glyph glyph-name="partialdiff" unicode="&#x2202;" 
d="M73 592l11 72c98 -13 181 -36 256 -105c87 -80 129 -193 129 -310c0 -138 -77 -259 -226 -259c-124 0 -223 102 -223 225c0 118 87 219 208 219c63 0 103 -21 143 -69c-11 24 -20 50 -33 68c-51 91 -165 147 -265 159zM381 218c0 86 -55 147 -143 147
c-81 0 -134 -76 -134 -152c0 -79 58 -150 140 -150c85 0 137 76 137 155z" />
    <glyph glyph-name="product" unicode="&#x220f;" horiz-adv-x="704" 
d="M667 -250h-244v74h82v852h-306v-852h81v-74h-243v74h80v852h-80v74h630v-74h-79v-852h79v-74z" />
    <glyph glyph-name="summation" unicode="&#x2211;" horiz-adv-x="667" 
d="M611 -250h-584v83l248 436l-248 399v82h574v-230h-74l-7 156h-401l251 -407l-252 -445h411l5 156h77v-230z" />
    <glyph glyph-name="minus" unicode="&#x2212;" 
d="M467 296h-434v76h434v-76z" />
    <glyph glyph-name="uni2215" unicode="&#x2215;" horiz-adv-x="397" 
d="M410 729l-396 -912h-71l397 912h70z" />
    <glyph glyph-name="uni2219" unicode="&#x2219;" horiz-adv-x="208" 
d="M168 334c0 -35 -29 -64 -64 -64s-64 29 -64 64s29 64 64 64s64 -29 64 -64z" />
    <glyph glyph-name="radical" unicode="&#x221a;" horiz-adv-x="667" 
d="M667 753h-194l-207 -753h-103l-78 295h-85v73h152c11 -40 23 -80 34 -120c13 -46 14 -94 26 -140h6c21 113 50 224 80 334l105 385h264v-74z" />
    <glyph glyph-name="infinity" unicode="&#x221e;" horiz-adv-x="667" 
d="M649 339c0 -90 -63 -154 -153 -154c-72 0 -122 44 -161 101c-39 -56 -91 -101 -163 -101c-92 0 -154 65 -154 156c0 89 65 154 154 154c69 0 122 -46 160 -100c40 57 92 100 164 100c91 0 153 -66 153 -156zM565 340c0 46 -34 81 -80 81c-50 0 -86 -43 -111 -81
c26 -40 60 -82 112 -82c46 0 79 37 79 82zM293 340c-26 39 -60 81 -112 81c-47 0 -79 -36 -79 -82s34 -81 80 -81c51 0 85 43 111 82z" />
    <glyph glyph-name="integral" unicode="&#x222b;" 
d="M413 739l-17 -72c-17 6 -30 10 -48 10c-63 0 -56 -63 -56 -107v-609v-41c0 -105 -24 -169 -143 -169c-22 0 -41 3 -62 10l17 72c16 -6 30 -10 47 -10c68 0 57 76 57 123v621c0 29 0 76 9 104c18 55 69 79 124 79c24 0 48 -5 72 -11z" />
    <glyph glyph-name="approxequal" unicode="&#x2248;" 
d="M442 495l49 -29c-30 -61 -73 -115 -147 -115c-70 0 -134 62 -202 62c-43 0 -67 -36 -85 -70l-48 31c28 61 65 119 140 119c71 0 141 -63 205 -63c46 0 67 29 88 65zM442 322l49 -28c-29 -61 -73 -116 -147 -116c-69 0 -138 63 -202 63c-43 0 -67 -36 -85 -70l-48 30
c28 61 64 119 139 119c72 0 143 -63 206 -63c45 0 67 29 88 65z" />
    <glyph glyph-name="notequal" unicode="&#x2260;" 
d="M467 212h-239l-54 -111h-66l53 111h-127v74h160l43 88h-204v74h238l54 111l67 1l-54 -112h129v-74h-163l-42 -88h205v-74z" />
    <glyph glyph-name="lessequal" unicode="&#x2264;" 
d="M467 149l-434 198v70l434 199v-78l-347 -156l346 -156zM467 46h-434v74h434v-74z" />
    <glyph glyph-name="greaterequal" unicode="&#x2265;" 
d="M467 347l-434 -198v77l347 156l-346 156l-1 78l434 -199v-70zM467 46h-434v74h434v-74z" />
    <glyph glyph-name="dotmath" unicode="&#x22c5;" horiz-adv-x="208" 
d="M168 334c0 -35 -29 -64 -64 -64s-64 29 -64 64s29 64 64 64s64 -29 64 -64z" />
    <glyph glyph-name="lozenge" unicode="&#x25ca;" horiz-adv-x="667" 
d="M593 334l-260 -360l-259 360l259 359zM498 334l-165 226l-164 -226l164 -226z" />
    <glyph glyph-name="openbullet" unicode="&#x25e6;" 
d="M394 528c0 -79 -66 -141 -144 -141s-144 62 -144 141c0 78 67 140 144 140s144 -62 144 -140zM342 527c0 50 -42 90 -92 90c-49 0 -92 -39 -92 -89c0 -51 42 -90 92 -90c49 0 92 39 92 89z" />
    <glyph glyph-name="uniF400" unicode="&#xf400;" horiz-adv-x="2" 
d="M-211 541l86 129l68 -42l-107 -115z" />
    <glyph glyph-name="uniF401" unicode="&#xf401;" horiz-adv-x="2" 
d="M-221 755l86 129l68 -42l-107 -115z" />
    <glyph glyph-name="uniF406" unicode="&#xf406;" 
d="M318 811h55c-7 -65 -63 -93 -123 -93s-116 28 -123 93h55c12 -27 41 -35 68 -35s56 8 68 35z" />
    <glyph glyph-name="uniF407" unicode="&#xf407;" 
d="M332 -72l-73 -118l-49 23l54 125z" />
    <glyph glyph-name="uniF408" unicode="&#xf408;" 
d="M360 761l-41 -34l-69 74l-64 -74l-46 34l111 124z" />
    <glyph glyph-name="uniF409" unicode="&#xf409;" horiz-adv-x="189" 
d="M156 -69l-64 -167l-45 13l37 175z" />
    <glyph glyph-name="uniF40A" unicode="&#xf40a;" horiz-adv-x="196" 
d="M163 667l-69 -189l-45 13l42 197z" />
    <glyph glyph-name="uniF40B" unicode="&#xf40b;" 
d="M303 773c0 -29 -24 -52 -53 -52s-53 23 -53 52s24 53 53 53s53 -24 53 -53z" />
    <glyph glyph-name="uniF40C" unicode="&#xf40c;" 
d="M165 799c0 48 37 85 85 85s85 -37 85 -85s-37 -85 -85 -85s-85 37 -85 85zM210 799c0 -23 17 -40 40 -40s40 17 40 40s-17 40 -40 40s-40 -17 -40 -40z" />
    <glyph glyph-name="uniF40D" unicode="&#xf40d;" 
d="M312 815h49c0 -44 -14 -88 -66 -88c-32 0 -54 28 -82 28c-16 0 -20 -10 -20 -24h-54c2 42 17 88 67 88c38 0 62 -30 88 -30c15 0 15 15 18 26z" />
    <glyph glyph-name="uniF40E" unicode="&#xf40e;" 
d="M405 -95v-51c-18 -7 -29 -9 -48 -9c-43 0 -82 22 -82 69c0 37 23 62 48 86h48c-18 -17 -43 -46 -43 -72c0 -21 14 -31 34 -31c15 0 29 3 43 8z" />
    <glyph glyph-name="uniF4C6" unicode="&#xf4c6;" horiz-adv-x="405" 
d="M354 667v-697c0 -27 -1 -54 -10 -80c-19 -54 -67 -78 -122 -78c-27 0 -53 5 -77 18v90c19 -11 38 -22 60 -22c59 0 59 58 59 103v318c-25 -6 -49 -8 -72 -8c-30 0 -68 3 -97 24c-44 31 -50 84 -50 145v187h91v-190c0 -19 1 -52 20 -69c16 -15 43 -15 55 -15
c20 0 37 3 53 7v267h90z" />
    <glyph glyph-name="uniF4C7" unicode="&#xf4c7;" horiz-adv-x="337" 
d="M208 -35v230c-20 -7 -41 -11 -66 -11c-18 0 -56 2 -82 27c-29 27 -30 65 -30 96v140h80v-131c0 -15 1 -34 13 -46c11 -11 28 -12 39 -12c15 0 29 1 46 9v180h82v-491c0 -39 -3 -86 -36 -117c-14 -13 -38 -27 -75 -27c-17 0 -35 4 -52 10v77c7 -5 18 -10 34 -10
c15 0 25 5 31 10c16 14 16 38 16 66z" />
    <glyph glyph-name="uniF4CC" unicode="&#xf4cc;" horiz-adv-x="359" 
d="M8 667h94l41 -157c15 -59 26 -97 40 -175c6 33 18 100 38 177l40 155h90l-183 -667h-88l61 213zM140 755l86 129l68 -42l-107 -115z" />
    <glyph glyph-name="uniF4CD" unicode="&#xf4cd;" horiz-adv-x="326" 
d="M323 447l-185 -635h-87l71 224l-119 411h94l65 -312l77 312h84zM124 541l86 129l68 -42l-107 -115z" />
    <glyph glyph-name="dollar.fitted" unicode="&#xf5f5;" horiz-adv-x="333" 
d="M315 575l-69 -33c-10 39 -35 62 -77 62c-54 0 -74 -44 -74 -92c0 -26 4 -47 19 -68c41 -59 143 -83 184 -152c19 -32 24 -70 24 -107c0 -46 -8 -96 -33 -135c-25 -40 -60 -49 -93 -57v-84h-60v84c-63 9 -95 34 -120 104l73 35c14 -41 32 -59 77 -59c58 0 71 52 71 100
c0 26 -5 54 -21 75c-13 17 -43 36 -64 49c-91 57 -141 97 -141 207c0 86 41 164 125 171v76h60v-76c57 -7 99 -33 119 -100z" />
    <glyph glyph-name="Euro.fitted" unicode="&#xf5f6;" horiz-adv-x="398" 
d="M376 10c-27 -16 -42 -19 -73 -19c-144 0 -187 128 -199 249h-98l28 66h67c0 22 0 45 1 67h-97l29 67h73c14 115 58 236 194 236c31 0 48 -5 75 -20v-81c-19 10 -36 17 -58 17c-82 0 -107 -85 -116 -152h149l-29 -67h-125c-1 -15 -1 -31 -1 -46v-21h90l-28 -66h-58
c9 -72 35 -161 123 -161c21 0 35 4 53 13v-82z" />
    <glyph glyph-name="cent.fitted" unicode="&#xf5f7;" horiz-adv-x="216" 
d="M200 187v-73c-13 -8 -23 -11 -34 -13v-78h-60v78c-16 4 -40 15 -60 48c-33 48 -36 125 -36 181c0 59 4 132 36 183c19 30 39 39 60 48v92h60v-92c9 -2 21 -6 34 -11v-79c-11 9 -19 12 -33 12c-69 0 -69 -101 -69 -149c0 -45 2 -156 67 -156c12 0 24 4 35 9z" />
    <glyph glyph-name="sterling.fitted" unicode="&#xf5f8;" horiz-adv-x="361" 
d="M271 96l73 -23c-6 -19 -17 -41 -32 -56c-19 -19 -42 -26 -64 -26c-21 0 -39 7 -56 15l-24 11c-26 12 -41 17 -53 17c-11 0 -16 -3 -21 -9c-4 -5 -8 -12 -10 -20l-68 27c1 4 9 35 28 56c11 12 30 23 52 23c5 0 11 -1 16 -2c12 22 17 45 17 70c0 18 -3 59 -34 113h-76v61
h53c-30 68 -37 114 -37 150c0 65 24 105 47 128c22 21 59 44 118 44c50 0 80 -17 98 -34c25 -24 39 -64 40 -98l-70 -33c0 24 -6 59 -21 75c-8 9 -24 18 -49 18c-28 0 -47 -12 -58 -23c-21 -22 -24 -52 -24 -70c0 -15 2 -42 13 -78c6 -20 21 -57 30 -79h99v-61h-81
c20 -51 24 -76 24 -103c0 -48 -13 -80 -23 -98l14 -7c12 -6 32 -18 47 -18c11 0 18 6 22 11c5 5 8 12 10 19z" />
    <glyph glyph-name="yen.fitted" unicode="&#xf5f9;" horiz-adv-x="375" 
d="M363 256h-123v-256h-90v256h-135v61h124l-19 52h-105v62h82l-86 236h96l43 -146c16 -54 35 -107 44 -163c16 104 44 207 69 309h93l-72 -236h79v-62h-97l-16 -52h113v-61z" />
    <glyph glyph-name="florin.fitted" unicode="&#xf5fa;" horiz-adv-x="415" 
d="M411 728l-17 -84c-11 7 -21 11 -35 11c-42 0 -47 -57 -53 -87l-24 -121h69l-12 -61h-69l-59 -310c-17 -90 -36 -209 -151 -209c-22 0 -35 3 -56 11l15 76c12 -4 24 -7 37 -7c47 0 57 59 64 95l66 344h-60l12 61h60l24 121c16 84 30 172 135 172c22 0 34 -3 54 -12z" />
    <glyph glyph-name="uni20B4.fitted" unicode="&#xf5fb;" horiz-adv-x="362" 
d="M71 567v86c13 5 31 12 43 15c20 5 51 8 68 8c29 0 67 -5 95 -33c25 -26 37 -67 37 -106c0 -43 -13 -77 -34 -106h61v-62h-96l-40 -52h136v-61h-170c-37 -46 -40 -86 -40 -106c0 -16 2 -41 22 -58c16 -13 36 -15 51 -15c21 0 34 4 52 11c16 6 27 12 41 24v-89
c-13 -7 -38 -19 -52 -23c-17 -5 -52 -10 -70 -10c-47 0 -76 19 -93 37c-22 23 -38 59 -38 114c0 49 13 84 35 115h-59v61h93l40 52h-133v62h170c32 38 36 73 36 89c0 30 -10 48 -19 57c-15 15 -35 18 -53 18c-19 0 -31 -3 -48 -10c-13 -5 -23 -10 -35 -18z" />
    <glyph glyph-name="uni20B6.fitted" unicode="&#xf5fc;" horiz-adv-x="378" 
d="M202 667c37 0 65 -1 98 -21c55 -33 66 -106 66 -165c0 -55 -12 -116 -58 -152c-38 -29 -88 -30 -134 -30v-52h110v-61h-110v-186h-90v186h-66v62h66v51h-66v74h66v294h118zM174 373h8c73 0 90 40 90 106c0 60 -16 112 -86 112h-12v-218z" />
    <glyph glyph-name="uni20B8.fitted" unicode="&#xf5fd;" horiz-adv-x="309" 
d="M301 478h-101v-478h-88v478h-104v79h293v-79zM301 598h-293v69h293v-69z" />
    <glyph glyph-name="uniF639" unicode="&#xf639;" horiz-adv-x="351" 
d="M330 363c0 -86 2 -211 -32 -289c-22 -51 -62 -82 -119 -82c-149 0 -151 214 -151 319c0 111 -11 364 151 364c148 0 151 -207 151 -312zM238 332c0 33 0 65 -2 98c-1 39 -1 165 -58 165c-56 0 -57 -127 -58 -165c-2 -33 -2 -65 -2 -98c0 -34 0 -69 2 -103
c1 -39 2 -159 58 -159s57 121 58 159c2 34 2 69 2 103z" />
    <glyph glyph-name="uniF63A" unicode="&#xf63a;" horiz-adv-x="334" 
d="M26 450v26c0 109 15 199 146 199c105 0 145 -66 145 -163c0 -99 -63 -231 -110 -318c-21 -39 -43 -77 -62 -117h165v-77h-293c29 67 62 131 94 197c36 74 75 149 100 228c9 29 16 59 16 90c0 37 -13 82 -58 82c-68 0 -56 -104 -55 -147h-88z" />
    <glyph glyph-name="uniF63B" unicode="&#xf63b;" horiz-adv-x="330" 
d="M30 488v16c0 95 21 171 132 171c113 0 141 -74 141 -174c0 -39 -2 -88 -24 -121c-13 -19 -30 -28 -50 -36c27 -9 46 -19 61 -44c19 -33 21 -76 21 -113c0 -111 -32 -195 -158 -195c-99 0 -136 67 -136 158c0 6 0 11 1 17h84c0 -7 -1 -14 -1 -21c0 -35 15 -75 56 -75
c63 0 63 80 63 125c0 58 -9 114 -80 114c-8 0 -15 -1 -23 -2v78c90 0 102 26 102 111c0 36 -4 100 -53 100c-54 0 -51 -71 -51 -109h-85z" />
    <glyph glyph-name="uniF63C" unicode="&#xf63c;" horiz-adv-x="327" 
d="M312 169h-42v-169h-84v169h-182v76l182 422h84v-430h42v-68zM186 237v276l-117 -276h117z" />
    <glyph glyph-name="uniF63D" unicode="&#xf63d;" horiz-adv-x="320" 
d="M152 589l-22 -167c125 0 174 -73 174 -191s-47 -239 -184 -239c-41 0 -69 11 -106 28l22 79c26 -14 48 -24 78 -24c75 0 95 89 95 148c0 74 -29 128 -110 128c-18 0 -36 -3 -54 -8l38 324h212v-78h-143z" />
    <glyph glyph-name="uniF63E" unicode="&#xf63e;" horiz-adv-x="315" 
d="M150 667h95c-20 -44 -41 -86 -62 -129c-25 -52 -47 -105 -68 -158c23 19 41 30 72 30c41 0 74 -24 92 -60c21 -42 22 -106 22 -153c0 -102 -15 -205 -141 -205c-134 0 -145 124 -145 228c0 174 59 296 135 447zM215 199c0 27 -2 74 -12 99c-9 21 -21 30 -44 30
c-22 0 -35 -9 -43 -30c-10 -26 -13 -69 -13 -97c0 -38 1 -131 56 -131s56 91 56 129z" />
    <glyph glyph-name="uniF63F" unicode="&#xf63f;" horiz-adv-x="319" 
d="M315 667l-202 -667h-96l185 591h-185v76h298z" />
    <glyph glyph-name="uniF640" unicode="&#xf640;" horiz-adv-x="326" 
d="M307 187c0 -99 -26 -195 -144 -195c-125 0 -144 104 -144 206c0 42 3 94 28 130c14 19 29 27 51 34c-25 10 -39 19 -52 43c-17 31 -21 71 -21 106c0 45 7 95 38 130c27 30 67 34 105 34c106 0 133 -72 133 -165c0 -35 -4 -74 -21 -105c-13 -24 -27 -33 -51 -43
c22 -8 36 -15 50 -34c28 -38 28 -96 28 -141zM212 504c0 32 -5 93 -49 93s-49 -61 -49 -93s5 -103 49 -103c46 0 49 70 49 103zM218 196c0 38 -1 117 -55 117c-57 0 -55 -89 -55 -128c0 -38 2 -114 55 -114c57 0 55 85 55 125z" />
    <glyph glyph-name="uniF641" unicode="&#xf641;" horiz-adv-x="314" 
d="M162 0h-96c44 93 93 184 132 280c-22 -18 -39 -27 -68 -27c-37 0 -68 18 -88 49c-26 41 -28 102 -28 149c0 103 10 224 143 224s143 -125 143 -228c0 -137 -37 -237 -95 -358c-14 -30 -28 -60 -43 -89zM212 465c0 39 0 128 -56 128c-58 0 -56 -97 -56 -137
c0 -39 1 -123 56 -123c58 0 56 92 56 132z" />
    <glyph glyph-name="uniF6BA" unicode="&#xf6ba;" horiz-adv-x="255" 
d="M205 376v-78h-155v78h155z" />
    <glyph glyph-name="uniF6BB" unicode="&#xf6bb;" horiz-adv-x="550" 
d="M480 302h-410v70h410v-70z" />
    <glyph glyph-name="uniF6BC" unicode="&#xf6bc;" horiz-adv-x="820" 
d="M750 372v-70h-680v70h680z" />
    <glyph glyph-name="uniF6C3" unicode="&#xf6c3;" horiz-adv-x="194" 
d="M161 -69l-63 -165l-45 13l36 173z" />
    <glyph glyph-name="uniF6C9" unicode="&#xf6c9;" 
d="M206 755l86 129l68 -42l-107 -115z" />
    <glyph glyph-name="uniF6CA" unicode="&#xf6ca;" 
d="M360 851l-109 -124l-111 124l46 34l64 -74l69 74z" />
    <glyph glyph-name="uniF6CB" unicode="&#xf6cb;" horiz-adv-x="490" 
d="M369 771c0 -28 -22 -50 -50 -50s-50 22 -50 50s22 50 50 50s50 -22 50 -50zM221 771c0 -28 -22 -50 -50 -50s-50 22 -50 50s22 50 50 50s50 -22 50 -50z" />
    <glyph glyph-name="uniF6CE" unicode="&#xf6ce;" 
d="M294 755l-47 -28l-107 115l68 42z" />
    <glyph glyph-name="uniF6CF" unicode="&#xf6cf;" 
d="M388 852l-77 -126l-39 21l61 138zM275 852l-77 -126l-40 21l61 138z" />
    <glyph glyph-name="uniF6D0" unicode="&#xf6d0;" 
d="M362 732h-224v62h224v-62z" />
    <glyph glyph-name="uniF6D1" unicode="&#xf6d1;" horiz-adv-x="388" 
d="M258 827l75 -30c-10 -30 -29 -54 -50 -68c-29 -20 -61 -23 -89 -23s-60 3 -89 23c-21 14 -40 38 -50 68l75 30c3 -12 11 -29 21 -38c13 -12 30 -14 43 -14c15 0 30 2 43 14c10 9 18 24 21 38z" />
    <glyph glyph-name="uniF6D4" unicode="&#xf6d4;" horiz-adv-x="346" 
d="M230 617l69 -24c-2 -6 -14 -42 -44 -65c-20 -15 -49 -23 -82 -23s-62 8 -82 23c-30 23 -42 59 -44 65l69 24c3 -12 10 -25 19 -33c8 -7 21 -12 38 -12s30 5 38 12c9 8 16 21 19 33z" />
    <glyph glyph-name="uniF6DC" unicode="&#xf6dc;" horiz-adv-x="184" 
d="M159 0h-86v590h-66v77h152v-667z" />
    <glyph glyph-name="uniF6DE" unicode="&#xf6de;" horiz-adv-x="615" 
d="M562 291v-70h-510v70h510z" />
    <glyph glyph-name="nbspace" horiz-adv-x="233" 
 />
    <glyph glyph-name="hyphenminus" horiz-adv-x="255" 
d="M205 295v-78h-155v78h155z" />
    <glyph glyph-name="dotlessi1" horiz-adv-x="176" 
d="M129 0h-82v447h82v-447z" />
    </font>
</defs>
</svg>
