<!--?xml version="1.0" encoding="utf-8"?-->
<!-- Generator: Adobe Illustrator 21.0.2, SVG Export Plug-In . SVG Version: 6.00 Build 0)  -->
<svg version="1.1" id="Layer_1" xmlns="http://www.w3.org/2000/svg" xmlns:xlink="http://www.w3.org/1999/xlink" x="0px" y="0px" viewBox="0 0 150 150" xml:space="preserve" class="">
<style type="text/css">
	.st0{fill:#4262BC;}
</style>
<path class="st0 tRJINzzz_0" d="M78.1,147.1c0,0-2.4-0.2-6.9-3.5c-4.3-3.3-10.6-8.1-15.3-13.6c-10-11.7-13.1-23.7-13-30.8
	c0.3,1.1,8.8,18.3,23.4,27.5c12.2,7.7,31.3,11.9,32.2,12.1l-7.8,5.2l5.8,2.9l28.5,0.1c0,0-2.6-3.9-9.3-9.6
	c-17.3-14.8-56.9-7-66.6-42.8c-5-18.6,7.3-30.7,10-32.3c-7.8,8.7-8.5,40.7,20,51c29.9,10.9,50.4-9.4,51.1-9.7
	c0-0.8-2.7,4.2-2.5,10.4c0.2,6.7,3.7,10.1,8.6,14.9c4.9,4.8,3.4,19,3.4,19s5.9,0.1,7-1c1.3-1.3,0.9-5,0.9-5.6l0.1-75.1
	c0,0-8.3,19.7-18.3,29.2c-17.2,16.4-34.2,14.1-39.2,14.2c1.1-0.3,26.2-4.9,38.5-27.4c5.6-10.1,11-26.2,11.2-27l4.1,4.6l3.4-4.8
	l0.3-31c0,0-13.1,1.1-13,13.4c0.2,35.3-41.9,91-72.9,52.7c4.6,3.7,26.7,15.2,47.4-15.5c13-19.2-1.3-52.5-1.6-53.1
	c0,0,6.7,0.9,6.9,0.8c9.3-0.2,10.1-7.1,16.2-10.3c5.5-2.9,16.9-1.8,16.9-1.8c0,0,0.1-3.4,0.1-3.4c-0.3-2-1.3-3.7-3-4.6
	c-0.8-0.5-1.9-0.8-2.4-0.8l-40.4,0.1L66.4,1.7c0,0,38.3,17.3,39.8,52c-15-38.6-52.2-42.9-53-43.1L56,7.1L49.9,2L24.8,1.7
	c0,0,3.6,4.1,12.7,12.4c5.8,5.3,21.9,2.9,41.3,15.4c35.7,22.9,22,53.1,11.2,58.9c3.6-4,14-36.2-19.1-50.5C51.6,29.5,20,44.3,20,44.3
	c0.5-2.3,1.9-8.9,1.9-9.1c-0.2-9.3-7.2-7.5-10.3-13.5c-2.9-5.5-1.1-19.9-1.1-19.9l-4,0.3C4.5,2.5,4,3.2,3,4.8
	C2.5,5.6,2.2,6.7,2.2,7.3l0.1,40.4l-0.1,30c0,0,21-29.1,47.6-35.6c-1.1,0.3-38.1,18.3-39.7,58.2l-4.2-5.8l-3.2,4.8l-0.5,25.3
	c0,0,3.8-1.9,8.7-6c11.9-10,13.9-36.2,19-49.2C38.1,49.1,72.8,32,88.3,61c-20.7-15.3-38.9-0.5-45.2,8.1c-6.7,9.1-11.4,20.4-6.6,43.5
	c2.2,10.7,5.8,14.9,6.1,15.5c0,0-2.4-0.7-7.2-2c-9-2.4-8.4,4.7-14.4,7.8c-5.5,2.9-18.7,1.4-18.7,1.4v6.3c0.3,2,1.4,3.8,3.1,4.7
	c0.8,0.5,1.8,0.7,2.4,0.7l40.4-0.1L78.1,147.1"></path>
<style>.tRJINzzz_0{stroke-dasharray:2252 2254;stroke-dashoffset:2253;animation:tRJINzzz_draw 2920ms linear 0ms forwards;}@keyframes tRJINzzz_draw{100%{stroke-dashoffset:0;}}@keyframes tRJINzzz_fade{0%{stroke-opacity:1;}94.44444444444444%{stroke-opacity:1;}100%{stroke-opacity:0;}}</style></svg>
